<?xml version="1.0" encoding="UTF-8" standalone="no"?>
<svg
   viewBox="0 0 48 48"
   version="1.1"
   id="svg20"
   xmlns="http://www.w3.org/2000/svg"
   xmlns:svg="http://www.w3.org/2000/svg">
  <defs
     id="defs24" />
  <path
     fill="#FFF"
     d="M13.5 44h29c.275 0 .5-.225.5-.5V14h-8.5c-.827 0-1.5-.673-1.5-1.5V4H13.5c-.275 0-.5.225-.5.5v39c0 .275.225.5.5.5z"
     id="path2"
     style="fill:#185abd;fill-opacity:1" />
  <path
     fill="#FFF"
     d="M42.293 13L34 4.707V12.5c0 .275.225.5.5.5h7.793z"
     id="path4"
     style="fill:#185abd;fill-opacity:1" />
  <path
     opacity=".64"
     fill="#605E5C"
     d="M43.56 12.854l-9.414-9.415A1.51 1.51 0 0033.086 3H13.5c-.827 0-1.5.673-1.5 1.5v39c0 .827.673 1.5 1.5 1.5h29c.827 0 1.5-.673 1.5-1.5V13.914c0-.4-.156-.777-.44-1.06zM34 4.707L42.293 13H34.5a.501.501 0 01-.5-.5V4.707zM42.5 44h-29a.501.501 0 01-.5-.5v-39c0-.275.225-.5.5-.5H33v8.5c0 .827.673 1.5 1.5 1.5H43v29.5c0 .275-.225.5-.5.5z"
     id="path6"
     style="fill:#ffffff" />
  <path
     fill="#103F91"
     d="m 39.656235,31.227596 h -7.906591 v 1 h 7.906591 a 0.34376483,0.5 0 0 0 0,-1 z"
     id="path8"
     style="fill:#f9f7f7;fill-opacity:1;stroke-width:0.829174" />
  <path
     fill="#185ABD"
     d="m 39.656235,27.818398 h -7.906591 v 1 h 7.906591 a 0.34376483,0.5 0 0 0 0,-1 z"
     id="path10"
     style="fill:#f9f7f7;fill-opacity:1;stroke-width:0.829174" />
  <path
     fill="#2B7CD3"
     d="m 39.656235,24.409199 h -7.906591 v 1 h 7.906591 a 0.34376483,0.5 0 0 0 0,-1 z"
     id="path12"
     style="fill:#f9f7f7;fill-opacity:1;stroke-width:0.829174" />
  <path
     fill="#41A5EE"
     d="m 39.656931,21 h -7.890595 v 1 h 7.890595 a 0.34306932,0.5 0 0 0 0,-1 z"
     id="path14"
     style="fill:#f9f7f7;fill-opacity:1;stroke-width:0.828335" />
  <path
     fill="#f9f7f7"
     d="m 19.829,29.322 c 0.033,0.262 0.055,0.49 0.065,0.684 h 0.038 a 11.577,11.577 0 0 1 0.214,-1.328 L 21.921,21 h 2.295 l 1.836,7.564 c 0.092,0.373 0.168,0.848 0.23,1.426 h 0.03 c 0.026,-0.399 0.09,-0.859 0.191,-1.38 L 27.973,21 h 2.088 l -2.57,11 H 25.05 l -1.752,-7.287 c -0.051,-0.21 -0.109,-0.484 -0.172,-0.822 -0.063,-0.338 -0.103,-0.583 -0.119,-0.736 h -0.03 c -0.02,0.18 -0.06,0.446 -0.119,0.798 -0.059,0.354 -0.106,0.613 -0.141,0.783 L 21.072,32 H 18.593 L 16,21 h 2.127 l 1.598,7.694 c 0.036,0.159 0.07,0.369 0.104,0.628 z"
     id="path18" />
</svg>
