<?xml version="1.0" encoding="UTF-8" standalone="no"?>
<svg
   viewBox="0 0 48 48"
   version="1.1"
   id="svg20"
   xmlns="http://www.w3.org/2000/svg"
   xmlns:svg="http://www.w3.org/2000/svg">
  <defs
     id="defs24" />
  <path
     fill="#FFF"
     d="M13.5 44h29c.275 0 .5-.225.5-.5V14h-8.5c-.827 0-1.5-.673-1.5-1.5V4H13.5c-.275 0-.5.225-.5.5v39c0 .275.225.5.5.5z"
     id="path2"
     style="fill:#c6501b;fill-opacity:1" />
  <path
     fill="#FFF"
     d="M42.293 13L34 4.707V12.5c0 .275.225.5.5.5h7.793z"
     id="path4"
     style="fill:#c6501b;fill-opacity:1" />
  <path
     opacity=".64"
     fill="#605E5C"
     d="M43.56 12.854l-9.414-9.415A1.51 1.51 0 0033.086 3H13.5c-.827 0-1.5.673-1.5 1.5v39c0 .827.673 1.5 1.5 1.5h29c.827 0 1.5-.673 1.5-1.5V13.914c0-.4-.156-.777-.44-1.06zM34 4.707L42.293 13H34.5a.501.501 0 01-.5-.5V4.707zM42.5 44h-29a.501.501 0 01-.5-.5v-39c0-.275.225-.5.5-.5H33v8.5c0 .827.673 1.5 1.5 1.5H43v29.5c0 .275-.225.5-.5.5z"
     id="path6"
     style="fill:#ffffff" />
  <path
     style="fill:#ffffff;fill-opacity:1;stroke-width:0.0739907"
     d="m 18.343897,36.497033 v -2.29371 h 0.850882 0.85087 v -1.70178 -1.701787 h 3.699544 3.699545 v -1.183859 -1.183845 h -2.848595 -2.848721 v -2.848651 -2.848638 h 6.215294 6.215224 v 2.848638 2.848651 h -2.848652 -2.848641 v 1.183845 1.183859 h 3.699523 3.699522 v 1.701787 1.70178 h 0.850891 0.850916 v 2.29371 2.293713 H 35.36177 33.142075 v -2.293713 -2.29371 h 0.85087 0.850881 v -1.183847 -1.183855 h -3.181578 -3.181601 v 1.183855 1.183847 h 0.850882 0.850881 v 2.29371 2.293713 h -2.219694 -2.21973 v -2.293713 -2.29371 h 0.850882 0.85087 v -1.183847 -1.183855 h -3.181624 -3.181588 v 1.183855 1.183847 h 0.85087 0.850891 v 2.29371 2.293713 h -2.219694 -2.219696 z"
     id="path5082-1" />
</svg>
