<?xml version="1.0" encoding="UTF-8" standalone="no"?>
<svg
   height="16"
   width="16"
   viewBox="0 0 16 16"
   version="1.0"
   id="svg4"
   xmlns="http://www.w3.org/2000/svg"
   xmlns:svg="http://www.w3.org/2000/svg">
  <defs
     id="defs8" />
  <path
     fill="#FFF"
     d="M 2.8964601,14.978042 H 13.04601 c 0.09625,0 0.174992,-0.07874 0.174992,-0.174992 V 4.4785075 h -2.974868 c -0.2894366,0 -0.5249766,-0.2355395 -0.5249766,-0.5249766 V 0.978663 H 2.8964601 c -0.096246,0 -0.1749918,0.078747 -0.1749918,0.1749923 V 14.80305 c 0,0.09624 0.078744,0.174992 0.1749918,0.174992 z"
     id="path2-3"
     style="fill:#b62f88;fill-opacity:1;stroke-width:0.349985" />
  <path
     fill="#FFF"
     d="M 12.994965,4.1285239 10.092544,1.226102 v 2.7274289 c 0,0.096246 0.07875,0.174993 0.174992,0.174993 z"
     id="path4"
     style="fill:#b62f88;fill-opacity:1;stroke-width:0.349985" />
  <path
     opacity="0.64"
     fill="#605E5C"
     d="M 7.2823331,19.436727 4.6025028,16.756612 A 0.42984317,0.42984317 0 0 0 4.3007586,16.631644 h -5.5754361 c -0.2354172,0 -0.4269963,0.191579 -0.4269963,0.426997 v 11.10191 c 0,0.235417 0.1915791,0.426996 0.4269963,0.426996 h 8.2552664 c 0.2354172,0 0.4269963,-0.191579 0.4269963,-0.426996 v -8.42208 c 0,-0.113865 -0.044408,-0.221184 -0.1252521,-0.301744 z m -2.721391,-2.31916 2.3607212,2.360721 H 4.7032738 A 0.14261684,0.14261684 0 0 1 4.5609421,19.335956 Z m 2.4196468,11.185315 h -8.2552664 a 0.14261684,0.14261684 0 0 1 -0.1423317,-0.142331 v -11.10191 c 0,-0.07828 0.064049,-0.142332 0.1423317,-0.142332 h 5.550955 v 2.419647 c 0,0.235417 0.1915791,0.426996 0.4269963,0.426996 h 2.4196474 v 8.397599 c 0,0.07828 -0.06405,0.142331 -0.1423323,0.142331 z"
     id="path6"
     style="fill:#ffffff;stroke-width:0.284665" />
  <path
     opacity="0.64"
     fill="#605E5C"
     d="M 2.5375895,4.1071009 -0.7887171,0.78044144 A 0.53353759,0.53353759 0 0 0 -1.1632534,0.6253268 h -6.920442 c -0.2922093,0 -0.5300045,0.23779498 -0.5300045,0.530004 V 14.935441 c 0,0.292209 0.2377952,0.530004 0.5300045,0.530004 H 2.1630532 c 0.292209,0 0.5300042,-0.237795 0.5300042,-0.530004 V 4.4816376 c 0,-0.1413344 -0.05512,-0.2745422 -0.1554679,-0.3745367 z M -0.84030409,1.2284714 2.0899126,4.1586885 H -0.66363603 A 0.17702141,0.17702141 0 0 1 -0.84030409,3.98202 Z M 2.1630532,15.112108 H -8.0836954 A 0.17702141,0.17702141 0 0 1 -8.2603633,14.935441 V 1.1553308 c 0,-0.097167 0.079501,-0.17666772 0.1766679,-0.17666772 h 6.8900551 V 3.98202 c 0,0.2922093 0.23779522,0.5300045 0.53000427,0.5300045 H 2.3397212 V 14.935441 c 0,0.09717 -0.0795,0.176667 -0.176668,0.176667 z"
     id="path6-3"
     style="fill:#000000;fill-opacity:0;stroke-width:0.353337" />
  <g
     id="g893"
     transform="matrix(0.00969416,5.0804641e-4,-5.0804641e-4,0.00969416,7.0504153,10.227506)"
     style="fill:#ffffff;fill-opacity:1">
    <path
       class="cls-1"
       d="m 136.76115,-103.32432 -76.26,-75.77 0.35,-0.35 -58.17,-57.8 -10.65,10.73 a 67.38,67.38 0 0 0 0.31,95.29 l 86.63,86.07 z"
       id="path6-7"
       style="fill:#ffffff;fill-opacity:1" />
    <path
       class="cls-1"
       d="m 393.92115,-200.24432 -167.59,-166.5 a 67.38,67.38 0 0 0 -95.29,0.31 l -56.47,56.84 58.17,57.79 46.17,-46.47 146.84,145.95 -176.2,177.3 10.37,10.3 a 67.39,67.39 0 0 0 95.3,-0.31 l 139,-139.92 a 67.38,67.38 0 0 0 -0.3,-95.29 z"
       id="path8"
       style="fill:#ffffff;fill-opacity:1" />
    <path
       class="cls-2"
       d="m 19.09115,25.04568 76.26,75.77 -0.35,0.35 58.17,57.79 10.69,-10.72 a 67.38,67.38 0 0 0 -0.31,-95.29 l -86.69,-86.07 z"
       id="path10"
       style="fill:#ffffff;fill-opacity:1" />
    <path
       class="cls-2"
       d="m -238.06885,121.96568 167.59,166.5 a 67.38,67.38 0 0 0 95.29,-0.31 l 56.47,-56.84 -58.17,-57.79 -46.17,46.47 -146.84,-145.9 176.2,-177.35 -10.37,-10.3 a 67.38,67.38 0 0 0 -95.29,0.31 l -139.01,139.92 a 67.38,67.38 0 0 0 0.3,95.29 z"
       id="path12"
       style="fill:#ffffff;fill-opacity:1" />
    <path
       class="cls-3"
       d="m 15.86115,-98.68432 -75.77,76.26 -0.35,-0.36 -57.8,58.17 10.73,10.66 a 67.38,67.38 0 0 0 95.29,-0.31 l 86.07,-86.63 z"
       id="path14"
       style="fill:#ffffff;fill-opacity:1" />
    <path
       class="cls-3"
       d="m -81.05885,-355.84432 -166.5,167.58 a 67.39,67.39 0 0 0 0.31,95.3 l 56.84,56.46 57.79,-58.17 -46.47,-46.16 145.95,-146.85 177.3,176.2 10.3,-10.36 a 67.39,67.39 0 0 0 -0.31,-95.3 l -139.92,-139 a 67.38,67.38 0 0 0 -95.29,0.3 z"
       id="path16"
       style="fill:#ffffff;fill-opacity:1" />
    <path
       class="cls-4"
       d="m 140.70115,19.67568 75.76,-76.26 0.36,0.36 57.79,-58.1 -10.75,-10.71 a 67.39,67.39 0 0 0 -95.3,0.31 l -86.06,86.63 z"
       id="path18"
       style="fill:#ffffff;fill-opacity:1" />
    <path
       class="cls-4"
       d="m 237.62115,276.85568 166.49,-167.58 a 67.39,67.39 0 0 0 -0.3,-95.3 l -56.84,-56.46 -57.79,58.16 46.46,46.16 -145.89,146.84 -177.35,-176.18 -10.3,10.36 a 67.38,67.38 0 0 0 0.31,95.3 l 139.91,139 a 67.39,67.39 0 0 0 95.3,-0.3 z"
       id="path20"
       style="fill:#ffffff;fill-opacity:1" />
  </g>
</svg>
