<?xml version="1.0" encoding="UTF-8" standalone="no"?>
<svg
   viewBox="0 0 48 48"
   version="1.1"
   id="svg20"
   xmlns="http://www.w3.org/2000/svg"
   xmlns:svg="http://www.w3.org/2000/svg"
   xmlns:figma="http://www.figma.com/figma/ns">
  <defs
     id="defs24" />
  <path
     fill="#FFF"
     d="M13.5 44h29c.275 0 .5-.225.5-.5V14h-8.5c-.827 0-1.5-.673-1.5-1.5V4H13.5c-.275 0-.5.225-.5.5v39c0 .275.225.5.5.5z"
     id="path2"
     style="fill:#333333;fill-opacity:1" />
  <path
     fill="#FFF"
     d="M42.293 13L34 4.707V12.5c0 .275.225.5.5.5h7.793z"
     id="path4"
     style="fill:#333333;fill-opacity:1" />
  <path
     opacity=".64"
     fill="#605E5C"
     d="M43.56 12.854l-9.414-9.415A1.51 1.51 0 0033.086 3H13.5c-.827 0-1.5.673-1.5 1.5v39c0 .827.673 1.5 1.5 1.5h29c.827 0 1.5-.673 1.5-1.5V13.914c0-.4-.156-.777-.44-1.06zM34 4.707L42.293 13H34.5a.501.501 0 01-.5-.5V4.707zM42.5 44h-29a.501.501 0 01-.5-.5v-39c0-.275.225-.5.5-.5H33v8.5c0 .827.673 1.5 1.5 1.5H43v29.5c0 .275-.225.5-.5.5z"
     id="path6"
     style="fill:#ffffff" />
  <g
     id="Canvas"
     transform="matrix(0.41506131,0,0,0.41506131,-661.7549,-1000.3216)"
     figma:type="canvas">
    <g
       id="g71"
       style="mix-blend-mode:normal"
       figma:type="group">
      <g
         id="g69"
         style="mix-blend-mode:normal"
         figma:type="group">
        <g
           id="Group"
           style="mix-blend-mode:normal"
           figma:type="group">
          <g
             id="g"
             style="mix-blend-mode:normal"
             figma:type="group">
            <g
               id="path"
               style="mix-blend-mode:normal"
               figma:type="group">
              <g
                 id="path9 fill"
                 style="mix-blend-mode:normal"
                 figma:type="vector">
                <path
                   id="use6"
                   d="m 1642.285,2479.8353 c 0,1.5581 -0.1247,2.0655 -0.4452,2.4394 -0.3567,0.3213 -0.8198,0.4989 -1.2998,0.4986 l 0.1246,0.8903 c 0.7442,0.01 1.4664,-0.2528 2.0299,-0.7389 0.3033,-0.3698 0.5289,-0.7969 0.6635,-1.2558 0.1346,-0.4588 0.1754,-0.9401 0.12,-1.4151 v -5.8938 h -1.193 v 5.4397 z"
                   style="mix-blend-mode:normal;fill:#4e4e4e" />
              </g>
            </g>
            <g
               id="g13"
               style="mix-blend-mode:normal"
               figma:type="group">
              <g
                 id="path10 fill"
                 style="mix-blend-mode:normal"
                 figma:type="vector">
                <path
                   id="use10"
                   d="m 1651.182,2479.1331 c 0,0.6677 0,1.2642 0.053,1.7806 h -1.0595 l -0.071,-1.0595 c -0.2216,0.3749 -0.5385,0.6844 -0.9185,0.897 -0.38,0.2127 -0.8095,0.321 -1.2449,0.3138 -1.0328,0 -2.2614,-0.5609 -2.2614,-2.8489 v -3.8016 h 1.193 v 3.5612 c 0,1.2375 0.3828,2.0655 1.4601,2.0655 0.2216,0 0.4415,-0.04 0.6467,-0.1232 0.2053,-0.084 0.3917,-0.2076 0.5484,-0.3643 0.1567,-0.1568 0.2806,-0.3432 0.3643,-0.5484 0.084,-0.2053 0.1256,-0.4251 0.1233,-0.6468 v -3.9885 h 1.1929 v 4.7275 z"
                   style="mix-blend-mode:normal;fill:#4e4e4e" />
              </g>
            </g>
            <g
               id="g18"
               style="mix-blend-mode:normal"
               figma:type="group">
              <g
                 id="path11 fill"
                 style="mix-blend-mode:normal"
                 figma:type="vector">
                <path
                   id="use15"
                   d="m 1653.4434,2476.5326 c 0,-0.8279 0,-1.5046 -0.053,-2.1189 h 1.0684 l 0.053,1.1129 c 0.238,-0.4021 0.5807,-0.732 0.9915,-0.9546 0.4107,-0.2227 0.8742,-0.3297 1.3411,-0.3096 1.5847,0 2.7777,1.3265 2.7777,3.303 0,2.3326 -1.4334,3.49 -2.9825,3.49 -0.3965,0.018 -0.7909,-0.067 -1.1449,-0.2467 -0.3541,-0.1793 -0.6558,-0.447 -0.8761,-0.7772 v 0 3.5612 h -1.1752 v -7.0333 z m 1.1752,1.7361 c 0,0.1616 0.021,0.3225 0.053,0.4808 0.101,0.3953 0.331,0.7456 0.6535,0.9956 0.3225,0.2499 0.7191,0.3852 1.1271,0.3843 1.2553,0 1.9943,-1.0238 1.9943,-2.5106 0,-1.2998 -0.6944,-2.4127 -1.9498,-2.4127 -0.4967,0.041 -0.9616,0.2612 -1.3074,0.6201 -0.3459,0.3589 -0.5489,0.8317 -0.5711,1.3297 z"
                   style="mix-blend-mode:normal;fill:#4e4e4e" />
              </g>
            </g>
            <g
               id="g23"
               style="mix-blend-mode:normal"
               figma:type="group">
              <g
                 id="path12 fill"
                 style="mix-blend-mode:normal"
                 figma:type="vector">
                <path
                   id="use20"
                   d="m 1661.7476,2474.4078 1.4334,3.8372 c 0.1514,0.4273 0.3116,0.9437 0.4185,1.3265 0.1246,-0.3917 0.2581,-0.8903 0.4184,-1.3532 l 1.2998,-3.8105 h 1.2554 l -1.7806,4.6296 c -0.8903,2.2257 -1.4334,3.3742 -2.2525,4.0686 -0.4125,0.3768 -0.9155,0.6406 -1.4601,0.7657 l -0.2938,-0.9972 c 0.3808,-0.1251 0.7343,-0.3215 1.0417,-0.5787 0.4343,-0.3539 0.779,-0.8054 1.006,-1.3176 0.049,-0.089 0.082,-0.1851 0.098,-0.2849 -0.01,-0.1074 -0.037,-0.2126 -0.08,-0.3116 l -2.4216,-5.9917 h 1.2998 z"
                   style="mix-blend-mode:normal;fill:#4e4e4e" />
              </g>
            </g>
            <g
               id="g28"
               style="mix-blend-mode:normal"
               figma:type="group">
              <g
                 id="path13 fill"
                 style="mix-blend-mode:normal"
                 figma:type="vector">
                <path
                   id="use25"
                   d="m 1669.7401,2472.54 v 1.8696 h 1.7094 v 0.8903 h -1.7094 v 3.5078 c 0,0.8013 0.2315,1.2642 0.8903,1.2642 0.234,0 0.4675,-0.023 0.6945,-0.08 l 0.053,0.8903 c -0.3404,0.1179 -0.6995,0.1722 -1.0595,0.1602 -0.2384,0.015 -0.4772,-0.022 -0.7,-0.1079 -0.2229,-0.086 -0.4244,-0.2193 -0.5909,-0.3906 -0.3626,-0.4851 -0.5281,-1.0895 -0.463,-1.6916 v -3.5612 h -1.0149 v -0.8903 h 1.0327 v -1.5847 z"
                   style="mix-blend-mode:normal;fill:#4e4e4e" />
              </g>
            </g>
            <g
               id="g33"
               style="mix-blend-mode:normal"
               figma:type="group">
              <g
                 id="path14 fill"
                 style="mix-blend-mode:normal"
                 figma:type="vector">
                <path
                   id="use30"
                   d="m 1673.6472,2477.869 c -0.024,0.3019 0.017,0.6055 0.1221,0.8898 0.1047,0.2842 0.2698,0.5423 0.484,0.7565 0.2142,0.2142 0.4723,0.3793 0.7566,0.484 0.2842,0.1046 0.5878,0.1463 0.8897,0.1222 0.6107,0.014 1.2175,-0.1017 1.7806,-0.3384 l 0.2048,0.8903 c -0.6911,0.2847 -1.4341,0.4212 -2.1812,0.4007 -0.4356,0.03 -0.8724,-0.035 -1.2806,-0.1898 -0.4081,-0.1549 -0.778,-0.3962 -1.0841,-0.7074 -0.3062,-0.3112 -0.5414,-0.685 -0.6895,-1.0956 -0.1481,-0.4107 -0.2057,-0.8485 -0.1687,-1.2835 0,-1.9587 1.1663,-3.5078 3.0715,-3.5078 2.1367,0 2.6709,1.8696 2.6709,3.0626 0.011,0.1838 0.011,0.3682 0,0.552 h -4.6028 z m 3.4899,-0.8903 c 0.034,-0.238 0.017,-0.4806 -0.05,-0.7115 -0.067,-0.2309 -0.1834,-0.4447 -0.3403,-0.6269 -0.1569,-0.1822 -0.3511,-0.3287 -0.5694,-0.4296 -0.2183,-0.1008 -0.4557,-0.1537 -0.6962,-0.155 -0.4892,0.035 -0.9475,0.2522 -1.2851,0.6079 -0.3376,0.3558 -0.5302,0.8248 -0.54,1.3151 z"
                   style="mix-blend-mode:normal;fill:#4e4e4e" />
              </g>
            </g>
            <g
               id="g38"
               style="mix-blend-mode:normal"
               figma:type="group">
              <g
                 id="path15 fill"
                 style="mix-blend-mode:normal"
                 figma:type="vector">
                <path
                   id="use35"
                   d="m 1680.0334,2476.4323 c 0,-0.7657 0,-1.4245 -0.053,-2.0299 h 1.0684 v 1.2731 h 0.053 c 0.1121,-0.3929 0.3438,-0.7412 0.6629,-0.9965 0.3191,-0.2552 0.7097,-0.4048 1.1177,-0.4279 0.1123,-0.015 0.226,-0.015 0.3383,0 v 1.1128 c -0.1361,-0.016 -0.2735,-0.016 -0.4096,0 -0.4041,0.016 -0.7887,0.1779 -1.082,0.4565 -0.2933,0.2785 -0.4751,0.6542 -0.5116,1.057 -0.033,0.1822 -0.051,0.3668 -0.053,0.552 v 3.4633 h -1.1752 v -4.4515 z"
                   style="mix-blend-mode:normal;fill:#4e4e4e" />
              </g>
            </g>
          </g>
          <path
             style="opacity:0.519267;fill:#ffffff;fill-opacity:1;stroke-width:0.051703"
             d="m 19.225334,30.46626 c -0.05632,-0.210372 -0.03502,-0.247365 0.1786,-0.310136 0.228487,-0.06714 0.384845,-0.215181 0.451385,-0.427377 0.02732,-0.08712 0.0458,-0.599634 0.05678,-1.574107 l 0.01627,-1.444923 h 0.218273 0.218273 l 0.009,1.291026 c 0.0049,0.710065 -0.0022,1.38879 -0.01579,1.508279 -0.0288,0.2528 -0.142709,0.521595 -0.294134,0.694058 -0.121354,0.138215 -0.426351,0.286345 -0.659535,0.320321 -0.14547,0.0212 -0.159286,0.01679 -0.17908,-0.05714 z"
             id="path14178"
             transform="matrix(2.4092826,0,0,2.4092826,1594.3546,2410.0574)" />
          <path
             style="opacity:0.519267;fill:#ffffff;fill-opacity:1;stroke-width:0.051703"
             d="m 19.228364,30.418164 c -0.02748,-0.143778 -0.0088,-0.164907 0.245363,-0.277848 0.197849,-0.08791 0.248288,-0.128541 0.327636,-0.263938 l 0.09379,-0.160034 0.02834,-1.426365 c 0.01559,-0.784501 0.02913,-1.460992 0.03009,-1.503314 0.0016,-0.07023 0.01813,-0.07695 0.189201,-0.07695 0.16979,0 0.189402,0.0078 0.208226,0.0828 0.01143,0.04554 0.01481,0.695756 0.0075,1.444924 -0.01279,1.312713 -0.01604,1.369127 -0.08964,1.555174 -0.119399,0.301825 -0.251963,0.459033 -0.48721,0.577785 -0.114574,0.05784 -0.281807,0.113862 -0.371628,0.1245 -0.157784,0.01869 -0.163934,0.01609 -0.181678,-0.07673 z"
             id="path14217"
             transform="matrix(2.4092826,0,0,2.4092826,1594.3546,2410.0574)" />
          <path
             style="opacity:0.519267;fill:#ffffff;fill-opacity:1;stroke-width:0.051703"
             d="M 21.909391,29.398843 C 21.756499,29.343514 21.54161,29.159794 21.471671,29.024615 21.343794,28.77745 21.324136,28.595969 21.32372,27.658749 l -4.06e-4,-0.914833 h 0.21824 0.218241 l 0.01738,0.880634 c 0.0103,0.521773 0.03361,0.933276 0.05722,1.009817 0.05787,0.187661 0.222369,0.358973 0.387344,0.403396 0.306953,0.08265 0.673874,-0.0772 0.806615,-0.351401 0.06935,-0.143266 0.07333,-0.200926 0.07333,-1.06406 v -0.912585 h 0.239396 0.239395 v 1.333775 1.333776 h -0.205196 -0.205196 v -0.205196 c 0,-0.112858 -0.0046,-0.205196 -0.01027,-0.205196 -0.0056,0 -0.09518,0.08224 -0.198955,0.182755 -0.121748,0.117922 -0.247656,0.202849 -0.354915,0.239396 -0.191956,0.06541 -0.529781,0.07017 -0.696549,0.0098 z"
             id="path14256"
             transform="matrix(2.4092826,0,0,2.4092826,1594.3546,2410.0574)" />
          <path
             style="opacity:0.519267;fill:#ffffff;fill-opacity:1;stroke-width:0.051703"
             d="m 21.84557,29.339822 c -0.167139,-0.08273 -0.336887,-0.263379 -0.412382,-0.438858 -0.05099,-0.118522 -0.101153,-0.977138 -0.107536,-1.840704 l -0.0023,-0.316344 h 0.205196 c 0.140803,0 0.205523,0.01342 0.206237,0.04275 5.72e-4,0.02351 0.01496,0.448696 0.03198,0.944854 l 0.03094,0.902104 0.09627,0.154461 c 0.120191,0.192846 0.280307,0.281628 0.506127,0.280639 0.28919,-0.0013 0.575163,-0.181994 0.665246,-0.420418 0.02242,-0.05933 0.03637,-0.449739 0.03637,-1.017432 v -0.921156 h 0.239396 0.239395 v 1.333775 1.333776 h -0.205196 -0.205196 v -0.205196 c 0,-0.112858 -0.0099,-0.205196 -0.0221,-0.205196 -0.01216,0 -0.09708,0.07013 -0.188715,0.155846 -0.235287,0.220083 -0.401089,0.287088 -0.712566,0.287968 -0.192531,5.43e-4 -0.292563,-0.01713 -0.401127,-0.07087 z"
             id="path14295"
             transform="matrix(2.4092826,0,0,2.4092826,1594.3546,2410.0574)" />
          <path
             style="opacity:0.519267;fill:#ffffff;fill-opacity:1;stroke-width:0.051703"
             d="m 24.538056,28.624882 v -1.880966 h 0.205196 0.205196 v 0.226183 0.226183 l 0.162448,-0.172689 c 0.226293,-0.240561 0.467649,-0.347312 0.786218,-0.347742 0.703173,-9.49e-4 1.171696,0.534451 1.171696,1.338944 0,0.464587 -0.12931,0.817941 -0.400912,1.095543 -0.199355,0.203757 -0.435062,0.306879 -0.748904,0.327644 -0.321938,0.0213 -0.537036,-0.05038 -0.752071,-0.250631 -0.08982,-0.08364 -0.168023,-0.152077 -0.17379,-0.152077 -0.0058,0 -0.01048,0.330879 -0.01048,0.735287 v 0.735287 h -0.222296 -0.222296 z m 1.487557,0.429238 c 0.321001,-0.09661 0.531552,-0.408266 0.582994,-0.86295 0.0619,-0.547144 -0.208339,-1.037303 -0.627315,-1.137814 -0.340753,-0.08175 -0.730435,0.11794 -0.895476,0.458868 -0.09004,0.186009 -0.125851,0.640137 -0.07276,0.92288 0.0948,0.504893 0.522653,0.766457 1.012561,0.619016 z"
             id="path14334"
             transform="matrix(2.4092826,0,0,2.4092826,1594.3546,2410.0574)" />
          <path
             style="opacity:0.519267;fill:#ffffff;fill-opacity:1;stroke-width:0.051703"
             d="m 24.538056,28.624882 v -1.880966 h 0.205196 0.205196 v 0.237165 0.237165 l 0.179547,-0.178533 c 0.265058,-0.263561 0.387734,-0.312897 0.778036,-0.312897 0.268558,0 0.352172,0.01344 0.482206,0.07751 0.222993,0.109877 0.3996,0.297682 0.522072,0.555175 0.09322,0.195986 0.107261,0.265314 0.118657,0.585764 0.01869,0.525565 -0.07304,0.808753 -0.367789,1.135411 -0.185476,0.205556 -0.414808,0.305526 -0.742318,0.32359 -0.342176,0.01887 -0.474421,-0.02151 -0.716669,-0.218819 -0.101407,-0.0826 -0.192289,-0.150177 -0.201959,-0.150177 -0.0097,0 -0.01758,0.330879 -0.01758,0.735287 v 0.735287 h -0.222296 -0.222296 z m 1.508219,0.439361 c 0.263036,-0.08922 0.424774,-0.277993 0.523761,-0.611319 0.06813,-0.229434 0.06955,-0.584663 0.0032,-0.80802 -0.161881,-0.545112 -0.701484,-0.780037 -1.166171,-0.507713 -0.323117,0.189359 -0.442832,0.49755 -0.417584,1.075016 0.01566,0.358306 0.07651,0.523604 0.25506,0.692933 0.194784,0.184725 0.530025,0.251255 0.801714,0.159103 z"
             id="path14373"
             transform="matrix(2.4092826,0,0,2.4092826,1594.3546,2410.0574)" />
          <path
             style="opacity:0.519267;fill:#ffffff;fill-opacity:1;stroke-width:0.051703"
             d="m 27.644855,30.425932 -0.0508,-0.182514 0.184518,-0.09661 c 0.101484,-0.05313 0.251188,-0.161404 0.332674,-0.240599 0.166793,-0.162104 0.358933,-0.474627 0.359418,-0.584607 3.13e-4,-0.07098 -0.07227,-0.25847 -0.673497,-1.739803 -0.16032,-0.395003 -0.305006,-0.753459 -0.321526,-0.796569 -0.02986,-0.07793 -0.02855,-0.07832 0.228448,-0.0684 l 0.258483,0.01 0.324012,0.869111 c 0.178206,0.478011 0.349107,0.959374 0.379779,1.069695 0.06054,0.217744 0.08287,0.219375 0.144577,0.01056 0.02223,-0.07524 0.179898,-0.548473 0.350368,-1.051631 l 0.309943,-0.914833 h 0.235154 c 0.129334,0 0.235153,0.0104 0.235153,0.02311 0,0.04909 -0.840453,2.201959 -0.99558,2.550236 -0.299392,0.672165 -0.594046,1.044324 -0.970884,1.226259 -0.112858,0.05449 -0.221901,0.09908 -0.242318,0.0991 -0.02042,1.5e-5 -0.05998,-0.08211 -0.08792,-0.182487 z"
             id="path14412"
             transform="matrix(2.4092826,0,0,2.4092826,1594.3546,2410.0574)" />
          <path
             style="opacity:0.519267;fill:#ffffff;fill-opacity:1;stroke-width:0.051703"
             d="m 27.68856,30.497298 c -0.08547,-0.23204 -0.0819,-0.242572 0.117678,-0.347067 0.320597,-0.167854 0.664747,-0.60278 0.664747,-0.840086 0,-0.05723 -0.209184,-0.623412 -0.464852,-1.25819 -0.255669,-0.634778 -0.478439,-1.188769 -0.495045,-1.23109 -0.02953,-0.07526 -0.02504,-0.07695 0.204651,-0.07695 h 0.234844 l 0.262758,0.709637 c 0.144517,0.390301 0.317652,0.868279 0.384744,1.062175 0.08781,0.253785 0.132397,0.342128 0.159152,0.315373 0.02044,-0.02044 0.193256,-0.502268 0.384032,-1.070725 l 0.346867,-1.03356 0.196658,0.007 c 0.108162,0.0038 0.20326,0.0136 0.211327,0.02166 0.03041,0.03041 -0.880151,2.352323 -1.0751,2.741488 -0.253152,0.505352 -0.527905,0.821963 -0.858805,0.989643 -0.211466,0.107158 -0.237742,0.108184 -0.273656,0.01069 z"
             id="path14451"
             transform="matrix(2.4092826,0,0,2.4092826,1594.3546,2410.0574)" />
          <path
             style="opacity:0.519267;fill:#ffffff;fill-opacity:1;stroke-width:0.051703"
             d="m 31.223399,29.400079 c -0.136224,-0.06209 -0.3069,-0.259881 -0.358085,-0.414976 -0.02712,-0.08216 -0.04287,-0.428824 -0.04637,-1.020365 l -0.0053,-0.895928 -0.213746,-0.01018 -0.213746,-0.01018 V 26.879085 26.70972 h 0.222296 0.222296 v -0.323576 -0.323576 l 0.128248,-0.03362 c 0.07054,-0.01849 0.170569,-0.04384 0.222296,-0.05633 l 0.09405,-0.0227 v 0.379901 0.379901 h 0.359093 0.359094 v 0.170996 0.170997 h -0.359094 -0.359093 v 0.838984 c 0,0.910397 0.01773,1.018997 0.184163,1.128048 0.06207,0.04067 0.141191,0.05379 0.273907,0.04541 l 0.186629,-0.01178 0.02236,0.149473 c 0.01345,0.08992 0.0079,0.163882 -0.01381,0.185638 -0.0579,0.0579 -0.585121,0.06732 -0.705186,0.01259 z"
             id="path14490"
             transform="matrix(2.4092826,0,0,2.4092826,1594.3546,2410.0574)" />
          <path
             style="opacity:0.519267;fill:#ffffff;fill-opacity:1;stroke-width:0.051703"
             d="m 31.224035,29.371558 c -0.122376,-0.06768 -0.22753,-0.17964 -0.299792,-0.319184 -0.06523,-0.125964 -0.07209,-0.210602 -0.08665,-1.06873 L 30.821783,27.05171 H 30.65806 c -0.245198,0 -0.271915,-0.01884 -0.271915,-0.191755 v -0.150238 h 0.221013 0.221012 l 0.0098,-0.31591 0.0098,-0.31591 0.213746,-0.0576 0.213746,-0.0576 v 0.373514 0.373515 h 0.359093 0.359094 v 0.170996 0.170997 h -0.359094 -0.359093 v 0.856083 c 0,0.873867 0.02071,1.036615 0.141858,1.114757 0.02543,0.0164 0.146272,0.03752 0.268535,0.04692 l 0.222295,0.0171 0.01092,0.133316 c 0.0068,0.08354 -0.0059,0.143998 -0.0342,0.161923 -0.06611,0.04192 -0.580814,0.03393 -0.660705,-0.01026 z"
             id="path14529"
             transform="matrix(2.4092826,0,0,2.4092826,1594.3546,2410.0574)" />
          <path
             style="opacity:0.519267;fill:#ffffff;fill-opacity:1;stroke-width:0.051703"
             d="m 33.246054,29.379023 c -0.640263,-0.256516 -0.923253,-0.871387 -0.758593,-1.648249 0.126827,-0.598368 0.551071,-0.997961 1.109205,-1.044753 0.710776,-0.05959 1.201204,0.462061 1.201204,1.277677 v 0.182393 h -0.961466 -0.961465 l 0.0242,0.161385 c 0.05525,0.368421 0.293477,0.651536 0.63146,0.750435 0.212063,0.06205 0.598479,0.04489 0.877091,-0.03896 0.09058,-0.02726 0.16746,-0.04628 0.170843,-0.04227 0.0034,0.004 0.02146,0.08036 0.04018,0.169654 l 0.03403,0.162359 -0.175382,0.05669 c -0.114751,0.03709 -0.32908,0.06079 -0.619974,0.06857 -0.379619,0.01015 -0.468959,0.0021 -0.611333,-0.05492 z m 1.134268,-1.711724 c 0.0066,-0.07889 -0.0226,-0.183771 -0.0855,-0.307628 -0.23325,-0.459281 -0.788038,-0.521998 -1.162439,-0.131411 -0.127999,0.133533 -0.21548,0.325489 -0.21548,0.47282 v 0.104377 l 0.726737,-0.0092 0.726737,-0.0092 z"
             id="path14568"
             transform="matrix(2.4092826,0,0,2.4092826,1594.3546,2410.0574)" />
          <path
             style="opacity:0.519267;fill:#ffffff;fill-opacity:1;stroke-width:0.051703"
             d="m 33.167605,29.313792 c -0.264068,-0.127672 -0.451928,-0.313384 -0.578309,-0.571697 -0.08244,-0.168499 -0.100173,-0.252991 -0.111312,-0.530328 -0.02097,-0.522038 0.127906,-0.925233 0.44784,-1.212881 0.240165,-0.215928 0.486337,-0.299461 0.828965,-0.28129 0.336138,0.01783 0.494366,0.0924 0.713697,0.336344 0.178544,0.198584 0.274926,0.463963 0.312816,0.861305 l 0.02201,0.230846 h -0.979709 c -0.916676,0 -0.978625,0.0038 -0.962858,0.05985 0.0093,0.03292 0.02757,0.113713 0.04068,0.179547 0.05788,0.290774 0.326071,0.598814 0.590263,0.677968 0.181641,0.05442 0.594116,0.04984 0.844491,-0.0094 0.112857,-0.0267 0.214871,-0.038 0.226697,-0.02512 0.01183,0.01288 0.03126,0.07849 0.0432,0.145793 0.02084,0.11756 0.01663,0.124082 -0.107,0.165829 -0.07078,0.0239 -0.351846,0.0506 -0.624586,0.05934 -0.494963,0.01586 -0.496286,0.0157 -0.706882,-0.08612 z m 1.219122,-1.656338 c -0.0022,-0.415388 -0.395575,-0.754117 -0.804611,-0.692778 -0.338012,0.05069 -0.665181,0.395329 -0.665244,0.700769 l -3.1e-5,0.155751 0.735318,-0.0098 0.735319,-0.0098 z"
             id="path14607"
             transform="matrix(2.4092826,0,0,2.4092826,1594.3546,2410.0574)" />
          <path
             style="opacity:0.519267;fill:#ffffff;fill-opacity:1;stroke-width:0.051703"
             d="m 35.55539,28.043533 0.01197,-1.333735 0.196647,-4.1e-5 0.196646,-4e-5 v 0.273595 c 0,0.290307 0.03817,0.349107 0.101692,0.156643 0.07662,-0.232168 0.352042,-0.422895 0.693444,-0.480207 l 0.128247,-0.02153 v 0.223846 0.223846 l -0.111148,1.91e-4 c -0.210663,3.61e-4 -0.381119,0.07159 -0.522476,0.218331 -0.204449,0.212236 -0.22136,0.307536 -0.22136,1.247469 v 0.825367 h -0.242813 -0.242812 z"
             id="path14646"
             transform="matrix(2.4092826,0,0,2.4092826,1594.3546,2410.0574)" />
          <path
             style="opacity:0.519267;fill:#ffffff;fill-opacity:1;stroke-width:0.051703"
             d="m 35.561959,28.756197 c 0.01237,-0.341589 0.0225,-0.941788 0.0225,-1.333776 v -0.712704 h 0.188097 0.188096 v 0.273595 c 0,0.155813 0.01442,0.273595 0.0335,0.273595 0.01843,0 0.06415,-0.06007 0.101606,-0.13349 0.118769,-0.232805 0.459187,-0.4479 0.708867,-0.4479 0.07425,0 0.07941,0.01332 0.07941,0.205196 V 27.08591 H 36.72904 c -0.08525,0 -0.204518,0.02129 -0.265045,0.04732 -0.144138,0.06198 -0.347421,0.281581 -0.396212,0.428026 -0.02468,0.07409 -0.03873,0.424475 -0.03873,0.966132 v 0.849881 H 35.78426 35.539468 Z"
             id="path14685"
             transform="matrix(2.4092826,0,0,2.4092826,1594.3546,2410.0574)" />
          <path
             style="opacity:0.519267;fill:#ffffff;fill-opacity:1;stroke-width:0.051703"
             d="m 35.562338,29.115613 c 0.01217,-0.14391 0.02212,-0.74411 0.02212,-1.333776 v -1.07212 h 0.188097 0.188096 v 0.273595 c 0,0.150477 0.01395,0.273595 0.03099,0.273595 0.01705,0 0.08545,-0.0758 0.152011,-0.16845 0.128535,-0.178912 0.356304,-0.33454 0.555302,-0.379421 0.108815,-0.02454 0.123944,-0.01887 0.152921,0.05735 0.01769,0.04652 0.03216,0.135653 0.03216,0.198071 v 0.113488 l -0.213746,0.01366 c -0.245045,0.01566 -0.377289,0.094 -0.529692,0.313779 l -0.09445,0.136201 -0.01012,0.917843 -0.01012,0.917843 H 35.783064 35.54022 Z"
             id="path14724"
             transform="matrix(2.4092826,0,0,2.4092826,1594.3546,2410.0574)" />
          <path
             style="opacity:0.519267;fill:#ffffff;fill-opacity:1;stroke-width:0.051703"
             d="M 33.166847,29.292448 C 32.920593,29.1672 32.72428,28.965389 32.606486,28.716396 c -0.08982,-0.189857 -0.09992,-0.246027 -0.09995,-0.555548 -3.1e-5,-0.391216 0.05808,-0.636222 0.206275,-0.869742 0.228705,-0.360376 0.499232,-0.523497 0.899158,-0.542169 0.342937,-0.01601 0.532195,0.0383 0.725091,0.208098 0.260126,0.228973 0.385931,0.525097 0.436141,1.026609 l 0.01626,0.162447 H 33.81898 c -1.099588,0 -1.016533,-0.02648 -0.919,0.293037 0.07649,0.250586 0.253268,0.46887 0.465267,0.574514 0.156006,0.07774 0.223872,0.09003 0.497165,0.09003 0.174072,0 0.396101,-0.01707 0.493397,-0.03794 0.193426,-0.04148 0.235303,-0.01831 0.236334,0.130783 8.92e-4,0.128973 -0.116185,0.157798 -0.700563,0.172483 -0.536806,0.01349 -0.55056,0.01204 -0.72474,-0.07655 z m 1.010418,-1.476123 0.210213,-0.02197 v -0.150124 c 0,-0.191874 -0.06395,-0.343413 -0.204042,-0.483504 -0.304739,-0.30474 -0.76668,-0.27955 -1.071412,0.05842 -0.155859,0.172862 -0.19512,0.266924 -0.19512,0.467475 v 0.151671 h 0.525074 c 0.28879,0 0.619669,-0.0099 0.735287,-0.02197 z"
             id="path14763"
             transform="matrix(2.4092826,0,0,2.4092826,1594.3546,2410.0574)" />
          <path
             style="opacity:0.519267;fill:#ffffff;fill-opacity:1;stroke-width:0.051703"
             d="m 31.143057,29.290326 c -0.05683,-0.04782 -0.138251,-0.143454 -0.180938,-0.212524 -0.07218,-0.116787 -0.07931,-0.178349 -0.101813,-0.87919 -0.01331,-0.414485 -0.02541,-0.840589 -0.02688,-0.946897 l -0.0027,-0.193289 -0.201988,-0.02344 c -0.212582,-0.02467 -0.240956,-0.05377 -0.242137,-0.248318 -4.36e-4,-0.07188 0.01404,-0.07695 0.219734,-0.07695 h 0.2202 l 0.01936,-0.145348 c 0.01065,-0.07994 0.02313,-0.221366 0.02774,-0.314277 l 0.0084,-0.168931 0.170997,-0.04416 c 0.09405,-0.02429 0.182539,-0.04445 0.196646,-0.04482 0.01411,-3.63e-4 0.02565,0.160933 0.02565,0.358434 v 0.359094 h 0.359093 0.359094 v 0.170996 0.170997 h -0.359094 -0.359093 l 1.91e-4,0.846435 c 1.95e-4,0.864766 0.02454,1.077587 0.129554,1.132808 0.03209,0.01687 0.154538,0.04165 0.272098,0.05506 l 0.213746,0.02438 v 0.13344 0.133439 h -0.32227 c -0.295287,0 -0.330922,-0.0073 -0.425596,-0.08694 z"
             id="path14802"
             transform="matrix(2.4092826,0,0,2.4092826,1594.3546,2410.0574)" />
          <path
             style="opacity:0.519267;fill:#ffffff;fill-opacity:1;stroke-width:0.051703"
             d="m 27.687744,30.432346 c -0.05403,-0.154992 -0.05543,-0.152349 0.150987,-0.284394 0.360681,-0.230725 0.632254,-0.588008 0.632254,-0.831797 0,-0.107479 -0.213113,-0.684916 -0.696891,-1.888251 -0.246766,-0.613798 -0.252194,-0.633503 -0.1818,-0.659947 0.03991,-0.01499 0.134669,-0.02269 0.21058,-0.0171 l 0.13802,0.01016 0.298598,0.820785 c 0.399599,1.098414 0.472012,1.282477 0.504551,1.282477 0.02921,0 0.170378,-0.384168 0.537256,-1.462024 l 0.224084,-0.658338 h 0.16477 c 0.09062,0 0.173776,0.01457 0.184783,0.03238 0.02791,0.04516 -0.696601,1.929747 -1.002443,2.607535 -0.215727,0.478079 -0.479325,0.813474 -0.805753,1.025218 -0.247383,0.160469 -0.309765,0.164517 -0.358996,0.0233 z"
             id="path14841"
             transform="matrix(2.4092826,0,0,2.4092826,1594.3546,2410.0574)" />
          <path
             style="opacity:0.519267;fill:#ffffff;fill-opacity:1;stroke-width:0.051703"
             d="m 24.538056,28.624882 v -1.880966 h 0.205196 0.205196 v 0.244356 0.244357 l 0.181531,-0.171684 c 0.264457,-0.250112 0.365691,-0.29332 0.726701,-0.310161 0.262723,-0.01226 0.335918,-0.0032 0.482171,0.05973 0.212179,0.09128 0.420772,0.300188 0.548157,0.548994 0.09253,0.180724 0.0963,0.207532 0.0963,0.683987 v 0.495891 l -0.117054,0.215887 c -0.141401,0.260792 -0.390667,0.493696 -0.607424,0.567552 -0.173703,0.05919 -0.639471,0.07386 -0.769519,0.02424 -0.04355,-0.01662 -0.163404,-0.09356 -0.266351,-0.170997 -0.102947,-0.07743 -0.199133,-0.140788 -0.213746,-0.140788 -0.01461,0 -0.02657,0.330879 -0.02657,0.735287 v 0.735287 h -0.222296 -0.222296 z m 1.603421,0.412407 c 0.313404,-0.159886 0.482741,-0.506806 0.482741,-0.988987 0,-0.361353 -0.05997,-0.558291 -0.230793,-0.757854 -0.374637,-0.437679 -1.042959,-0.342176 -1.31775,0.188306 -0.05627,0.108636 -0.07417,0.219231 -0.08583,0.530539 -0.0086,0.230125 9.74e-4,0.451407 0.02313,0.53337 0.0547,0.202347 0.213073,0.402097 0.384768,0.485301 0.201583,0.09769 0.561678,0.102203 0.743733,0.0093 z"
             id="path14880"
             transform="matrix(2.4092826,0,0,2.4092826,1594.3546,2410.0574)" />
          <path
             style="opacity:0.519267;fill:#ffffff;fill-opacity:1;stroke-width:0.051703"
             d="m 21.853404,29.320441 c -0.242321,-0.127748 -0.382257,-0.315504 -0.43078,-0.577991 -0.03248,-0.175693 -0.102766,-1.963665 -0.07839,-1.99412 0.0056,-0.007 0.09357,-0.0023 0.195525,0.01047 l 0.185371,0.02316 0.02532,0.929566 0.02533,0.929567 0.102082,0.148371 c 0.143359,0.208364 0.274744,0.279722 0.515323,0.279877 0.241391,1.57e-4 0.493533,-0.115749 0.61145,-0.281072 0.07872,-0.110363 0.0801,-0.12727 0.08998,-1.095325 l 0.01003,-0.983232 h 0.237916 0.237915 v 1.333775 1.333776 H 23.37528 23.170084 v -0.205196 c 0,-0.116988 -0.01503,-0.205196 -0.03496,-0.205196 -0.01923,0 -0.100026,0.05956 -0.179547,0.132361 -0.240615,0.220276 -0.390623,0.278234 -0.71606,0.276662 -0.190159,-9.18e-4 -0.317289,-0.01918 -0.386106,-0.05546 z"
             id="path14919"
             transform="matrix(2.4092826,0,0,2.4092826,1594.3546,2410.0574)" />
          <path
             style="opacity:0.519267;fill:#ffffff;fill-opacity:1;stroke-width:0.051703"
             d="m 19.247735,30.415701 c -0.03287,-0.08566 0.03069,-0.158531 0.214897,-0.246371 0.205349,-0.09792 0.309337,-0.190677 0.389953,-0.347827 0.05518,-0.107572 0.06422,-0.272317 0.08696,-1.584389 l 0.02537,-1.464333 0.0807,-0.03068 c 0.04438,-0.01687 0.127765,-0.02127 0.185294,-0.0098 l 0.104599,0.02092 -0.01054,1.457352 -0.01054,1.457351 -0.112069,0.229115 c -0.128999,0.263728 -0.285775,0.408854 -0.547552,0.506866 -0.222646,0.08336 -0.377878,0.08784 -0.407076,0.01176 z"
             id="path14958"
             transform="matrix(2.4092826,0,0,2.4092826,1594.3546,2410.0574)" />
          <path
             style="opacity:0.519267;fill:#ffffff;fill-opacity:1;stroke-width:0.051703"
             d="m 33.706195,20.53382 c -0.610182,-0.221615 -0.962092,-0.853284 -0.808777,-1.451732 0.100183,-0.39105 0.353362,-0.692058 0.721691,-0.858025 0.133515,-0.06016 0.235919,-0.07706 0.478393,-0.07892 0.282161,-0.0022 0.328017,0.0072 0.53684,0.110032 0.928504,0.457101 0.921032,1.737915 -0.01293,2.217073 -0.231875,0.118959 -0.675104,0.148778 -0.915214,0.06157 z"
             id="path14997"
             transform="matrix(2.4092826,0,0,2.4092826,1594.3546,2410.0574)" />
          <path
             style="opacity:0.519267;fill:#ffffff;fill-opacity:1;stroke-width:0.051703"
             d="m 33.714577,20.540759 c -0.290467,-0.09481 -0.581537,-0.347131 -0.725123,-0.628582 -0.316158,-0.619722 -0.02797,-1.391509 0.631262,-1.690527 0.133192,-0.06041 0.232565,-0.07659 0.47667,-0.0776 0.280747,-0.0012 0.328843,0.0088 0.536411,0.110917 0.44098,0.216984 0.683655,0.607148 0.685352,1.101885 0.0012,0.362534 -0.0989,0.609446 -0.347294,0.856244 -0.265369,0.263669 -0.459779,0.349391 -0.823773,0.363229 -0.182104,0.0069 -0.344043,-0.0064 -0.433505,-0.03556 z"
             id="path15036"
             transform="matrix(2.4092826,0,0,2.4092826,1594.3546,2410.0574)" />
          <path
             style="opacity:0.519267;fill:#ffffff;fill-opacity:1;stroke-width:0.051703"
             d="m 33.643879,20.517515 c -0.256357,-0.101348 -0.530391,-0.36501 -0.666301,-0.641084 -0.09952,-0.202148 -0.11167,-0.257962 -0.109248,-0.501763 0.005,-0.507175 0.248364,-0.901629 0.690447,-1.119278 0.207548,-0.102181 0.257398,-0.112618 0.537878,-0.112618 0.280217,0 0.330455,0.01049 0.537142,0.112193 0.441514,0.217247 0.686317,0.610278 0.686317,1.101885 0,0.365835 -0.100053,0.609262 -0.355351,0.86456 -0.266462,0.266462 -0.444334,0.342441 -0.833781,0.356155 -0.248804,0.0088 -0.342159,-0.0027 -0.487103,-0.06005 z"
             id="path15075"
             transform="matrix(2.4092826,0,0,2.4092826,1594.3546,2410.0574)" />
          <path
             style="opacity:0.519267;fill:#ffffff;fill-opacity:1;stroke-width:0.051703"
             d="m 33.72059,20.542372 c -0.202848,-0.06673 -0.285875,-0.118092 -0.47136,-0.291592 -0.63632,-0.595202 -0.476793,-1.610605 0.313814,-1.997453 0.203722,-0.09968 0.256217,-0.110555 0.533739,-0.110555 0.261827,0 0.33678,0.01359 0.501881,0.09098 0.526306,0.246723 0.81129,0.781824 0.710984,1.33498 -0.04868,0.268456 -0.135671,0.438562 -0.331145,0.64754 -0.230099,0.245994 -0.465991,0.348932 -0.827656,0.361169 -0.177513,0.006 -0.347509,-0.0079 -0.430257,-0.03507 z"
             id="path15267"
             transform="matrix(2.4092826,0,0,2.4092826,1594.3546,2410.0574)" />
          <path
             style="opacity:0.519267;fill:#ffffff;fill-opacity:1;stroke-width:0.051703"
             d="m 33.678451,20.523152 c -0.218555,-0.0811 -0.330755,-0.158938 -0.511106,-0.354595 -0.300237,-0.325719 -0.392111,-0.896383 -0.208728,-1.296489 0.12486,-0.272421 0.335236,-0.487292 0.604427,-0.617343 0.201535,-0.09736 0.259196,-0.109309 0.533739,-0.110555 0.268687,-0.0012 0.334884,0.01111 0.521004,0.09708 0.259783,0.119989 0.486706,0.352227 0.61202,0.626354 0.129455,0.283187 0.130894,0.694335 0.0034,0.97555 -0.116792,0.257637 -0.352367,0.504464 -0.596853,0.625365 -0.264292,0.130694 -0.687828,0.15485 -0.957915,0.05463 z"
             id="path15306"
             transform="matrix(2.4092826,0,0,2.4092826,1594.3546,2410.0574)" />
          <path
             style="opacity:0.519267;fill:#ffffff;fill-opacity:1;stroke-width:0.051703"
             d="m 33.771889,20.557847 c -0.235519,-0.07767 -0.411955,-0.187159 -0.568761,-0.352958 -0.715624,-0.756666 -0.236431,-1.980823 0.809942,-2.069099 0.729771,-0.06157 1.342772,0.532178 1.313973,1.272694 -0.01708,0.439169 -0.281026,0.847331 -0.679513,1.050787 -0.176785,0.09026 -0.253269,0.108129 -0.499448,0.116677 -0.159882,0.0056 -0.329169,-0.0026 -0.376193,-0.0181 z"
             id="path15345"
             transform="matrix(2.4092826,0,0,2.4092826,1594.3546,2410.0574)" />
          <path
             style="opacity:0.519267;fill:#ffffff;fill-opacity:1;stroke-width:0.051703"
             d="M 33.579155,20.482954 C 33.298021,20.35022 33.037519,20.069031 32.93194,19.784342 32.8882,19.66641 32.88016,19.619236 32.86623,19.398891 c -0.01654,-0.261681 0.06496,-0.52361 0.234755,-0.754424 0.259383,-0.352602 0.539849,-0.495688 0.978695,-0.499302 0.530949,-0.0044 0.881626,0.209773 1.11423,0.680416 0.110362,0.223301 0.124575,0.281999 0.125848,0.519747 0.0027,0.495324 -0.22203,0.86869 -0.667683,1.109512 -0.195758,0.105783 -0.240023,0.115754 -0.538195,0.121224 -0.294109,0.0054 -0.344777,-0.0034 -0.534728,-0.09311 z"
             id="path15384"
             transform="matrix(2.4092826,0,0,2.4092826,1594.3546,2410.0574)" />
          <path
             style="opacity:0.519267;fill:#ffffff;fill-opacity:1;stroke-width:0.051703"
             d="m 20.364684,21.836997 c -0.357299,-0.114575 -0.614234,-0.472959 -0.613456,-0.855677 0.0012,-0.6102 0.568608,-1.011064 1.174825,-0.830053 0.08591,0.02565 0.209581,0.108942 0.317368,0.213746 0.368297,0.358105 0.37069,0.882357 0.0057,1.246559 -0.226625,0.226129 -0.591896,0.31923 -0.884425,0.225425 z"
             id="path15423"
             transform="matrix(2.4092826,0,0,2.4092826,1594.3546,2410.0574)" />
          <path
             style="opacity:0.519267;fill:#ffffff;fill-opacity:1;stroke-width:0.051703"
             d="m 20.41703,21.855625 c -0.528699,-0.128711 -0.820757,-0.75261 -0.58538,-1.250498 0.152091,-0.321717 0.430281,-0.493847 0.800225,-0.49514 0.257807,-9.01e-4 0.396949,0.05225 0.587541,0.224439 0.214705,0.193973 0.289811,0.361079 0.290748,0.646894 6.6e-4,0.201546 -0.01506,0.268057 -0.09941,0.420674 -0.195622,0.35393 -0.615652,0.545672 -0.993724,0.453631 z"
             id="path15462"
             transform="matrix(2.4092826,0,0,2.4092826,1594.3546,2410.0574)" />
        </g>
        <g
           id="g67"
           style="mix-blend-mode:normal"
           figma:type="group">
          <g
             id="g45"
             style="mix-blend-mode:normal"
             figma:type="group">
            <g
               id="path16 fill"
               style="mix-blend-mode:normal"
               figma:type="vector">
              <path
                 id="use42"
                 d="m 1679.5106,2456.5257 c 0.037,0.5981 -0.1057,1.1935 -0.4088,1.7105 -0.303,0.5169 -0.7531,0.9319 -1.2929,1.1922 -0.5397,0.2602 -1.1447,0.3539 -1.7379,0.2691 -0.5932,-0.085 -1.1477,-0.3442 -1.593,-0.7453 -0.4452,-0.4011 -0.7609,-0.9256 -0.907,-1.5067 -0.146,-0.5812 -0.1158,-1.1927 0.087,-1.7566 0.2027,-0.5639 0.5686,-1.0547 1.0513,-1.4099 0.4826,-0.3551 1.06,-0.5586 1.6586,-0.5845 0.3926,-0.022 0.7855,0.035 1.1562,0.1654 0.3707,0.1308 0.7119,0.3336 1.0039,0.5967 0.2921,0.2631 0.5293,0.5813 0.6979,0.9364 0.1687,0.3551 0.2654,0.74 0.2848,1.1327 z"
                 style="mix-blend-mode:normal;fill:#767677" />
            </g>
          </g>
          <g
             id="g50"
             style="mix-blend-mode:normal"
             figma:type="group">
            <g
               id="path17 fill"
               style="mix-blend-mode:normal"
               figma:type="vector">
              <path
                 id="use47"
                 d="m 1661.9062,2491.3924 c -8.0126,0 -15.0549,-2.8757 -18.6962,-7.1224 1.4128,3.8204 3.9622,7.1163 7.3048,9.444 3.3426,2.3278 7.3182,3.5756 11.3914,3.5756 4.0733,0 8.0488,-1.2478 11.3915,-3.5756 3.3426,-2.3277 5.8919,-5.6236 7.3048,-9.444 -3.6324,4.2467 -10.648,7.1224 -18.6963,7.1224 z"
                 style="mix-blend-mode:normal;fill:#f37726" />
            </g>
          </g>
          <g
             id="g55"
             style="mix-blend-mode:normal"
             figma:type="group">
            <g
               id="path18 fill"
               style="mix-blend-mode:normal"
               figma:type="vector">
              <path
                 id="use52"
                 d="m 1661.9062,2463.7773 c 8.0127,0 15.055,2.8756 18.6963,7.1223 -1.4129,-3.8204 -3.9622,-7.1163 -7.3048,-9.444 -3.3427,-2.3277 -7.3182,-3.5756 -11.3915,-3.5756 -4.0732,0 -8.0488,1.2479 -11.3914,3.5756 -3.3426,2.3277 -5.892,5.6236 -7.3048,9.444 3.6413,-4.2556 10.648,-7.1223 18.6962,-7.1223 z"
                 style="mix-blend-mode:normal;fill:#f37726" />
            </g>
          </g>
          <g
             id="g60"
             style="mix-blend-mode:normal"
             figma:type="group">
            <g
               id="path19 fill"
               style="mix-blend-mode:normal"
               figma:type="vector">
              <path
                 id="use57"
                 d="m 1650.8758,2499.6566 c 0.047,0.7533 -0.1314,1.5036 -0.5123,2.1553 -0.381,0.6516 -0.9473,1.1751 -1.6268,1.5037 -0.6796,0.3286 -1.4415,0.4475 -2.1889,0.3416 -0.7473,-0.106 -1.4462,-0.4321 -2.0076,-0.9367 -0.5614,-0.5046 -0.9598,-1.1649 -1.1446,-1.8967 -0.1847,-0.7319 -0.1474,-1.5022 0.1072,-2.2128 0.2546,-0.7106 0.715,-1.3293 1.3224,-1.7773 0.6075,-0.448 1.3347,-0.705 2.0887,-0.7383 0.494,-0.026 0.9884,0.045 1.4549,0.2094 0.4665,0.1647 0.8959,0.4197 1.2638,0.7504 0.368,0.3307 0.6671,0.7306 0.8804,1.177 0.2133,0.4464 0.3366,0.9304 0.3628,1.4244 z"
                 style="mix-blend-mode:normal;fill:#9e9e9e" />
            </g>
          </g>
          <g
             id="g65"
             style="mix-blend-mode:normal"
             figma:type="group">
            <g
               id="path20 fill"
               style="mix-blend-mode:normal"
               figma:type="vector">
              <path
                 id="use62"
                 d="m 1644.1206,2462.8094 c -0.4317,0.012 -0.8574,-0.1041 -1.2234,-0.3334 -0.366,-0.2293 -0.656,-0.5618 -0.8336,-0.9555 -0.1775,-0.3937 -0.2347,-0.8312 -0.1643,-1.2573 0.07,-0.4261 0.2652,-0.822 0.5599,-1.1377 0.2948,-0.3157 0.6763,-0.5372 1.0966,-0.6366 0.4203,-0.099 0.8606,-0.072 1.2656,0.078 0.405,0.1501 0.7566,0.4166 1.0105,0.766 0.2539,0.3494 0.3988,0.7661 0.4165,1.1977 0.017,0.5835 -0.1971,1.1501 -0.5955,1.5768 -0.3984,0.4268 -0.949,0.6791 -1.5323,0.7023 z"
                 style="mix-blend-mode:normal;fill:#616262" />
            </g>
          </g>
        </g>
      </g>
    </g>
  </g>
  <path
     style="opacity:0.519267;fill:#ffffff;fill-opacity:1;stroke-width:0.051703"
     d="m 20.364684,21.837083 c -0.357081,-0.114702 -0.613873,-0.472681 -0.613873,-0.855763 0,-0.503943 0.369685,-0.869545 0.881064,-0.871333 0.259486,-9.07e-4 0.425716,0.06327 0.600289,0.231765 0.167103,0.161283 0.260637,0.343115 0.285804,0.555608 0.07247,0.611867 -0.562714,1.129426 -1.153284,0.939723 z"
     id="path15618" />
  <path
     style="opacity:0.519267;fill:#ffffff;fill-opacity:1;stroke-width:0.051703"
     d="m 20.280233,21.771897 c -0.321717,-0.152091 -0.493847,-0.430281 -0.49514,-0.800225 -0.0018,-0.503986 0.333054,-0.828237 0.855223,-0.828237 0.29323,0 0.446429,0.06891 0.638614,0.287242 0.390523,0.443657 0.240774,1.082264 -0.314709,1.342079 -0.225686,0.10556 -0.459505,0.105266 -0.683988,-8.59e-4 z"
     id="path15657" />
  <path
     style="opacity:0.519267;fill:#ffffff;fill-opacity:1;stroke-width:0.051703"
     d="m 20.311774,21.770696 c -0.167546,-0.07296 -0.362288,-0.263826 -0.433556,-0.424936 -0.09066,-0.20495 -0.08941,-0.565735 0.0026,-0.74463 0.08778,-0.170708 0.22803,-0.302809 0.395989,-0.37297 0.156624,-0.06543 0.50976,-0.07497 0.681154,-0.0184 0.142066,0.04689 0.382468,0.295659 0.45842,0.474382 0.07741,0.182163 0.06983,0.472652 -0.01675,0.641506 -0.08428,0.164378 -0.31084,0.378136 -0.472262,0.445582 -0.144083,0.0602 -0.476749,0.05991 -0.615569,-5.33e-4 z"
     id="path15696" />
  <path
     style="opacity:0.519267;fill:#ffffff;fill-opacity:1;stroke-width:0.051703"
     d="m 21.497889,38.798579 c -0.407338,-0.114403 -0.784849,-0.410463 -0.973863,-0.763744 -0.561357,-1.049221 0.179021,-2.298061 1.361235,-2.296076 0.46184,7.76e-4 0.828553,0.157719 1.130447,0.483801 0.311409,0.336358 0.452187,0.731205 0.418275,1.173161 -0.04622,0.602417 -0.447277,1.141179 -1.007253,1.353108 -0.257259,0.09736 -0.678901,0.119946 -0.928841,0.04975 z"
     id="path15735" />
  <path
     style="opacity:0.519267;fill:#ffffff;fill-opacity:1;stroke-width:0.051703"
     d="m 21.37655,38.731117 c -0.46913,-0.192851 -0.799978,-0.529864 -0.943466,-0.961043 -0.0621,-0.186619 -0.07273,-0.282513 -0.06158,-0.555787 0.01154,-0.282959 0.029,-0.363356 0.121887,-0.561392 0.18986,-0.404778 0.577775,-0.734056 0.995757,-0.84524 0.234752,-0.06244 0.676309,-0.04771 0.902317,0.03011 0.383119,0.131911 0.705446,0.428813 0.894538,0.823976 0.100063,0.20911 0.106373,0.245731 0.106373,0.617363 0,0.387118 -0.0026,0.400253 -0.127392,0.652826 -0.140475,0.284231 -0.378594,0.550067 -0.618817,0.690847 -0.355163,0.20814 -0.911391,0.255607 -1.269618,0.108345 z"
     id="path15774" />
  <path
     style="opacity:0.519267;fill:#ffffff;fill-opacity:1;stroke-width:0.051703"
     d="m 21.636078,38.78018 c -0.56612,-0.07939 -1.142062,-0.642465 -1.228281,-1.200832 -0.04771,-0.308975 -1.76e-4,-0.708695 0.111579,-0.938286 0.124187,-0.255129 0.453993,-0.587892 0.70253,-0.70883 0.420008,-0.204374 0.969281,-0.197791 1.371209,0.01644 0.248694,0.132552 0.536326,0.435343 0.667702,0.702892 0.08418,0.171422 0.09896,0.246332 0.109147,0.553131 0.0073,0.219962 -0.0048,0.414191 -0.03191,0.510943 -0.0563,0.2011 -0.32981,0.609783 -0.499175,0.745889 -0.32966,0.264922 -0.764503,0.380125 -1.202797,0.318658 z"
     id="path15813" />
  <path
     style="opacity:0.519267;fill:#ffffff;fill-opacity:1;stroke-width:0.051703"
     d="m 33.706195,20.53382 c -0.476899,-0.173207 -0.761603,-0.531633 -0.84334,-1.061717 -0.0479,-0.310657 0.108681,-0.715588 0.382653,-0.98956 0.395603,-0.395604 1.050672,-0.46623 1.508115,-0.162597 0.228055,0.151375 0.337212,0.280976 0.463888,0.550769 0.08379,0.17845 0.101161,0.259757 0.102306,0.478791 0.0025,0.485862 -0.229591,0.869986 -0.666884,1.103535 -0.186223,0.09946 -0.252073,0.115766 -0.504851,0.125034 -0.204254,0.0075 -0.335653,-0.0057 -0.441887,-0.04425 z"
     id="path15852" />
  <path
     style="opacity:0.519267;fill:#ffffff;fill-opacity:1;stroke-width:0.051703"
     d="m 33.609871,20.47172 c -0.260003,-0.123884 -0.495409,-0.359239 -0.611097,-0.610966 -0.08323,-0.181098 -0.09806,-0.256991 -0.09848,-0.503904 -4.23e-4,-0.249931 0.01297,-0.318115 0.09553,-0.486233 0.12652,-0.257645 0.355862,-0.488685 0.59753,-0.601954 0.169179,-0.07929 0.239565,-0.09169 0.520527,-0.09169 0.269806,0 0.351929,0.01332 0.484343,0.07855 0.254226,0.125238 0.449822,0.320749 0.577873,0.577627 0.104433,0.209497 0.116229,0.262414 0.116908,0.524423 6.74e-4,0.260667 -0.01101,0.315306 -0.110725,0.51786 -0.119988,0.243731 -0.278455,0.408225 -0.542128,0.562747 -0.147616,0.08651 -0.204603,0.09863 -0.508702,0.108156 -0.307176,0.0096 -0.36092,0.0019 -0.521581,-0.07461 z"
     id="path15891" />
  <path
     style="opacity:0.519267;fill:#ffffff;fill-opacity:1;stroke-width:0.051703"
     d="m 33.574575,20.431653 c -0.232348,-0.115784 -0.496863,-0.408177 -0.586858,-0.648708 -0.109079,-0.29154 -0.09781,-0.625407 0.03024,-0.896086 0.117149,-0.247629 0.342812,-0.481656 0.574383,-0.595671 0.1265,-0.06228 0.233037,-0.08263 0.48144,-0.09194 0.299919,-0.01124 0.331904,-0.0056 0.53496,0.09436 0.26049,0.128238 0.435672,0.313763 0.572632,0.606441 0.09319,0.199138 0.101042,0.243512 0.08852,0.500111 -0.01695,0.347293 -0.107119,0.551852 -0.351006,0.796266 -0.263092,0.26366 -0.415297,0.323202 -0.826188,0.323202 -0.298365,0 -0.363917,-0.01113 -0.518125,-0.08798 z"
     id="path15930" />
  <path
     style="opacity:0.519267;fill:#ffffff;fill-opacity:1;stroke-width:0.118791"
     d=""
     id="path16086" />
  <path
     style="opacity:0.519267;fill:#ffffff;fill-opacity:1;stroke-width:0.118791"
     d="M 21.641815,29.106098 C 21.467482,28.92053 21.44781,28.8205 21.40616,27.907826 c -0.02499,-0.547692 -0.03187,-1.022322 -0.01529,-1.054734 0.01659,-0.03241 0.09879,-0.05893 0.18267,-0.05893 0.14239,0 0.152514,0.06182 0.152514,0.931429 0,0.879782 0.01068,0.942958 0.192686,1.139341 0.23727,0.25602 0.690134,0.280673 0.985942,0.05367 0.189079,-0.145097 0.197408,-0.189186 0.222327,-1.176882 0.02588,-1.02605 0.0259,-1.026138 0.216081,-1.026138 h 0.190194 v 1.296492 c 0,1.244108 -0.0063,1.296491 -0.15715,1.296491 -0.115244,0 -0.157151,-0.05238 -0.157151,-0.196438 0,-0.108041 -0.02142,-0.196438 -0.04759,-0.196438 -0.02617,0 -0.152643,0.0884 -0.281042,0.196438 -0.338146,0.284531 -0.978478,0.281437 -1.248541,-0.006 z"
     id="path16164" />
  <path
     style="opacity:0.519267;fill:#ffffff;fill-opacity:1;stroke-width:0.118791"
     d="M 24.554766,28.640679 V 26.79416 h 0.196438 c 0.167338,0 0.196438,0.03613 0.196438,0.243866 v 0.243865 l 0.277747,-0.243865 c 0.223832,-0.196527 0.347315,-0.243866 0.636123,-0.243866 0.740738,0 1.050511,0.382816 1.050511,1.298216 0,0.599264 -0.0034,0.609509 -0.305057,0.911135 -0.279327,0.279327 -0.34063,0.30491 -0.726821,0.30331 -0.297215,-0.0012 -0.479773,-0.04712 -0.618202,-0.155403 -0.108041,-0.08451 -0.222957,-0.154443 -0.25537,-0.155404 -0.03241,-9.61e-4 -0.05893,0.334162 -0.05893,0.744718 0,0.743846 -6.89e-4,0.746465 -0.196438,0.746465 h -0.196438 z m 1.76875,0.250633 c 0.5947,-0.5947 0.37141,-1.715517 -0.377058,-1.892656 -0.311628,-0.07375 -0.724082,0.143909 -0.874882,0.461697 -0.185398,0.390698 -0.162939,1.070258 0.04407,1.333426 0.34255,0.435482 0.830519,0.474884 1.207871,0.09753 z"
     id="path16203" />
  <path
     style="opacity:0.519267;fill:#ffffff;fill-opacity:1;stroke-width:0.118791"
     d=""
     id="path16242" />
  <path
     style="opacity:0.519267;fill:#ffffff;fill-opacity:1;stroke-width:0.118791"
     d="m 31.041679,29.133934 c -0.07466,-0.106596 -0.122536,-0.343848 -0.122877,-0.608958 -3.07e-4,-0.238878 -0.02293,-0.671185 -0.05027,-0.960682 -0.04304,-0.455694 -0.07187,-0.529535 -0.214721,-0.550027 -0.24728,-0.03547 -0.268102,-0.298682 -0.02363,-0.298682 0.203389,0 0.289182,-0.1274 0.289182,-0.429426 0,-0.114765 0.05742,-0.195864 0.15715,-0.221943 0.139592,-0.0365 0.157151,-0.0024 0.157151,0.305136 v 0.346233 h 0.353588 c 0.301205,0 0.353589,0.02328 0.353589,0.15715 0,0.133869 -0.05238,0.157151 -0.353589,0.157151 h -0.353588 v 0.869493 c 0,0.478222 0.03506,0.935013 0.07792,1.015092 0.04286,0.08008 0.184293,0.168961 0.314301,0.197515 0.353322,0.0776 0.285078,0.196582 -0.112753,0.196582 -0.27171,0 -0.376259,-0.03873 -0.471453,-0.174634 z"
     id="path16281" />
  <path
     style="opacity:0.519267;fill:#ffffff;fill-opacity:1;stroke-width:0.118791"
     d="m 33.010632,29.14448 c -0.308191,-0.242423 -0.441191,-0.560106 -0.441191,-1.053828 0,-0.781707 0.434973,-1.296492 1.095486,-1.296492 0.579311,0 0.932858,0.347778 1.058392,1.041122 l 0.05335,0.294657 H 33.7824 32.78813 l 0.05313,0.216082 c 0.145219,0.59064 0.554823,0.848148 1.235874,0.776964 0.372902,-0.03898 0.456691,-0.02633 0.456691,0.06893 0,0.09386 -0.128433,0.116658 -0.657293,0.116658 -0.547578,0 -0.692113,-0.02739 -0.865897,-0.164088 z m 1.415424,-1.352034 c 0.08342,-0.08342 -0.13882,-0.604106 -0.308607,-0.723029 -0.09274,-0.06496 -0.304908,-0.118106 -0.471482,-0.118106 -0.397241,0 -0.762225,0.340857 -0.762225,0.711839 v 0.252477 l 0.74873,-0.03916 c 0.411802,-0.02154 0.768914,-0.05935 0.793584,-0.08402 z"
     id="path16359" />
  <path
     style="opacity:0.519267;fill:#ffffff;fill-opacity:1;stroke-width:0.118791"
     d="m 35.586181,29.184279 c 0.02623,-0.06836 0.04769,-0.651781 0.04769,-1.296492 0,-1.119819 0.007,-1.172202 0.15715,-1.172202 0.127217,0 0.157151,0.05238 0.157151,0.275013 0,0.280664 0.104183,0.369229 0.185393,0.1576 0.04354,-0.113462 0.499965,-0.431721 0.620003,-0.432319 0.03241,-1.62e-4 0.05893,0.06659 0.05893,0.148338 0,0.09676 -0.07541,0.16735 -0.216081,0.202263 -0.118846,0.0295 -0.29564,0.127891 -0.392877,0.218653 -0.164072,0.153148 -0.176794,0.231887 -0.176794,1.094229 v 0.929206 H 35.78262 c -0.190335,0 -0.233623,-0.02739 -0.196439,-0.124289 z"
     id="path16398" />
  <path
     style="opacity:0.519267;fill:#ffffff;fill-opacity:1;stroke-width:0.118791"
     d="m 33.53127,20.351414 c -0.53984,-0.329144 -0.727461,-1.035978 -0.412227,-1.553004 0.619023,-1.015279 2.199784,-0.549017 2.099542,0.619282 -0.07439,0.866999 -0.977278,1.366637 -1.687315,0.933722 z"
     id="path16437" />
  <path
     style="opacity:0.519267;fill:#ffffff;fill-opacity:1;stroke-width:0.118791"
     d="m 20.111916,21.585957 c -0.150356,-0.12933 -0.219755,-0.278799 -0.248706,-0.535649 -0.0555,-0.492404 0.183391,-0.776173 0.702703,-0.834707 0.331035,-0.03731 0.39029,-0.01795 0.606365,0.198124 0.190051,0.19005 0.239478,0.306842 0.239478,0.565867 0,0.676294 -0.790067,1.044854 -1.29984,0.606365 z"
     id="path16476" />
  <path
     style="opacity:0.519267;fill:#ffffff;fill-opacity:1;stroke-width:0.118791"
     d="m 21.211969,38.591218 c -0.90902,-0.554337 -1.049009,-1.672412 -0.298324,-2.382673 0.588122,-0.556451 1.46568,-0.506836 2.058858,0.116404 0.283738,0.298117 0.441888,0.844082 0.354329,1.223217 -0.09503,0.411474 -0.424436,0.873105 -0.736707,1.032414 -0.400384,0.20426 -1.052396,0.209294 -1.378156,0.01064 z"
     id="path16515" />
</svg>
