<?xml version="1.0" encoding="UTF-8" standalone="no"?>
<svg
   viewBox="0 0 48 48"
   version="1.1"
   id="svg20"
   xmlns="http://www.w3.org/2000/svg"
   xmlns:svg="http://www.w3.org/2000/svg">
  <defs
     id="defs24" />
  <path
     fill="#FFF"
     d="M13.5 44h29c.275 0 .5-.225.5-.5V14h-8.5c-.827 0-1.5-.673-1.5-1.5V4H13.5c-.275 0-.5.225-.5.5v39c0 .275.225.5.5.5z"
     id="path2"
     style="fill:#333333;fill-opacity:1" />
  <path
     fill="#FFF"
     d="M42.293 13L34 4.707V12.5c0 .275.225.5.5.5h7.793z"
     id="path4"
     style="fill:#333333;fill-opacity:1" />
  <path
     opacity=".64"
     fill="#605E5C"
     d="M43.56 12.854l-9.414-9.415A1.51 1.51 0 0033.086 3H13.5c-.827 0-1.5.673-1.5 1.5v39c0 .827.673 1.5 1.5 1.5h29c.827 0 1.5-.673 1.5-1.5V13.914c0-.4-.156-.777-.44-1.06zM34 4.707L42.293 13H34.5a.501.501 0 01-.5-.5V4.707zM42.5 44h-29a.501.501 0 01-.5-.5v-39c0-.275.225-.5.5-.5H33v8.5c0 .827.673 1.5 1.5 1.5H43v29.5c0 .275-.225.5-.5.5z"
     id="path6"
     style="fill:#ffffff" />
  <rect
     style="fill:#ffffff;fill-opacity:1;stroke:none;stroke-width:0.140158"
     id="rect5540-4"
     width="12.678595"
     height="1.6878245"
     x="19.470329"
     y="21.488083" />
  <rect
     style="fill:#ffffff;fill-opacity:1;stroke:none;stroke-width:0.162157"
     id="rect5540-9-0"
     width="16.97086"
     height="1.6878245"
     x="19.480652"
     y="26.420126" />
  <rect
     style="fill:#ffffff;fill-opacity:1;stroke:none;stroke-width:0.132296"
     id="rect5540-3-2"
     width="11.29609"
     height="1.6878245"
     x="19.617634"
     y="31.344109" />
  <rect
     style="fill:#ffffff;fill-opacity:1;stroke:none;stroke-width:0.112782"
     id="rect5540-3-7-4"
     width="8.2095184"
     height="1.6878245"
     x="19.775234"
     y="36.23357" />
</svg>
