<?xml version="1.0" encoding="UTF-8" standalone="no"?>
<svg
   viewBox="0 0 48 48"
   version="1.1"
   id="svg18"
   xmlns="http://www.w3.org/2000/svg"
   xmlns:svg="http://www.w3.org/2000/svg">
  <defs
     id="defs22" />
  <path
     fill="#FFF"
     d="M13.5 44h29c.275 0 .5-.225.5-.5V14h-8.5c-.827 0-1.5-.673-1.5-1.5V4H13.5c-.275 0-.5.225-.5.5v39c0 .275.225.5.5.5z"
     id="path2"
     style="fill:#dc5047;fill-opacity:1" />
  <path
     fill="#FFF"
     d="M42.293 13L34 4.707V12.5c0 .275.225.5.5.5h7.793z"
     id="path4"
     style="fill:#dc5047;fill-opacity:1" />
  <path
     opacity=".64"
     fill="#605E5C"
     d="M43.56 12.854l-9.414-9.415A1.51 1.51 0 0033.086 3H13.5c-.827 0-1.5.673-1.5 1.5v39c0 .827.673 1.5 1.5 1.5h29c.827 0 1.5-.673 1.5-1.5V13.914c0-.4-.156-.777-.44-1.06zM34 4.707L42.293 13H34.5a.501.501 0 01-.5-.5V4.707zM42.5 44h-29a.501.501 0 01-.5-.5v-39c0-.275.225-.5.5-.5H33v8.5c0 .827.673 1.5 1.5 1.5H43v29.5c0 .275-.225.5-.5.5z"
     id="path6"
     style="fill:#000000;fill-opacity:0" />
  <path
     fill="#FFC7B5"
     d="m -5.048364,2.12091 v 6 h 6 a 6,6 0 0 0 -6,-6 z"
     id="path12-3"
     style="fill:#ffffff" />
  <path
     style="opacity:1;fill:#ffffff;fill-opacity:1;stroke-width:0.349696"
     d="m 16.855787,39.112819 c -1.423917,-1.094979 0.257995,-3.739896 3.565057,-5.606286 1.224293,-0.690948 1.352699,-0.854475 2.557839,-3.257459 0.697861,-1.391495 1.57461,-3.442662 1.948334,-4.558147 0.570677,-1.703361 0.641455,-2.154747 0.441956,-2.818647 -0.786501,-2.617342 -0.654571,-5.364291 0.307363,-6.399714 0.581016,-0.625404 1.812573,-0.696846 2.371833,-0.137578 0.898763,0.898762 1.008974,2.200815 0.440114,5.1996 -0.281044,1.481555 -0.308673,2.126014 -0.118366,2.76118 0.40971,1.367492 2.007004,3.608825 3.190623,4.477105 1.105575,0.81103 1.122904,0.814998 3.582455,0.820705 1.359327,0.0031 2.764526,0.116761 3.122661,0.252451 1.591348,0.602947 2.138473,1.927716 1.248814,3.023802 -0.400556,0.493498 -0.617667,0.544142 -2.255254,0.526069 -1.34759,-0.01485 -2.278454,-0.183884 -3.631821,-0.659429 l -1.819791,-0.639426 -2.45941,0.363839 c -1.352674,0.200102 -3.148359,0.548896 -3.990411,0.77508 l -1.531,0.411242 -1.476005,2.185827 c -2.260786,3.348015 -4.031719,4.405032 -5.494983,3.279795 z m 2.198769,-1.549577 c 0.891601,-0.945371 2.054756,-2.83337 1.863443,-3.024683 -0.188819,-0.188819 -2.457563,1.995105 -2.839128,2.732972 -0.701503,1.356557 -0.176602,1.51349 0.975685,0.291711 z m 6.699298,-5.658914 c 1.2238,-0.421607 2.711514,-0.828864 4.535193,-1.241501 l 0.624569,-0.141315 -1.099644,-1.028587 c -0.604804,-0.565724 -1.458346,-1.654879 -1.896764,-2.420345 -0.438416,-0.765465 -0.858713,-1.39485 -0.933989,-1.398633 -0.07527,-0.0038 -0.255231,0.388176 -0.399892,0.871021 -0.144669,0.482845 -0.785672,1.946657 -1.424464,3.252915 -0.638788,1.306258 -1.161437,2.420489 -1.161437,2.476068 0,0.184819 0.377914,0.105281 1.756428,-0.369623 z m 13.22331,0.06259 c 0.05429,-0.165271 -0.261619,-0.441865 -0.726483,-0.636096 -0.897894,-0.375165 -3.613079,-0.473574 -3.613079,-0.130942 0,0.18937 1.397191,0.726521 2.660044,1.022652 0.764433,0.179261 1.577336,0.05552 1.679518,-0.255602 z M 27.401133,18.863124 c 0.130846,-1.730173 -0.119157,-2.356447 -0.705991,-1.768478 -0.300487,0.301075 -0.340742,2.532065 -0.0649,3.596027 0.157845,0.608803 0.206572,0.641517 0.411106,0.276028 0.127613,-0.228035 0.289518,-1.174655 0.359771,-2.103577 z"
     id="path10103" />
</svg>
