<?xml version="1.0" encoding="UTF-8" standalone="no"?>
<svg
   viewBox="0 0 48 48"
   version="1.1"
   id="svg18"
   xmlns="http://www.w3.org/2000/svg"
   xmlns:svg="http://www.w3.org/2000/svg">
  <defs
     id="defs22" />
  <path
     fill="#FFF"
     d="M13.5 44h29c.275 0 .5-.225.5-.5V14h-8.5c-.827 0-1.5-.673-1.5-1.5V4H13.5c-.275 0-.5.225-.5.5v39c0 .275.225.5.5.5z"
     id="path2"
     style="fill:#c43e1c;fill-opacity:1" />
  <path
     fill="#FFF"
     d="M42.293 13L34 4.707V12.5c0 .275.225.5.5.5h7.793z"
     id="path4"
     style="fill:#c43e1c;fill-opacity:1" />
  <path
     opacity=".64"
     fill="#605E5C"
     d="M43.56 12.854l-9.414-9.415A1.51 1.51 0 0033.086 3H13.5c-.827 0-1.5.673-1.5 1.5v39c0 .827.673 1.5 1.5 1.5h29c.827 0 1.5-.673 1.5-1.5V13.914c0-.4-.156-.777-.44-1.06zM34 4.707L42.293 13H34.5a.501.501 0 01-.5-.5V4.707zM42.5 44h-29a.501.501 0 01-.5-.5v-39c0-.275.225-.5.5-.5H33v8.5c0 .827.673 1.5 1.5 1.5H43v29.5c0 .275-.225.5-.5.5z"
     id="path6"
     style="fill:#000000;fill-opacity:0" />
  <path
     fill="#FFC7B5"
     d="m 34.943643,18.135668 v 5.489296 h 5.489296 a 5.4892956,5.4892956 0 0 0 -5.489296,-5.489296 z"
     id="path12"
     style="fill:#ffffff;stroke-width:0.914883" />
  <path
     fill="#FFC7B5"
     d="m -5.048364,2.12091 v 6 h 6 a 6,6 0 0 0 -6,-6 z"
     id="path12-3"
     style="fill:#ffffff" />
  <path
     fill="#f9f7f7"
     d="m 21.668,20 c 1.4,0 2.473,0.32 3.216,0.962 0.745,0.642 1.116,1.571 1.116,2.787 0,0.78 -0.184,1.476 -0.551,2.084 -0.368,0.608 -0.892,1.08 -1.57,1.418 -0.679,0.338 -1.464,0.506 -2.359,0.506 H 19.29 V 32 H 17 V 20 Z m -2.379,5.925 h 1.97 c 0.77,0 1.349,-0.177 1.741,-0.532 0.392,-0.355 0.589,-0.871 0.589,-1.552 0,-1.322 -0.752,-1.983 -2.256,-1.983 h -2.044 z"
     id="path16" />
  <path
     fill="#FFC7B5"
     d="m 33.113878,20.056921 v 5.489296 h -5.489295 a 5.4892956,5.4892956 0 0 1 5.489295,-5.489296 z"
     id="path12-7"
     style="fill:#ffffff;stroke-width:0.914883" />
  <path
     fill="#FFC7B5"
     d="m 33.113878,31.636606 v -6.181877 h -5.489295 a 5.4892956,6.1818772 0 0 0 5.489295,6.181877 z"
     id="path12-7-5"
     style="fill:#e6e6e6;stroke-width:0.970883" />
  <path
     fill="#FFC7B5"
     d="m 33.02239,31.636606 v -6.181877 h 5.489296 a 5.4892956,6.1818772 0 0 1 -5.489296,6.181877 z"
     id="path12-7-5-5"
     style="fill:#e6e6e6;stroke-width:0.970883" />
</svg>
