<?xml version="1.0" encoding="UTF-8" standalone="no"?>
<svg
   viewBox="0 0 384 512"
   x="10"
   version="1.1"
   id="svg8"
   sodipodi:docname="resource-type-jupyter-fill.svg"
   inkscape:version="1.1.1 (1:1.1+202109281949+c3084ef5ed)"
   xmlns:inkscape="http://www.inkscape.org/namespaces/inkscape"
   xmlns:sodipodi="http://sodipodi.sourceforge.net/DTD/sodipodi-0.dtd"
   xmlns="http://www.w3.org/2000/svg"
   xmlns:svg="http://www.w3.org/2000/svg">
  <g
     aria-label="jupyter"
     id="text62746"
        transform="translate(45.367932,-89.73293)">
    <path        
       d="m 266.4565,404.2907 q -0.93218,-0.54127 -2.04479,-0.78184 -1.08254,-0.27063 -2.40564,-0.27063 -4.69099,0 -7.21691,3.06719 -2.49584,3.03711 -2.49584,8.7505 v 17.74157 h -5.56304 v -33.67891 h 5.56304 v 5.23226 q 1.74408,-3.06719 4.54064,-4.54064 2.79655,-1.50352 6.79592,-1.50352 0.57134,0 1.26296,0.0902 0.69162,0.0601 1.53359,0.21049 z m -28.597,10.28409 v 2.70635 h -25.43961 q 0.36084,5.71338 3.42803,8.72043 3.09726,2.97697 8.60015,2.97697 3.18747,0 6.16445,-0.78183 3.00704,-0.78183 5.95395,-2.34549 v 5.23226 q -2.97698,1.26296 -6.10431,1.92451 -3.12732,0.66155 -6.34486,0.66155 -8.05889,0 -12.77995,-4.691 -4.69099,-4.69099 -4.69099,-12.68973 0,-8.26938 4.45043,-13.11072 4.4805,-4.87141 12.05825,-4.87141 6.79593,0 10.73516,4.39028 3.9693,4.36022 3.9693,11.87783 z m -5.53297,-1.6238 q -0.0601,-4.54064 -2.55599,-7.24698 -2.46578,-2.70634 -6.55536,-2.70634 -4.63085,0 -7.4274,2.61613 -2.76648,2.61613 -3.18747,7.36726 z m -41.94829,-23.39482 v 9.56241 h 11.39671 v 4.30007 h -11.39671 v 18.28284 q 0,4.11966 1.11261,5.2924 1.14268,1.17275 4.60078,1.17275 h 5.68332 v 4.63085 h -5.68332 q -6.40501,0 -8.84071,-2.37556 -2.43571,-2.40564 -2.43571,-8.72044 v -18.28284 h -4.05951 v -4.30007 h 4.05951 v -9.56241 z m -27.90538,46.36865 q -2.3455,6.01409 -4.57071,7.84839 -2.22522,1.8343 -5.95395,1.8343 h -4.42036 v -4.63085 h 3.24761 q 2.28535,0 3.54831,-1.08254 1.26296,-1.08254 2.79656,-5.11198 l 0.99232,-2.52592 -13.62192,-33.13764 h 5.86374 l 10.52466,26.34172 10.52466,-26.34172 h 5.86374 z m -47.75189,-8.17917 v 17.86186 h -5.56304 v -46.48893 h 5.56304 v 5.11198 q 1.74408,-3.00705 4.39028,-4.45043 2.67627,-1.47345 6.37494,-1.47345 6.13437,0 9.95332,4.87141 3.84902,4.87141 3.84902,12.81002 0,7.9386 -3.84902,12.81001 -3.81895,4.87142 -9.95332,4.87142 -3.69867,0 -6.37494,-1.44339 -2.6462,-1.47345 -4.39028,-4.4805 z m 18.8241,-11.75754 q 0,-6.10431 -2.52591,-9.56241 -2.49585,-3.48817 -6.88614,-3.48817 -4.39029,0 -6.91621,3.48817 -2.49584,3.4581 -2.49584,9.56241 0,6.1043 2.49584,9.59247 2.52592,3.4581 6.91621,3.4581 4.39029,0 6.88614,-3.4581 2.52591,-3.48817 2.52591,-9.59247 z m -63.779439,3.51824 v -20.38777 h 5.53296 v 20.17728 q 0,4.7812 1.86437,7.18684 1.86437,2.37556 5.59311,2.37556 4.4805,0 7.06656,-2.85669 2.61613,-2.8567 2.61613,-7.78825 v -19.09474 h 5.53296 v 33.67891 h -5.53296 v -5.17212 q -2.01472,3.06719 -4.691,4.57071 -2.6462,1.47346 -6.16444,1.47346 -5.8036,0 -8.81064,-3.60846 -3.00705,-3.60845 -3.00705,-10.55473 z m 13.92262,-21.19967 z m -30.461373,0.8119 h 5.532963 v 34.28032 q 0,6.43508 -2.46578,9.32184 -2.435704,2.88677 -7.878457,2.88677 h -2.104932 v -4.69099 h 1.473453 q 3.157398,0 4.300075,-1.47346 1.142678,-1.44338 1.142678,-6.04416 z m 0,-13.11072 h 5.532963 v 7.00641 h -5.532963 z m 4.482973,-52.15691 c -2.415287,0.0671 -4.797005,-0.58242 -6.844712,-1.86532 -2.047706,-1.28289 -3.670206,-3.14317 -4.663848,-5.34585 -0.993081,-2.20269 -1.313106,-4.65042 -0.91923,-7.03438 0.391638,-2.38396 1.483749,-4.59895 3.132544,-6.36523 1.649355,-1.76629 3.783782,-3.00555 6.135288,-3.56167 2.351508,-0.55389 4.814908,-0.40283 7.080818,0.43639 2.2659,0.83979 4.23304,2.33081 5.65357,4.28564 1.42052,1.95484 2.23122,4.2862 2.33024,6.70093 0.0951,3.26458 -1.10274,6.43461 -3.33172,8.82192 -2.22898,2.38787 -5.30949,3.79945 -8.57295,3.92925 z m 37.79418,206.15372 c 0.26295,4.21458 -0.73516,8.41238 -2.86623,12.05853 -2.13163,3.64559 -5.29998,6.57448 -9.10167,8.41294 -3.80224,1.83846 -8.06494,2.50369 -12.24651,1.9112 -4.18102,-0.59306 -8.09124,-2.41753 -11.23218,-5.24068 -3.14094,-2.82315 -5.369916,-6.51741 -6.40384,-10.61171 -1.033364,-4.09485 -0.824677,-8.40455 0.599766,-12.38023 1.424444,-3.97569 4.000304,-7.43721 7.398604,-9.94369 3.39885,-2.50648 7.46741,-3.94435 11.68591,-4.13066 2.76385,-0.14546 5.52993,0.25177 8.13992,1.17156 2.60998,0.92147 5.0124,2.34815 7.07074,4.19836 2.05889,1.85021 3.73231,4.08758 4.92568,6.58511 1.19338,2.49753 1.88322,5.20543 2.02981,7.96927 z M 255.71079,298.69473 c 0.20701,3.34627 -0.59137,6.67743 -2.28717,9.56996 -1.69523,2.89196 -4.21346,5.21381 -7.23355,6.67015 -3.01953,1.45577 -6.4044,1.98001 -9.72325,1.50557 -3.31885,-0.47556 -6.42118,-1.92574 -8.91256,-4.16983 -2.49082,-2.24408 -4.2571,-5.17857 -5.07451,-8.42972 -0.81684,-3.25172 -0.64788,-6.67296 0.48675,-9.82788 1.13407,-3.15492 3.18122,-5.90086 5.88184,-7.88815 2.70007,-1.98672 5.93052,-3.12527 9.27958,-3.27017 2.19653,-0.12309 4.39474,0.19582 6.46874,0.92538 2.07401,0.73181 3.98296,1.86644 5.61665,3.33844 1.63425,1.472 2.96134,3.25227 3.90463,5.23899 0.94385,1.98673 1.48487,4.14017 1.59341,6.33726 z M 179.44226,226.34925 V 90.349248 H -20.557739 c -13.3,0 -24,10.700002 -24,24.000002 v 464 c 0,13.3 10.7,24 24,24 H 315.44226 c 13.3,0 24,-10.7 24,-24 v -328 h -136 c -13.2,0 -24,-10.8 -24,-24 z m 160,-14.1 v 6.1 h -128 V 90.349248 h 6.1 c 6.4,0 12.5,2.5 17,7 l 97.9,98.000002 c 4.5,4.5 7,10.6 7,16.9 z" />
  </g>
  <path
     id="path19604"
     fill="none"
     d="m 205.90174,400.0941 c -43.61728,0 -81.95247,-15.65414 -101.77397,-38.77133 7.69047,20.79647 21.56844,38.73789 39.76407,51.40896 18.19563,12.67167 39.83697,19.46397 62.0099,19.46397 22.17325,0 43.81398,-6.7923 62.01021,-19.46397 18.19563,-12.67107 32.073,-30.61249 39.76437,-51.40896 -19.7733,23.11719 -57.96332,38.77133 -101.77458,38.77133 z"
     style="mix-blend-mode:normal;fill:#f37726;stroke-width:5.44357" />
  <path
     id="path19601"
     d="m 205.90174,249.76922 c 43.61759,0 81.95279,15.65352 101.77458,38.77071 -7.69137,-20.79647 -21.56874,-38.73789 -39.76437,-51.40896 -18.19623,-12.67106 -39.83696,-19.46397 -62.01021,-19.46397 -22.17293,0 -43.81427,6.79291 -62.0099,19.46397 -18.19563,12.67107 -32.0736,30.61249 -39.76407,51.40896 19.8215,-23.16538 57.96301,-38.77071 101.77397,-38.77071 z"
     style="mix-blend-mode:normal;fill:#f37726;stroke-width:5.44357" />
</svg>
