<svg id="svg" version="1.1" xmlns="http://www.w3.org/2000/svg" xmlns:xlink="http://www.w3.org/1999/xlink" width="400" height="400" viewBox="0, 0, 400,400"><g id="svgg"><path id="path0" d="M184.500 0.267 C 181.446 0.357,179.200 0.588,179.200 0.812 C 179.200 1.028,177.874 1.200,176.200 1.200 C 174.467 1.200,173.200 1.369,173.200 1.600 C 173.200 1.829,172.000 2.000,170.400 2.000 C 168.800 2.000,167.600 2.171,167.600 2.400 C 167.600 2.620,166.621 2.800,165.424 2.800 C 164.227 2.800,163.136 2.980,163.000 3.200 C 162.864 3.420,161.953 3.600,160.976 3.600 C 159.999 3.600,159.200 3.780,159.200 4.000 C 159.200 4.220,158.300 4.400,157.200 4.400 C 156.100 4.400,155.200 4.580,155.200 4.800 C 155.200 5.020,154.480 5.200,153.600 5.200 C 152.720 5.200,152.000 5.380,152.000 5.600 C 152.000 5.820,151.280 6.000,150.400 6.000 C 149.520 6.000,148.800 6.180,148.800 6.400 C 148.800 6.620,148.260 6.800,147.600 6.800 C 146.940 6.800,146.400 6.980,146.400 7.200 C 146.400 7.420,145.770 7.600,145.000 7.600 C 144.230 7.600,143.600 7.780,143.600 8.000 C 143.600 8.220,142.981 8.400,142.224 8.400 C 141.467 8.400,140.736 8.580,140.600 8.800 C 140.464 9.020,139.823 9.200,139.176 9.200 C 138.529 9.200,138.000 9.363,138.000 9.562 C 138.000 9.762,137.100 10.049,136.000 10.200 C 134.900 10.351,134.000 10.638,134.000 10.838 C 134.000 11.037,133.561 11.200,133.024 11.200 C 132.487 11.200,131.936 11.380,131.800 11.600 C 131.664 11.820,131.201 12.000,130.771 12.000 C 130.341 12.000,129.632 12.180,129.195 12.400 C 128.758 12.620,128.042 12.980,127.605 13.200 C 127.168 13.420,126.538 13.600,126.205 13.600 C 125.872 13.600,125.600 13.780,125.600 14.000 C 125.600 14.220,125.161 14.400,124.624 14.400 C 124.087 14.400,123.536 14.580,123.400 14.800 C 123.264 15.020,122.803 15.200,122.376 15.200 C 121.949 15.200,121.600 15.380,121.600 15.600 C 121.600 15.820,121.240 16.000,120.800 16.000 C 120.360 16.000,120.000 16.180,120.000 16.400 C 120.000 16.620,119.728 16.800,119.395 16.800 C 119.062 16.800,118.432 16.980,117.995 17.200 C 117.558 17.420,116.842 17.780,116.405 18.000 C 115.968 18.220,115.338 18.400,115.005 18.400 C 114.672 18.400,114.400 18.580,114.400 18.800 C 114.400 19.020,114.040 19.200,113.600 19.200 C 113.160 19.200,112.800 19.346,112.800 19.525 C 112.800 19.704,112.170 20.098,111.400 20.400 C 110.630 20.702,110.000 21.096,110.000 21.275 C 110.000 21.454,109.640 21.600,109.200 21.600 C 108.760 21.600,108.400 21.780,108.400 22.000 C 108.400 22.220,108.040 22.400,107.600 22.400 C 107.160 22.400,106.800 22.580,106.800 22.800 C 106.800 23.020,106.440 23.200,106.000 23.200 C 105.560 23.200,105.200 23.380,105.200 23.600 C 105.200 23.820,104.880 24.000,104.488 24.000 C 104.097 24.000,103.517 24.360,103.200 24.800 C 102.883 25.240,102.303 25.600,101.912 25.600 C 101.520 25.600,101.200 25.780,101.200 26.000 C 101.200 26.220,100.855 26.400,100.433 26.400 C 100.012 26.400,99.607 26.535,99.533 26.700 C 99.460 26.865,98.369 27.523,97.109 28.162 C 95.849 28.801,94.499 29.611,94.109 29.962 C 93.719 30.313,92.905 30.855,92.300 31.168 C 91.695 31.480,91.200 31.885,91.200 32.068 C 91.200 32.250,90.880 32.400,90.488 32.400 C 90.097 32.400,89.517 32.760,89.200 33.200 C 88.883 33.640,88.343 34.000,88.000 34.000 C 87.657 34.000,87.117 34.360,86.800 34.800 C 86.483 35.240,86.038 35.600,85.812 35.601 C 85.585 35.601,84.770 36.141,84.000 36.800 C 83.230 37.459,82.415 37.999,82.188 37.999 C 81.962 38.000,81.517 38.360,81.200 38.800 C 80.883 39.240,80.438 39.601,80.212 39.602 C 79.679 39.604,77.200 41.924,77.200 42.420 C 77.200 42.629,76.922 42.800,76.583 42.800 C 76.244 42.800,75.749 42.983,75.483 43.207 C 74.319 44.189,73.210 45.043,72.376 45.600 C 71.883 45.930,70.520 47.145,69.348 48.300 C 68.176 49.455,67.062 50.400,66.872 50.400 C 66.568 50.400,64.190 52.703,58.520 58.486 C 57.596 59.429,55.794 61.190,54.514 62.400 C 53.235 63.610,51.751 65.217,51.216 65.971 C 50.681 66.726,49.289 68.329,48.122 69.534 C 46.955 70.739,46.000 71.857,46.000 72.020 C 46.000 72.182,45.459 72.919,44.799 73.658 C 42.916 75.761,42.800 75.930,42.800 76.556 C 42.800 76.881,42.479 77.248,42.087 77.373 C 41.694 77.497,41.080 78.094,40.721 78.699 C 40.363 79.305,39.604 80.340,39.035 81.000 C 38.466 81.660,38.001 82.385,38.000 82.612 C 38.000 82.838,37.640 83.283,37.200 83.600 C 36.760 83.917,36.400 84.362,36.399 84.588 C 36.399 84.815,35.859 85.630,35.200 86.400 C 34.541 87.170,34.001 87.943,34.001 88.117 C 34.000 88.291,33.640 88.820,33.200 89.292 C 32.760 89.764,32.400 90.387,32.400 90.675 C 32.400 90.964,32.242 91.200,32.049 91.200 C 31.855 91.200,31.473 91.740,31.200 92.400 C 30.927 93.060,30.545 93.600,30.351 93.600 C 30.158 93.600,30.000 93.793,30.000 94.028 C 30.000 94.263,29.485 95.208,28.855 96.128 C 28.225 97.048,27.583 98.205,27.428 98.700 C 27.273 99.195,26.978 99.600,26.773 99.600 C 26.568 99.600,26.400 99.960,26.400 100.400 C 26.400 100.840,26.220 101.200,26.000 101.200 C 25.780 101.200,25.600 101.560,25.600 102.000 C 25.600 102.440,25.420 102.800,25.200 102.800 C 24.980 102.800,24.800 103.160,24.800 103.600 C 24.800 104.040,24.620 104.400,24.400 104.400 C 24.180 104.400,24.000 104.760,24.000 105.200 C 24.000 105.640,23.820 106.000,23.600 106.000 C 23.380 106.000,23.200 106.360,23.200 106.800 C 23.200 107.240,23.048 107.600,22.863 107.600 C 22.677 107.600,22.092 108.455,21.563 109.500 C 21.033 110.545,20.465 111.460,20.300 111.533 C 20.135 111.607,20.000 112.001,20.000 112.410 C 20.000 112.818,19.820 113.264,19.600 113.400 C 19.380 113.536,19.200 113.997,19.200 114.424 C 19.200 114.851,19.020 115.200,18.800 115.200 C 18.580 115.200,18.400 115.560,18.400 116.000 C 18.400 116.440,18.220 116.800,18.000 116.800 C 17.780 116.800,17.600 117.160,17.600 117.600 C 17.600 118.040,17.420 118.400,17.200 118.400 C 16.980 118.400,16.800 118.749,16.800 119.176 C 16.800 119.603,16.620 120.064,16.400 120.200 C 16.180 120.336,16.000 120.887,16.000 121.424 C 16.000 121.961,15.820 122.400,15.600 122.400 C 15.380 122.400,15.200 122.760,15.200 123.200 C 15.200 123.640,15.020 124.000,14.800 124.000 C 14.580 124.000,14.400 124.439,14.400 124.976 C 14.400 125.513,14.220 126.064,14.000 126.200 C 13.780 126.336,13.600 126.797,13.600 127.224 C 13.600 127.651,13.420 128.000,13.200 128.000 C 12.980 128.000,12.800 128.362,12.800 128.805 C 12.800 129.248,12.636 129.923,12.436 130.305 C 11.540 132.015,10.339 135.547,10.125 137.100 C 9.997 138.035,9.736 138.800,9.546 138.800 C 9.356 138.800,9.200 139.520,9.200 140.400 C 9.200 141.280,9.020 142.000,8.800 142.000 C 8.580 142.000,8.400 142.439,8.400 142.976 C 8.400 143.513,8.220 144.064,8.000 144.200 C 7.780 144.336,7.600 145.067,7.600 145.824 C 7.600 146.581,7.420 147.200,7.200 147.200 C 6.980 147.200,6.800 147.819,6.800 148.576 C 6.800 149.333,6.620 150.064,6.400 150.200 C 6.180 150.336,6.000 151.056,6.000 151.800 C 6.000 152.544,5.820 153.264,5.600 153.400 C 5.380 153.536,5.200 154.357,5.200 155.224 C 5.200 156.091,5.020 156.800,4.800 156.800 C 4.580 156.800,4.400 157.599,4.400 158.576 C 4.400 159.553,4.220 160.464,4.000 160.600 C 3.780 160.736,3.600 161.636,3.600 162.600 C 3.600 163.564,3.420 164.464,3.200 164.600 C 2.980 164.736,2.800 165.816,2.800 167.000 C 2.800 168.184,2.620 169.264,2.400 169.400 C 2.180 169.536,2.000 170.987,2.000 172.624 C 2.000 174.341,1.831 175.600,1.600 175.600 C 1.361 175.600,1.200 177.133,1.200 179.400 C 1.200 181.667,1.039 183.200,0.800 183.200 C 0.250 183.200,0.250 216.260,0.800 216.600 C 1.020 216.736,1.200 218.446,1.200 220.400 C 1.200 222.354,1.380 224.064,1.600 224.200 C 1.820 224.336,2.000 225.697,2.000 227.224 C 2.000 228.808,2.172 230.000,2.400 230.000 C 2.622 230.000,2.800 231.067,2.800 232.400 C 2.800 233.733,2.978 234.800,3.200 234.800 C 3.420 234.800,3.600 235.790,3.600 237.000 C 3.600 238.210,3.780 239.200,4.000 239.200 C 4.220 239.200,4.400 239.999,4.400 240.976 C 4.400 241.953,4.580 242.864,4.800 243.000 C 5.020 243.136,5.200 243.957,5.200 244.824 C 5.200 245.691,5.380 246.400,5.600 246.400 C 5.820 246.400,6.000 247.120,6.000 248.000 C 6.000 248.880,6.180 249.600,6.400 249.600 C 6.620 249.600,6.800 250.219,6.800 250.976 C 6.800 251.733,6.980 252.464,7.200 252.600 C 7.420 252.736,7.600 253.366,7.600 254.000 C 7.600 254.634,7.780 255.264,8.000 255.400 C 8.220 255.536,8.400 256.177,8.400 256.824 C 8.400 257.471,8.580 258.000,8.800 258.000 C 9.020 258.000,9.200 258.540,9.200 259.200 C 9.200 259.860,9.359 260.400,9.554 260.400 C 9.749 260.400,10.031 261.387,10.182 262.594 C 10.333 263.800,10.623 264.891,10.828 265.017 C 11.033 265.144,11.200 265.676,11.200 266.200 C 11.200 266.724,11.357 267.250,11.548 267.368 C 11.740 267.486,12.010 268.149,12.148 268.841 C 12.363 269.913,12.490 270.024,13.009 269.592 C 13.345 269.314,13.686 269.157,13.768 269.243 C 14.216 269.718,15.161 272.539,14.974 272.842 C 14.852 273.039,14.943 273.200,15.176 273.200 C 15.409 273.200,15.600 273.549,15.600 273.976 C 15.600 275.141,16.264 275.330,17.705 274.574 C 18.417 274.201,19.404 273.694,19.897 273.448 C 20.390 273.201,20.795 272.865,20.797 272.700 C 20.799 272.535,21.160 272.400,21.600 272.400 C 22.040 272.400,22.400 272.241,22.400 272.047 C 22.400 271.852,22.715 271.587,23.100 271.458 C 23.775 271.230,24.594 270.773,27.600 268.949 C 28.370 268.481,29.810 267.649,30.800 267.100 C 31.790 266.551,34.313 265.134,36.406 263.951 C 38.499 262.768,40.749 261.530,41.406 261.201 C 42.063 260.871,42.690 260.511,42.800 260.401 C 42.910 260.290,43.430 259.958,43.955 259.662 C 44.480 259.367,45.515 258.782,46.255 258.362 C 46.995 257.943,48.205 257.257,48.945 256.838 C 49.685 256.418,50.720 255.833,51.245 255.538 C 51.770 255.242,52.290 254.910,52.400 254.799 C 52.510 254.689,53.140 254.329,53.800 254.000 C 54.460 253.671,55.090 253.311,55.200 253.201 C 55.310 253.090,56.120 252.613,57.000 252.140 C 58.677 251.239,59.610 250.716,64.200 248.109 C 65.740 247.234,67.810 246.067,68.800 245.516 C 69.790 244.965,71.410 244.030,72.400 243.439 C 73.390 242.848,74.515 242.262,74.900 242.136 C 75.285 242.010,75.600 241.748,75.600 241.553 C 75.600 241.359,75.960 241.200,76.400 241.200 C 76.840 241.200,77.200 241.041,77.200 240.847 C 77.200 240.652,77.515 240.393,77.900 240.271 C 78.587 240.054,80.806 238.795,81.200 238.399 C 81.310 238.289,81.940 237.929,82.600 237.600 C 83.260 237.271,83.890 236.911,84.000 236.801 C 84.370 236.429,86.588 235.181,88.100 234.494 C 88.925 234.118,89.600 233.674,89.600 233.506 C 89.600 233.338,89.763 233.200,89.962 233.200 C 90.160 233.200,91.465 232.545,92.862 231.745 C 94.258 230.945,96.300 229.807,97.400 229.215 C 100.297 227.658,101.374 227.030,101.600 226.768 C 101.710 226.640,102.385 226.281,103.100 225.970 C 103.815 225.659,104.400 225.269,104.400 225.102 C 104.400 224.936,104.760 224.800,105.200 224.800 C 105.640 224.800,106.000 224.648,106.000 224.463 C 106.000 224.277,106.855 223.695,107.900 223.168 C 108.945 222.642,109.890 222.118,110.000 222.005 C 110.110 221.892,110.630 221.558,111.155 221.262 C 112.611 220.442,114.637 219.293,116.300 218.343 C 117.125 217.872,118.610 217.033,119.600 216.479 C 120.590 215.925,122.922 214.600,124.783 213.536 C 129.076 211.080,128.798 211.016,130.701 214.900 C 133.369 220.344,136.663 227.258,137.704 229.600 C 139.375 233.355,143.665 242.462,147.126 249.600 C 149.996 255.520,153.600 263.192,153.600 263.383 C 153.600 263.541,158.487 273.891,159.623 276.138 C 160.050 276.984,160.400 277.929,160.400 278.238 C 160.400 278.547,160.580 278.800,160.800 278.800 C 161.020 278.800,161.200 279.160,161.200 279.600 C 161.200 280.040,161.380 280.400,161.600 280.400 C 161.820 280.400,162.000 280.760,162.000 281.200 C 162.000 281.640,162.180 282.000,162.400 282.000 C 162.620 282.000,162.800 282.245,162.800 282.545 C 162.800 282.844,163.520 284.489,164.400 286.200 C 165.280 287.911,166.000 289.556,166.000 289.855 C 166.000 292.036,167.156 289.814,167.642 286.700 C 167.989 284.470,168.447 281.753,169.243 277.200 C 170.051 272.575,170.437 270.138,170.636 268.400 C 170.749 267.410,171.003 266.240,171.200 265.800 C 171.397 265.360,171.658 264.145,171.779 263.100 C 171.901 262.055,172.099 260.345,172.221 259.300 C 172.342 258.255,172.603 257.040,172.800 256.600 C 172.997 256.160,173.262 254.900,173.390 253.800 C 173.517 252.700,173.723 250.900,173.848 249.800 C 173.972 248.700,174.237 247.629,174.437 247.420 C 174.637 247.211,174.800 246.097,174.800 244.944 C 174.800 243.791,174.980 242.736,175.200 242.600 C 175.420 242.464,175.600 241.474,175.600 240.400 C 175.600 239.326,175.780 238.336,176.000 238.200 C 176.220 238.064,176.400 237.009,176.400 235.856 C 176.400 234.703,176.563 233.589,176.763 233.380 C 176.963 233.171,177.225 232.100,177.346 231.000 C 177.466 229.900,177.745 227.920,177.965 226.600 C 178.184 225.280,178.548 222.962,178.773 221.449 C 178.997 219.936,179.631 216.156,180.181 213.049 C 180.731 209.942,181.382 206.140,181.628 204.600 C 181.873 203.060,182.223 200.900,182.405 199.800 C 183.731 191.787,183.735 191.767,184.771 185.900 C 185.206 183.437,185.883 179.498,186.403 176.400 C 186.607 175.190,186.965 173.120,187.200 171.800 C 187.435 170.480,187.795 168.410,188.000 167.200 C 188.205 165.990,188.565 163.920,188.800 162.600 C 189.587 158.176,190.028 155.413,190.236 153.600 C 190.349 152.610,190.603 151.440,190.800 151.000 C 190.997 150.560,191.262 149.300,191.390 148.200 C 191.517 147.100,191.723 145.300,191.848 144.200 C 191.972 143.100,192.237 142.029,192.437 141.820 C 192.637 141.611,192.800 140.612,192.800 139.600 C 192.800 138.588,192.964 137.589,193.165 137.380 C 193.365 137.171,193.626 136.010,193.745 134.800 C 193.950 132.700,194.254 130.735,195.197 125.400 C 195.431 124.080,195.778 121.920,195.968 120.600 C 196.413 117.516,197.906 108.392,198.390 105.800 C 198.595 104.700,198.960 102.630,199.200 101.200 C 199.440 99.770,199.802 97.700,200.003 96.600 C 200.205 95.500,200.485 93.880,200.626 93.000 C 200.767 92.120,201.049 90.410,201.254 89.200 C 202.221 83.494,202.444 82.074,202.636 80.400 C 202.749 79.410,203.003 78.240,203.200 77.800 C 203.397 77.360,203.650 76.190,203.762 75.200 C 203.873 74.210,204.108 72.500,204.282 71.400 L 204.600 69.400 211.000 69.435 C 214.520 69.455,227.930 69.693,240.800 69.965 C 253.670 70.236,272.840 70.615,283.400 70.806 C 293.960 70.997,312.590 71.334,324.800 71.554 C 337.010 71.774,348.325 72.082,349.944 72.239 L 352.887 72.523 351.472 70.562 C 350.693 69.483,349.328 67.893,348.438 67.029 C 347.219 65.845,346.875 65.241,347.041 64.578 C 347.301 63.542,333.029 49.007,330.338 47.567 C 329.874 47.318,328.703 46.324,327.737 45.358 C 326.770 44.391,325.796 43.600,325.571 43.600 C 325.347 43.600,324.744 43.195,324.232 42.700 C 322.807 41.323,321.624 40.400,321.284 40.400 C 321.115 40.400,320.717 40.040,320.400 39.600 C 320.083 39.160,319.593 38.800,319.312 38.800 C 319.030 38.800,318.800 38.620,318.800 38.400 C 318.800 38.180,318.570 38.000,318.288 38.000 C 318.007 38.000,317.517 37.640,317.200 37.200 C 316.883 36.760,316.369 36.400,316.059 36.400 C 315.748 36.400,315.203 36.084,314.847 35.697 C 314.491 35.311,313.705 34.740,313.100 34.430 C 312.495 34.119,312.000 33.715,312.000 33.532 C 312.000 33.350,311.764 33.200,311.475 33.200 C 311.187 33.200,310.602 32.885,310.175 32.500 C 309.749 32.115,308.905 31.545,308.300 31.232 C 307.695 30.920,307.200 30.515,307.200 30.332 C 307.200 30.150,306.930 30.000,306.600 30.000 C 306.270 30.000,306.000 29.820,306.000 29.600 C 306.000 29.380,305.803 29.200,305.562 29.200 C 305.321 29.200,304.635 28.852,304.037 28.427 C 303.440 28.001,302.467 27.532,301.876 27.383 C 301.284 27.235,300.800 26.953,300.800 26.757 C 300.800 26.560,300.530 26.400,300.200 26.400 C 299.870 26.400,299.600 26.220,299.600 26.000 C 299.600 25.780,299.240 25.600,298.800 25.600 C 298.360 25.600,298.000 25.420,298.000 25.200 C 298.000 24.980,297.640 24.800,297.200 24.800 C 296.760 24.800,296.400 24.648,296.400 24.463 C 296.400 24.277,295.545 23.692,294.500 23.163 C 293.455 22.633,292.540 22.065,292.467 21.900 C 292.393 21.735,292.003 21.600,291.600 21.600 C 291.197 21.600,290.807 21.465,290.733 21.300 C 290.541 20.868,287.228 19.200,286.562 19.200 C 286.253 19.200,286.000 19.020,286.000 18.800 C 286.000 18.580,285.550 18.400,285.000 18.400 C 284.450 18.400,284.000 18.220,284.000 18.000 C 284.000 17.780,283.640 17.600,283.200 17.600 C 282.760 17.600,282.400 17.420,282.400 17.200 C 282.400 16.980,282.040 16.800,281.600 16.800 C 281.160 16.800,280.800 16.620,280.800 16.400 C 280.800 16.180,280.440 16.000,280.000 16.000 C 279.560 16.000,279.200 15.820,279.200 15.600 C 279.200 15.380,278.660 15.200,278.000 15.200 C 277.340 15.200,276.800 15.020,276.800 14.800 C 276.800 14.580,276.528 14.400,276.195 14.400 C 275.862 14.400,275.277 14.241,274.895 14.047 C 274.513 13.852,273.705 13.492,273.100 13.247 C 272.495 13.001,271.505 12.599,270.900 12.353 C 270.295 12.108,269.487 11.748,269.105 11.553 C 268.723 11.359,268.059 11.200,267.629 11.200 C 267.199 11.200,266.744 11.033,266.617 10.828 C 266.491 10.623,265.400 10.333,264.194 10.182 C 262.987 10.031,262.000 9.749,262.000 9.554 C 262.000 9.359,261.460 9.200,260.800 9.200 C 260.140 9.200,259.600 9.020,259.600 8.800 C 259.600 8.580,259.060 8.400,258.400 8.400 C 257.740 8.400,257.200 8.220,257.200 8.000 C 257.200 7.780,256.570 7.600,255.800 7.600 C 255.030 7.600,254.400 7.420,254.400 7.200 C 254.400 6.980,253.871 6.800,253.224 6.800 C 252.577 6.800,251.936 6.620,251.800 6.400 C 251.664 6.180,250.933 6.000,250.176 6.000 C 249.419 6.000,248.800 5.820,248.800 5.600 C 248.800 5.380,247.900 5.200,246.800 5.200 C 245.700 5.200,244.800 5.020,244.800 4.800 C 244.800 4.580,244.080 4.400,243.200 4.400 C 242.320 4.400,241.600 4.220,241.600 4.000 C 241.600 3.780,240.610 3.600,239.400 3.600 C 238.190 3.600,237.200 3.420,237.200 3.200 C 237.200 2.980,236.300 2.800,235.200 2.800 C 234.100 2.800,233.200 2.620,233.200 2.400 C 233.200 2.171,232.000 2.000,230.400 2.000 C 228.800 2.000,227.600 1.829,227.600 1.600 C 227.600 1.370,226.360 1.200,224.680 1.200 C 223.074 1.200,221.575 1.015,221.350 0.790 C 220.917 0.357,194.299 -0.021,184.500 0.267 M343.487 81.046 C 343.352 81.181,333.377 81.461,321.321 81.668 C 309.264 81.875,291.030 82.210,280.800 82.413 C 270.570 82.617,253.237 82.925,242.282 83.097 C 221.529 83.425,221.629 83.415,221.606 85.035 C 221.597 85.656,220.415 93.185,219.177 100.500 C 218.944 101.875,218.578 104.170,218.364 105.600 C 218.149 107.030,217.800 109.235,217.587 110.500 C 216.513 116.885,216.350 117.949,216.163 119.800 C 216.052 120.900,215.799 122.160,215.600 122.600 C 215.401 123.040,215.148 124.300,215.037 125.400 C 214.926 126.500,214.647 128.525,214.418 129.900 C 214.188 131.275,213.820 133.480,213.600 134.800 C 213.380 136.120,213.011 138.325,212.780 139.700 C 212.549 141.075,212.263 143.190,212.145 144.400 C 212.026 145.610,211.765 146.771,211.565 146.980 C 211.364 147.189,211.200 148.303,211.200 149.456 C 211.200 150.609,211.020 151.664,210.800 151.800 C 210.580 151.936,210.400 153.016,210.400 154.200 C 210.400 155.384,210.220 156.464,210.000 156.600 C 209.780 156.736,209.600 157.791,209.600 158.944 C 209.600 160.097,209.436 161.211,209.235 161.420 C 209.035 161.629,208.775 162.790,208.659 164.000 C 208.463 166.032,208.216 167.691,207.226 173.600 C 207.023 174.810,206.677 177.150,206.456 178.800 C 206.236 180.450,205.598 184.500,205.039 187.800 C 204.479 191.100,203.829 195.060,203.593 196.600 C 203.358 198.140,202.977 200.570,202.748 202.000 C 202.519 203.430,202.167 205.635,201.966 206.900 C 201.765 208.165,201.426 210.235,201.213 211.500 C 201.000 212.765,200.628 215.060,200.386 216.600 C 199.865 219.920,199.349 223.107,198.800 226.400 C 198.580 227.720,198.220 229.880,198.000 231.200 C 197.780 232.520,197.420 234.680,197.200 236.000 C 196.980 237.320,196.611 239.525,196.380 240.900 C 196.149 242.275,195.863 244.390,195.745 245.600 C 195.626 246.810,195.365 247.971,195.165 248.180 C 194.964 248.389,194.800 249.503,194.800 250.656 C 194.800 251.809,194.620 252.864,194.400 253.000 C 194.180 253.136,194.000 254.216,194.000 255.400 C 194.000 256.584,193.820 257.664,193.600 257.800 C 193.380 257.936,193.200 258.991,193.200 260.144 C 193.200 261.297,193.036 262.411,192.835 262.620 C 192.635 262.829,192.365 264.035,192.235 265.300 C 192.106 266.565,191.894 268.635,191.765 269.900 C 191.635 271.165,191.365 272.371,191.165 272.580 C 190.964 272.789,190.800 273.903,190.800 275.056 C 190.800 276.209,190.620 277.264,190.400 277.400 C 190.180 277.536,190.000 278.374,190.000 279.262 C 190.000 280.150,189.449 284.145,188.777 288.139 C 188.104 292.132,187.369 296.660,187.144 298.200 C 186.919 299.740,186.572 301.990,186.373 303.200 C 186.174 304.410,185.826 306.570,185.600 308.000 C 185.180 310.657,184.821 312.852,183.997 317.800 C 183.741 319.340,183.367 321.635,183.166 322.900 C 182.806 325.163,182.410 327.562,181.580 332.500 C 181.349 333.875,181.063 335.990,180.945 337.200 C 180.826 338.410,180.565 339.571,180.365 339.780 C 180.164 339.989,180.000 341.103,180.000 342.256 C 180.000 343.409,179.820 344.464,179.600 344.600 C 179.380 344.736,179.200 345.816,179.200 347.000 C 179.200 348.184,179.020 349.264,178.800 349.400 C 178.580 349.536,178.400 350.616,178.400 351.800 C 178.400 352.984,178.220 354.064,178.000 354.200 C 177.780 354.336,177.600 355.249,177.600 356.230 C 177.600 358.235,176.793 361.200,176.247 361.200 C 175.714 361.200,174.827 359.902,174.813 359.100 C 174.806 358.715,174.620 358.400,174.400 358.400 C 174.180 358.400,174.000 358.187,174.000 357.927 C 174.000 357.667,171.865 353.122,169.257 347.827 C 166.648 342.532,163.999 337.030,163.370 335.600 C 162.740 334.170,161.725 332.037,161.113 330.859 C 160.501 329.682,160.000 328.467,160.000 328.159 C 160.000 327.852,159.820 327.600,159.600 327.600 C 159.380 327.600,159.200 327.240,159.200 326.800 C 159.200 326.360,159.020 326.000,158.800 326.000 C 158.580 326.000,158.400 325.640,158.400 325.200 C 158.400 324.760,158.220 324.400,158.000 324.400 C 157.780 324.400,157.600 324.040,157.600 323.600 C 157.600 323.160,157.420 322.800,157.200 322.800 C 156.980 322.800,156.800 322.562,156.800 322.270 C 156.800 321.979,155.720 319.607,154.400 317.000 C 153.080 314.393,152.000 312.021,152.000 311.730 C 152.000 311.438,151.820 311.200,151.600 311.200 C 151.380 311.200,151.200 310.984,151.200 310.719 C 151.200 310.454,150.190 308.159,148.956 305.619 C 147.721 303.079,145.808 299.110,144.704 296.800 C 143.599 294.490,140.577 288.280,137.987 283.000 C 135.397 277.720,132.742 272.230,132.086 270.800 C 131.431 269.370,130.064 266.492,129.047 264.404 C 128.031 262.317,127.200 260.382,127.200 260.104 C 127.200 259.827,127.020 259.600,126.800 259.600 C 126.580 259.600,126.400 259.240,126.400 258.800 C 126.400 258.360,126.220 258.000,126.000 258.000 C 125.780 258.000,125.600 257.640,125.600 257.200 C 125.600 256.760,125.420 256.400,125.200 256.400 C 124.980 256.400,124.800 256.162,124.800 255.870 C 124.800 255.579,123.720 253.207,122.400 250.600 C 121.080 247.993,120.000 245.621,120.000 245.330 C 120.000 245.038,119.820 244.800,119.600 244.800 C 119.380 244.800,119.200 244.547,119.200 244.238 C 119.200 241.803,116.831 239.927,115.420 241.245 C 115.211 241.440,114.716 241.600,114.320 241.600 C 113.924 241.600,113.600 241.780,113.600 242.000 C 113.600 242.220,113.355 242.400,113.056 242.400 C 112.757 242.400,111.362 242.962,109.956 243.649 C 108.550 244.336,106.708 245.236,105.862 245.649 C 105.016 246.062,104.071 246.400,103.762 246.400 C 103.453 246.400,103.200 246.580,103.200 246.800 C 103.200 247.020,102.935 247.200,102.612 247.200 C 102.289 247.200,101.383 247.560,100.600 248.000 C 99.817 248.440,98.911 248.800,98.588 248.800 C 98.265 248.800,98.000 248.980,98.000 249.200 C 98.000 249.420,97.772 249.600,97.494 249.600 C 97.216 249.600,95.911 250.122,94.594 250.760 C 93.277 251.398,89.500 253.113,86.200 254.571 C 82.900 256.029,79.508 257.577,78.662 258.011 C 77.816 258.445,76.871 258.800,76.562 258.800 C 76.253 258.800,76.000 258.980,76.000 259.200 C 76.000 259.420,75.747 259.600,75.438 259.600 C 75.129 259.600,74.184 259.938,73.338 260.351 C 72.492 260.764,70.650 261.664,69.244 262.351 C 67.838 263.038,66.443 263.600,66.144 263.600 C 65.845 263.600,65.600 263.780,65.600 264.000 C 65.600 264.220,65.335 264.400,65.012 264.400 C 64.689 264.400,63.783 264.760,63.000 265.200 C 62.217 265.640,61.311 266.000,60.988 266.000 C 60.665 266.000,60.400 266.180,60.400 266.400 C 60.400 266.620,60.147 266.800,59.838 266.800 C 59.529 266.800,58.584 267.155,57.738 267.589 C 56.184 268.386,53.478 269.612,48.000 271.999 C 46.350 272.718,44.111 273.732,43.025 274.253 C 41.939 274.774,40.814 275.200,40.525 275.200 C 40.236 275.200,40.000 275.380,40.000 275.600 C 40.000 275.820,39.735 276.000,39.412 276.000 C 39.089 276.000,38.183 276.360,37.400 276.800 C 36.617 277.240,35.711 277.600,35.388 277.600 C 35.065 277.600,34.800 277.780,34.800 278.000 C 34.800 278.220,34.555 278.400,34.256 278.400 C 33.957 278.400,32.562 278.962,31.156 279.649 C 29.750 280.336,27.908 281.236,27.062 281.649 C 26.216 282.062,25.271 282.400,24.962 282.400 C 24.653 282.400,24.400 282.580,24.400 282.800 C 24.400 283.020,24.158 283.200,23.861 283.200 C 23.206 283.200,20.894 284.324,20.613 284.779 C 20.501 284.960,21.130 286.509,22.010 288.220 C 23.296 290.719,23.562 291.596,23.361 292.666 C 23.200 293.528,23.268 294.000,23.555 294.000 C 23.800 294.000,24.000 294.360,24.000 294.800 C 24.000 295.240,24.180 295.600,24.400 295.600 C 24.620 295.600,24.800 295.836,24.800 296.125 C 24.800 296.413,25.160 297.036,25.600 297.508 C 26.040 297.980,26.400 298.644,26.400 298.983 C 26.400 299.322,26.580 299.600,26.800 299.600 C 27.020 299.600,27.200 299.918,27.200 300.307 C 27.200 300.696,27.650 301.677,28.200 302.486 C 28.750 303.295,29.200 304.113,29.200 304.303 C 29.200 304.494,29.515 304.998,29.900 305.425 C 30.285 305.851,30.854 306.692,31.164 307.293 C 31.474 307.895,32.014 308.705,32.364 309.093 C 32.714 309.482,33.255 310.295,33.568 310.900 C 33.880 311.505,34.285 312.000,34.468 312.000 C 34.650 312.000,34.800 312.243,34.800 312.541 C 34.800 312.838,35.340 313.646,36.000 314.337 C 36.660 315.028,37.200 315.825,37.200 316.108 C 37.200 316.391,37.560 316.883,38.000 317.200 C 38.440 317.517,38.800 318.007,38.800 318.288 C 38.800 318.570,38.980 318.800,39.200 318.800 C 39.420 318.800,39.600 319.004,39.600 319.253 C 39.600 319.502,39.924 319.997,40.319 320.353 C 40.714 320.709,41.471 321.630,42.000 322.400 C 42.529 323.170,43.061 323.890,43.183 324.000 C 43.305 324.110,43.940 324.920,44.595 325.800 C 45.249 326.680,46.373 327.991,47.092 328.713 C 47.812 329.436,48.400 330.179,48.400 330.365 C 48.400 330.671,52.279 334.803,58.470 341.094 C 62.502 345.190,69.499 351.766,70.005 351.935 C 70.276 352.025,71.393 352.977,72.489 354.050 C 73.585 355.122,74.644 356.000,74.844 356.000 C 75.044 356.000,75.772 356.540,76.463 357.200 C 77.154 357.860,77.864 358.400,78.041 358.400 C 78.219 358.400,78.814 358.850,79.364 359.400 C 79.914 359.950,80.552 360.400,80.782 360.400 C 81.012 360.400,81.200 360.580,81.200 360.800 C 81.200 361.020,81.430 361.200,81.712 361.200 C 81.993 361.200,82.483 361.560,82.800 362.000 C 83.117 362.440,83.609 362.800,83.892 362.800 C 84.175 362.800,84.972 363.340,85.663 364.000 C 86.354 364.660,87.122 365.200,87.371 365.200 C 87.620 365.200,88.083 365.560,88.400 366.000 C 88.717 366.440,89.214 366.800,89.505 366.800 C 89.796 366.800,90.420 367.160,90.892 367.600 C 91.364 368.040,91.987 368.400,92.275 368.400 C 92.564 368.400,92.800 368.580,92.800 368.800 C 92.800 369.020,93.070 369.200,93.400 369.200 C 93.730 369.200,94.000 369.350,94.000 369.532 C 94.000 369.715,94.493 370.120,95.095 370.432 C 95.697 370.745,97.314 371.675,98.688 372.500 C 100.062 373.325,101.369 374.000,101.593 374.000 C 101.817 374.000,102.000 374.166,102.000 374.368 C 102.000 374.571,102.540 374.855,103.200 375.000 C 103.860 375.145,104.400 375.429,104.400 375.632 C 104.400 375.834,104.760 376.000,105.200 376.000 C 105.640 376.000,106.000 376.180,106.000 376.400 C 106.000 376.620,106.360 376.800,106.800 376.800 C 107.240 376.800,107.600 376.980,107.600 377.200 C 107.600 377.420,107.960 377.600,108.400 377.600 C 108.840 377.600,109.201 377.735,109.201 377.900 C 109.202 378.065,110.192 378.650,111.400 379.200 C 112.608 379.750,113.598 380.335,113.599 380.500 C 113.599 380.665,113.960 380.800,114.400 380.800 C 114.840 380.800,115.200 380.980,115.200 381.200 C 115.200 381.420,115.549 381.600,115.976 381.600 C 116.403 381.600,116.864 381.780,117.000 382.000 C 117.136 382.220,117.687 382.400,118.224 382.400 C 118.761 382.400,119.200 382.580,119.200 382.800 C 119.200 383.020,119.560 383.200,120.000 383.200 C 120.440 383.200,120.800 383.380,120.800 383.600 C 120.800 383.820,121.160 384.000,121.600 384.000 C 122.040 384.000,122.400 384.180,122.400 384.400 C 122.400 384.620,122.940 384.800,123.600 384.800 C 124.260 384.800,124.800 384.980,124.800 385.200 C 124.800 385.420,125.160 385.600,125.600 385.600 C 126.040 385.600,126.400 385.780,126.400 386.000 C 126.400 386.220,126.755 386.400,127.188 386.400 C 127.621 386.400,128.617 386.760,129.400 387.200 C 130.183 387.640,131.168 388.000,131.589 388.000 C 132.009 388.000,132.464 388.180,132.600 388.400 C 132.736 388.620,133.276 388.800,133.800 388.800 C 134.324 388.800,134.864 388.980,135.000 389.200 C 135.136 389.420,135.676 389.600,136.200 389.600 C 136.724 389.600,137.264 389.780,137.400 390.000 C 137.536 390.220,138.076 390.400,138.600 390.400 C 139.124 390.400,139.659 390.572,139.789 390.782 C 139.918 390.991,141.099 391.285,142.412 391.433 C 143.725 391.582,144.800 391.860,144.800 392.052 C 144.800 392.243,145.329 392.400,145.976 392.400 C 146.623 392.400,147.264 392.580,147.400 392.800 C 147.536 393.020,148.267 393.200,149.024 393.200 C 149.781 393.200,150.400 393.380,150.400 393.600 C 150.400 393.820,151.120 394.000,152.000 394.000 C 152.880 394.000,153.600 394.180,153.600 394.400 C 153.600 394.620,154.500 394.800,155.600 394.800 C 156.700 394.800,157.600 394.980,157.600 395.200 C 157.600 395.420,158.309 395.600,159.176 395.600 C 160.043 395.600,160.864 395.780,161.000 396.000 C 161.136 396.220,162.137 396.400,163.224 396.400 C 164.311 396.400,165.200 396.580,165.200 396.800 C 165.200 397.022,166.267 397.200,167.600 397.200 C 168.920 397.200,170.000 397.366,170.000 397.568 C 170.000 397.919,171.943 398.135,179.600 398.634 C 181.470 398.756,183.171 399.024,183.380 399.228 C 183.914 399.751,216.800 399.723,216.800 399.200 C 216.800 398.962,218.325 398.800,220.576 398.800 C 222.663 398.800,224.463 398.621,224.600 398.400 C 224.736 398.180,226.187 398.000,227.824 398.000 C 229.541 398.000,230.800 397.831,230.800 397.600 C 230.800 397.380,231.689 397.200,232.776 397.200 C 233.863 397.200,234.864 397.020,235.000 396.800 C 235.136 396.580,236.227 396.400,237.424 396.400 C 238.621 396.400,239.600 396.220,239.600 396.000 C 239.600 395.780,240.410 395.600,241.400 395.600 C 242.390 395.600,243.200 395.420,243.200 395.200 C 243.200 394.980,243.920 394.800,244.800 394.800 C 245.680 394.800,246.400 394.620,246.400 394.400 C 246.400 394.180,247.199 394.000,248.176 394.000 C 249.153 394.000,250.064 393.820,250.200 393.600 C 250.336 393.380,250.977 393.200,251.624 393.200 C 252.271 393.200,252.800 393.020,252.800 392.800 C 252.800 392.580,253.520 392.400,254.400 392.400 C 255.280 392.400,256.000 392.244,256.000 392.054 C 256.000 391.864,256.833 391.595,257.850 391.455 C 259.694 391.202,266.374 389.120,267.695 388.386 C 268.077 388.174,268.752 388.000,269.195 388.000 C 269.638 388.000,270.000 387.820,270.000 387.600 C 270.000 387.380,270.355 387.200,270.788 387.200 C 271.221 387.200,272.217 386.840,273.000 386.400 C 273.783 385.960,274.779 385.600,275.212 385.600 C 275.645 385.600,276.000 385.420,276.000 385.200 C 276.000 384.980,276.360 384.800,276.800 384.800 C 277.240 384.800,277.600 384.620,277.600 384.400 C 277.600 384.180,278.140 384.000,278.800 384.000 C 279.460 384.000,280.000 383.820,280.000 383.600 C 280.000 383.380,280.360 383.200,280.800 383.200 C 281.240 383.200,281.600 383.020,281.600 382.800 C 281.600 382.580,281.960 382.400,282.400 382.400 C 282.840 382.400,283.200 382.220,283.200 382.000 C 283.200 381.780,283.560 381.600,284.000 381.600 C 284.440 381.600,284.800 381.420,284.800 381.200 C 284.800 380.980,285.124 380.800,285.520 380.800 C 286.414 380.800,288.393 379.906,288.397 379.500 C 288.399 379.335,288.760 379.200,289.200 379.200 C 289.640 379.200,290.000 379.020,290.000 378.800 C 290.000 378.580,290.360 378.400,290.800 378.400 C 291.240 378.400,291.600 378.220,291.600 378.000 C 291.600 377.780,291.836 377.600,292.125 377.600 C 292.413 377.600,293.036 377.240,293.508 376.800 C 293.980 376.360,294.644 376.000,294.983 376.000 C 295.322 376.000,295.600 375.820,295.600 375.600 C 295.600 375.380,295.897 375.200,296.260 375.200 C 297.099 375.200,301.200 373.138,301.200 372.716 C 301.200 372.542,301.560 372.400,302.000 372.400 C 302.440 372.400,302.800 372.220,302.800 372.000 C 302.800 371.780,303.036 371.600,303.325 371.600 C 303.613 371.600,304.198 371.285,304.625 370.900 C 305.051 370.515,305.940 369.931,306.600 369.603 C 307.260 369.274,308.091 368.689,308.447 368.303 C 308.803 367.916,309.348 367.600,309.659 367.600 C 309.969 367.600,310.483 367.240,310.800 366.800 C 311.117 366.360,311.657 366.000,312.000 366.000 C 312.343 366.000,312.883 365.640,313.200 365.200 C 313.517 364.760,313.980 364.400,314.229 364.400 C 314.478 364.400,315.246 363.860,315.937 363.200 C 316.628 362.540,317.425 362.000,317.708 362.000 C 317.991 362.000,318.483 361.640,318.800 361.200 C 319.117 360.760,319.573 360.400,319.813 360.400 C 320.053 360.400,320.598 360.080,321.025 359.688 C 321.451 359.296,322.520 358.443,323.400 357.792 C 324.280 357.141,325.270 356.328,325.600 355.985 C 325.930 355.643,326.830 354.926,327.600 354.394 C 328.370 353.861,329.630 352.784,330.400 352.000 C 331.170 351.216,332.430 350.132,333.200 349.591 C 334.941 348.370,350.400 332.904,350.400 332.384 C 350.400 332.176,351.480 330.908,352.800 329.568 C 354.120 328.227,355.200 326.942,355.200 326.712 C 355.200 326.482,355.524 326.003,355.921 325.647 C 356.317 325.291,357.170 324.280,357.816 323.400 C 358.462 322.520,359.308 321.509,359.696 321.153 C 360.083 320.797,360.400 320.301,360.400 320.049 C 360.400 319.798,360.940 319.028,361.600 318.337 C 362.260 317.646,362.800 316.878,362.800 316.629 C 362.800 316.380,363.160 315.917,363.600 315.600 C 364.040 315.283,364.400 314.791,364.400 314.508 C 364.400 314.225,364.940 313.428,365.600 312.737 C 366.260 312.046,366.800 311.253,366.800 310.974 C 366.800 310.695,366.935 310.407,367.100 310.333 C 367.555 310.131,369.200 307.690,369.200 307.216 C 369.200 306.987,369.350 306.800,369.532 306.800 C 369.715 306.800,370.120 306.305,370.432 305.700 C 370.744 305.095,371.089 304.510,371.199 304.400 C 371.310 304.290,371.837 303.390,372.371 302.400 C 374.094 299.205,374.193 299.039,374.700 298.487 C 374.975 298.188,375.200 297.596,375.200 297.171 C 375.200 296.747,375.380 296.400,375.600 296.400 C 375.820 296.400,376.000 296.040,376.000 295.600 C 376.000 295.160,376.180 294.800,376.400 294.800 C 376.620 294.800,376.800 294.440,376.800 294.000 C 376.800 293.560,376.980 293.200,377.200 293.200 C 377.420 293.200,377.600 292.840,377.600 292.400 C 377.600 291.960,377.780 291.600,378.000 291.600 C 378.220 291.600,378.400 291.330,378.400 291.000 C 378.400 290.670,378.580 290.400,378.800 290.400 C 379.020 290.400,379.200 290.040,379.200 289.600 C 379.200 289.160,379.380 288.800,379.600 288.800 C 379.820 288.800,380.000 288.440,380.000 288.000 C 380.000 287.560,380.180 287.200,380.400 287.200 C 380.620 287.200,380.800 286.840,380.800 286.400 C 380.800 285.960,380.980 285.600,381.200 285.600 C 381.420 285.600,381.600 285.240,381.600 284.800 C 381.600 284.360,381.780 284.000,382.000 284.000 C 382.220 284.000,382.400 283.640,382.400 283.200 C 382.400 282.760,382.580 282.400,382.800 282.400 C 383.020 282.400,383.200 282.051,383.200 281.624 C 383.200 281.197,383.380 280.736,383.600 280.600 C 383.820 280.464,384.000 279.913,384.000 279.376 C 384.000 278.839,384.180 278.400,384.400 278.400 C 384.620 278.400,384.800 278.040,384.800 277.600 C 384.800 277.160,384.980 276.800,385.200 276.800 C 385.420 276.800,385.600 276.528,385.600 276.195 C 385.600 275.862,385.780 275.232,386.000 274.795 C 386.220 274.358,386.580 273.642,386.800 273.205 C 387.020 272.768,387.200 272.048,387.200 271.605 C 387.200 271.162,387.347 270.800,387.528 270.800 C 387.708 270.800,388.104 269.889,388.407 268.775 C 388.710 267.661,389.103 266.660,389.279 266.551 C 389.456 266.442,389.600 265.924,389.600 265.400 C 389.600 264.876,389.780 264.336,390.000 264.200 C 390.220 264.064,390.400 263.524,390.400 263.000 C 390.400 262.476,390.567 261.944,390.772 261.817 C 390.977 261.691,391.267 260.600,391.418 259.394 C 391.569 258.187,391.851 257.200,392.046 257.200 C 392.241 257.200,392.400 256.570,392.400 255.800 C 392.400 255.030,392.580 254.400,392.800 254.400 C 393.020 254.400,393.200 253.781,393.200 253.024 C 393.200 252.267,393.380 251.536,393.600 251.400 C 393.820 251.264,394.000 250.533,394.000 249.776 C 394.000 249.019,394.180 248.400,394.400 248.400 C 394.620 248.400,394.800 247.590,394.800 246.600 C 394.800 245.610,394.980 244.800,395.200 244.800 C 395.420 244.800,395.600 244.080,395.600 243.200 C 395.600 242.320,395.780 241.600,396.000 241.600 C 396.220 241.600,396.400 240.700,396.400 239.600 C 396.400 238.500,396.580 237.600,396.800 237.600 C 397.020 237.600,397.200 236.610,397.200 235.400 C 397.200 234.190,397.365 233.200,397.566 233.200 C 397.909 233.200,398.071 231.962,398.642 225.000 C 398.768 223.460,399.080 221.947,399.336 221.639 C 400.033 220.796,399.998 178.333,399.300 178.100 C 398.956 177.985,398.800 176.944,398.800 174.767 C 398.800 172.922,398.633 171.600,398.400 171.600 C 398.174 171.600,398.000 170.467,398.000 169.000 C 398.000 167.533,397.826 166.400,397.600 166.400 C 397.380 166.400,397.200 165.511,397.200 164.424 C 397.200 163.337,397.020 162.336,396.800 162.200 C 396.580 162.064,396.400 161.153,396.400 160.176 C 396.400 159.199,396.220 158.400,396.000 158.400 C 395.780 158.400,395.600 157.500,395.600 156.400 C 395.600 155.300,395.420 154.400,395.200 154.400 C 394.980 154.400,394.800 153.680,394.800 152.800 C 394.800 151.920,394.620 151.200,394.400 151.200 C 394.180 151.200,394.000 150.480,394.000 149.600 C 394.000 148.720,393.820 148.000,393.600 148.000 C 393.380 148.000,393.200 147.370,393.200 146.600 C 393.200 145.830,393.020 145.200,392.800 145.200 C 392.580 145.200,392.400 144.660,392.400 144.000 C 392.400 143.340,392.243 142.800,392.052 142.800 C 391.860 142.800,391.582 141.725,391.433 140.412 C 391.285 139.099,390.991 137.918,390.782 137.789 C 390.572 137.659,390.400 137.124,390.400 136.600 C 390.400 136.076,390.220 135.536,390.000 135.400 C 389.780 135.264,389.600 134.801,389.600 134.371 C 389.600 133.941,389.420 133.232,389.200 132.795 C 388.980 132.358,388.620 131.642,388.400 131.205 C 388.180 130.768,388.000 130.048,388.000 129.605 C 388.000 129.162,387.853 128.800,387.672 128.800 C 387.492 128.800,387.100 127.900,386.800 126.800 C 386.500 125.700,386.108 124.800,385.928 124.800 C 385.747 124.800,385.600 124.451,385.600 124.024 C 385.600 123.597,385.420 123.136,385.200 123.000 C 384.980 122.864,384.800 122.313,384.800 121.776 C 384.800 121.239,384.620 120.800,384.400 120.800 C 384.180 120.800,384.000 120.440,384.000 120.000 C 384.000 119.560,383.820 119.200,383.600 119.200 C 383.380 119.200,383.200 118.851,383.200 118.424 C 383.200 117.997,383.020 117.536,382.800 117.400 C 382.580 117.264,382.400 116.803,382.400 116.376 C 382.400 115.949,382.220 115.600,382.000 115.600 C 381.780 115.600,381.600 115.355,381.600 115.056 C 381.600 114.399,379.124 109.455,378.700 109.267 C 378.535 109.193,378.400 108.788,378.400 108.367 C 378.400 107.945,378.220 107.600,378.000 107.600 C 377.780 107.600,377.600 107.240,377.600 106.800 C 377.600 106.360,377.420 106.000,377.200 106.000 C 376.980 106.000,376.800 105.680,376.800 105.288 C 376.800 104.897,376.440 104.317,376.000 104.000 C 375.560 103.683,375.200 103.147,375.200 102.809 C 375.200 102.176,373.303 98.357,372.811 98.000 C 372.660 97.890,372.281 97.215,371.970 96.500 C 371.659 95.785,371.269 95.200,371.102 95.200 C 370.936 95.200,370.800 94.930,370.800 94.600 C 370.800 94.270,370.620 94.000,370.400 94.000 C 370.180 94.000,370.000 93.730,370.000 93.400 C 370.000 93.070,369.820 92.800,369.600 92.800 C 369.380 92.800,369.200 92.564,369.200 92.275 C 369.200 91.987,368.885 91.402,368.500 90.975 C 368.115 90.549,367.545 89.705,367.232 89.100 C 366.920 88.495,366.335 88.000,365.932 88.000 C 365.068 88.000,363.786 86.739,362.200 84.329 C 361.980 83.994,361.350 83.066,360.800 82.265 L 359.800 80.810 351.767 80.805 C 347.348 80.802,343.623 80.911,343.487 81.046 " stroke="none" fill="#fbfcfc" fill-rule="evenodd"></path><path id="path1" d="M205.606 70.396 C 205.359 70.549,204.970 71.827,204.741 73.237 C 203.846 78.760,203.659 79.887,203.237 82.300 C 202.997 83.675,202.614 85.925,202.386 87.300 C 201.396 93.273,201.217 94.328,200.800 96.600 C 200.558 97.920,200.195 100.080,199.992 101.400 C 199.790 102.720,199.356 105.330,199.029 107.200 C 198.140 112.272,194.519 133.641,193.810 138.000 C 193.469 140.090,193.021 142.700,192.814 143.800 C 192.606 144.900,192.248 146.925,192.018 148.300 C 191.788 149.675,191.412 151.925,191.182 153.300 C 190.952 154.675,190.600 156.700,190.400 157.800 C 190.200 158.900,189.848 160.925,189.618 162.300 C 189.388 163.675,189.012 165.925,188.782 167.300 C 188.552 168.675,188.197 170.700,187.993 171.800 C 187.789 172.900,187.529 174.430,187.416 175.200 C 187.303 175.970,187.034 177.590,186.819 178.800 C 186.604 180.010,186.236 182.170,186.000 183.600 C 185.088 189.135,184.825 190.681,184.400 193.000 C 184.158 194.320,183.802 196.390,183.609 197.600 C 183.416 198.810,182.243 205.740,181.002 213.000 C 179.760 220.260,178.588 227.190,178.397 228.400 C 177.738 232.574,176.790 238.206,176.411 240.200 C 176.202 241.300,175.923 242.830,175.792 243.600 C 175.660 244.370,175.373 245.990,175.153 247.200 C 174.933 248.410,174.582 250.480,174.373 251.800 C 174.164 253.120,173.816 255.190,173.600 256.400 C 173.384 257.610,173.034 259.680,172.821 261.000 C 172.448 263.320,171.917 266.431,171.184 270.600 C 170.990 271.700,170.645 273.725,170.416 275.100 C 170.187 276.475,169.803 278.725,169.563 280.100 C 169.323 281.475,168.979 283.500,168.800 284.600 C 167.265 294.017,167.212 294.120,165.639 290.693 C 165.111 289.542,163.736 286.620,162.583 284.200 C 161.431 281.780,159.814 278.360,158.991 276.600 C 158.168 274.840,156.011 270.250,154.199 266.400 C 152.387 262.550,150.143 257.780,149.214 255.800 C 148.284 253.820,146.663 250.400,145.610 248.200 C 142.685 242.083,140.788 238.076,136.996 230.000 C 135.085 225.930,132.639 220.765,131.561 218.522 C 130.482 216.278,129.594 214.298,129.587 214.122 C 129.500 211.904,128.819 212.142,118.581 217.971 C 113.143 221.067,108.537 223.600,108.347 223.600 C 108.156 223.600,108.000 223.780,108.000 224.000 C 108.000 224.220,107.834 224.400,107.632 224.400 C 107.429 224.400,105.674 225.324,103.732 226.454 C 101.789 227.584,99.210 229.046,98.000 229.703 C 96.790 230.360,95.350 231.182,94.800 231.529 C 94.250 231.877,92.630 232.814,91.200 233.613 C 89.770 234.412,87.925 235.455,87.100 235.933 C 86.275 236.410,84.970 237.160,84.200 237.600 C 83.430 238.040,82.170 238.760,81.400 239.200 C 80.630 239.640,79.325 240.387,78.500 240.859 C 77.675 241.331,76.010 242.259,74.800 242.920 C 73.590 243.581,72.122 244.455,71.538 244.861 C 70.954 245.267,70.380 245.600,70.261 245.600 C 70.143 245.600,68.045 246.770,65.600 248.200 C 63.155 249.630,61.082 250.800,60.995 250.800 C 60.907 250.800,59.882 251.365,58.718 252.056 C 56.724 253.238,56.065 253.620,52.600 255.600 C 51.830 256.040,50.570 256.760,49.800 257.200 C 49.030 257.640,47.770 258.360,47.000 258.800 C 46.230 259.240,44.970 259.960,44.200 260.400 C 43.430 260.840,42.125 261.581,41.300 262.047 C 40.475 262.514,38.000 263.928,35.800 265.190 C 33.600 266.453,30.990 267.936,30.000 268.486 C 28.336 269.412,27.424 269.928,23.900 271.943 C 23.185 272.352,21.790 273.164,20.800 273.748 C 19.810 274.332,18.325 275.120,17.500 275.499 C 16.675 275.878,16.000 276.337,16.000 276.518 C 16.000 276.699,15.820 276.736,15.600 276.600 C 15.380 276.464,15.200 276.633,15.200 276.976 C 15.200 277.319,15.380 277.600,15.600 277.600 C 15.820 277.600,16.000 277.960,16.000 278.400 C 16.000 278.840,16.180 279.200,16.400 279.200 C 16.620 279.200,16.800 279.472,16.800 279.805 C 16.800 280.138,16.980 280.768,17.200 281.205 C 17.420 281.642,17.780 282.358,18.000 282.795 C 18.220 283.232,18.400 283.862,18.400 284.195 C 18.400 284.528,18.580 284.800,18.800 284.800 C 19.020 284.800,19.200 284.620,19.200 284.400 C 19.200 284.180,19.382 284.000,19.605 284.000 C 19.828 284.000,21.403 283.349,23.105 282.554 C 24.807 281.759,27.145 280.679,28.300 280.154 C 37.886 275.798,38.682 275.434,42.000 273.886 C 43.650 273.116,46.800 271.676,49.000 270.686 C 55.195 267.899,57.584 266.815,60.400 265.514 C 61.830 264.853,63.945 263.882,65.100 263.356 C 66.255 262.830,68.145 261.970,69.300 261.444 C 70.455 260.918,72.570 259.947,74.000 259.286 C 76.911 257.941,79.536 256.751,85.400 254.117 C 87.600 253.129,90.570 251.777,92.000 251.114 C 94.453 249.976,95.497 249.499,101.100 246.956 C 102.365 246.382,104.480 245.411,105.800 244.797 C 107.120 244.184,109.460 243.114,111.000 242.420 C 112.540 241.726,114.492 240.808,115.338 240.379 C 117.621 239.222,117.779 239.317,119.517 242.900 C 120.398 244.715,122.737 249.531,124.715 253.602 C 126.693 257.674,128.936 262.354,129.700 264.002 C 130.981 266.766,132.418 269.742,140.611 286.600 C 142.215 289.900,144.512 294.670,145.715 297.200 C 147.832 301.649,150.742 307.694,156.402 319.400 C 157.891 322.480,160.190 327.250,161.510 330.000 C 163.820 334.813,168.541 344.596,173.719 355.296 L 176.185 360.392 176.662 357.696 C 176.924 356.213,177.348 353.650,177.603 352.000 C 177.859 350.350,178.217 348.190,178.400 347.200 C 178.583 346.210,178.938 344.050,179.191 342.400 C 179.444 340.750,179.812 338.410,180.010 337.200 C 180.208 335.990,180.566 333.740,180.805 332.200 C 181.044 330.660,181.410 328.632,181.620 327.694 C 181.829 326.756,182.000 325.544,182.000 325.000 C 182.000 324.456,182.171 323.244,182.380 322.306 C 182.590 321.368,182.956 319.340,183.195 317.800 C 183.434 316.260,183.800 314.010,184.009 312.800 C 184.217 311.590,184.654 308.890,184.979 306.800 C 185.583 302.929,187.388 291.660,188.792 283.000 C 189.697 277.421,191.834 264.175,192.438 260.400 C 192.667 258.970,193.010 256.900,193.200 255.800 C 193.390 254.700,193.738 252.585,193.973 251.100 C 194.208 249.615,194.592 247.185,194.827 245.700 C 195.062 244.215,195.412 242.100,195.605 241.000 C 195.798 239.900,196.161 237.650,196.412 236.000 C 196.663 234.350,197.020 232.190,197.205 231.200 C 197.390 230.210,197.748 227.960,198.000 226.200 C 198.252 224.440,198.610 222.190,198.795 221.200 C 198.980 220.210,199.338 218.050,199.591 216.400 C 200.120 212.944,200.633 209.777,201.194 206.500 C 201.411 205.235,202.126 200.870,202.784 196.800 C 206.095 176.317,207.309 168.788,207.655 166.600 C 208.475 161.422,208.877 158.919,209.200 157.000 C 209.385 155.900,209.731 153.785,209.968 152.300 C 210.206 150.815,210.594 148.385,210.832 146.900 C 211.069 145.415,211.415 143.300,211.600 142.200 C 211.785 141.100,212.123 139.030,212.351 137.600 C 212.578 136.170,212.961 133.830,213.200 132.400 C 213.439 130.970,213.799 128.720,214.000 127.400 C 214.201 126.080,214.553 123.875,214.782 122.500 C 215.012 121.125,215.368 118.965,215.573 117.700 C 215.777 116.435,216.040 114.860,216.155 114.200 C 216.271 113.540,216.560 111.740,216.798 110.200 C 217.246 107.301,217.714 104.459,218.396 100.500 C 218.614 99.235,219.246 95.320,219.800 91.800 C 220.355 88.280,220.900 84.843,221.011 84.163 L 221.213 82.926 231.407 82.650 C 253.578 82.051,317.755 80.828,340.600 80.569 C 360.597 80.342,361.183 80.258,359.196 77.883 C 358.973 77.617,358.256 76.770,357.602 76.000 C 356.948 75.230,356.410 74.493,356.406 74.361 C 356.363 72.736,355.375 72.601,343.400 72.580 C 337.020 72.570,321.360 72.337,308.600 72.063 C 282.858 71.511,277.040 71.401,241.800 70.800 C 228.380 70.571,214.848 70.324,211.728 70.251 C 208.608 70.178,205.853 70.243,205.606 70.396 " stroke="none" fill="#1ed4e4" fill-rule="evenodd"></path><path id="path2" d="M347.200 64.612 C 347.200 65.020,352.406 70.128,352.612 69.922 C 352.726 69.807,351.659 68.518,350.240 67.057 C 347.847 64.592,347.200 64.071,347.200 64.612 M205.065 69.895 C 204.704 70.479,203.896 75.630,204.129 75.863 C 204.250 75.983,204.450 75.433,204.574 74.641 C 204.698 73.848,204.898 72.570,205.018 71.800 C 205.138 71.030,205.453 70.385,205.718 70.367 C 205.983 70.349,212.409 70.363,219.998 70.398 C 227.586 70.433,233.706 70.382,233.598 70.284 C 233.210 69.935,205.276 69.554,205.065 69.895 M234.200 70.588 C 234.420 70.693,247.110 70.988,262.400 71.242 C 302.447 71.909,323.863 72.291,339.842 72.622 C 353.611 72.907,355.329 72.795,354.218 71.685 C 354.074 71.541,353.807 71.665,353.625 71.960 C 353.283 72.512,348.431 72.452,291.800 71.194 C 270.333 70.718,233.665 70.331,234.200 70.588 M203.447 78.537 C 203.278 79.602,203.232 80.565,203.344 80.678 C 203.636 80.969,204.105 78.224,203.914 77.340 C 203.827 76.933,203.616 77.471,203.447 78.537 M359.500 79.700 C 359.372 80.086,354.819 80.258,339.447 80.453 C 328.509 80.593,319.434 80.834,319.280 80.989 C 318.972 81.299,355.568 80.897,358.304 80.560 C 359.941 80.358,361.200 80.933,361.200 81.883 C 361.200 82.070,361.560 82.483,362.000 82.800 C 362.440 83.117,362.800 83.607,362.800 83.888 C 362.800 84.170,362.980 84.400,363.200 84.400 C 363.420 84.400,363.600 84.593,363.600 84.829 C 363.600 85.393,364.776 86.558,365.059 86.274 C 365.181 86.152,364.902 85.647,364.440 85.151 C 363.978 84.655,363.600 84.053,363.600 83.813 C 363.600 83.573,363.240 83.117,362.800 82.800 C 362.360 82.483,362.000 81.993,362.000 81.712 C 362.000 81.430,361.820 81.200,361.600 81.200 C 361.380 81.200,361.200 81.007,361.200 80.771 C 361.200 79.783,359.772 78.883,359.500 79.700 M202.618 83.126 C 202.453 84.295,202.413 85.346,202.529 85.462 C 202.814 85.747,203.331 82.187,203.100 81.525 C 203.000 81.236,202.782 81.957,202.618 83.126 M280.800 81.600 L 273.000 81.826 283.400 81.861 C 289.120 81.879,297.940 81.772,303.000 81.621 L 312.200 81.347 300.400 81.361 C 293.910 81.368,285.090 81.476,280.800 81.600 M241.600 82.400 L 233.800 82.626 244.200 82.661 C 249.920 82.679,258.740 82.572,263.800 82.421 L 273.000 82.147 261.200 82.161 C 254.710 82.168,245.890 82.276,241.600 82.400 M221.047 83.900 C 220.599 86.176,220.405 89.041,220.770 88.000 C 220.963 87.450,221.141 86.370,221.166 85.600 C 221.243 83.257,221.307 83.233,227.817 83.100 L 233.800 82.977 227.532 82.888 L 221.264 82.800 221.047 83.900 M201.818 87.926 C 201.653 89.095,201.613 90.146,201.729 90.262 C 202.014 90.547,202.531 86.987,202.300 86.325 C 202.200 86.036,201.982 86.757,201.818 87.926 M219.818 91.526 C 219.653 92.695,219.613 93.746,219.729 93.862 C 220.014 94.147,220.531 90.587,220.300 89.925 C 220.200 89.636,219.982 90.357,219.818 91.526 M200.982 92.982 C 200.829 94.002,200.802 94.935,200.922 95.055 C 201.042 95.175,201.265 94.439,201.418 93.418 C 201.571 92.398,201.598 91.465,201.478 91.345 C 201.358 91.225,201.135 91.961,200.982 92.982 M219.018 96.326 C 218.853 97.495,218.813 98.546,218.929 98.662 C 219.214 98.947,219.731 95.387,219.500 94.725 C 219.400 94.436,219.182 95.157,219.018 96.326 M200.182 97.382 C 200.029 98.402,200.002 99.335,200.122 99.455 C 200.242 99.575,200.465 98.839,200.618 97.818 C 200.771 96.798,200.798 95.865,200.678 95.745 C 200.558 95.625,200.335 96.361,200.182 97.382 M218.211 101.275 C 218.049 102.306,218.002 103.386,218.106 103.675 C 218.210 103.964,218.427 103.356,218.589 102.325 C 218.751 101.294,218.798 100.214,218.694 99.925 C 218.590 99.636,218.373 100.244,218.211 101.275 M199.489 101.600 C 199.336 102.150,199.227 103.140,199.246 103.800 C 199.277 104.892,199.314 104.858,199.652 103.411 C 200.075 101.606,199.931 100.011,199.489 101.600 M217.411 106.075 C 217.249 107.106,217.202 108.186,217.306 108.475 C 217.410 108.764,217.627 108.156,217.789 107.125 C 217.951 106.094,217.998 105.014,217.894 104.725 C 217.790 104.436,217.573 105.044,217.411 106.075 M198.697 106.000 C 198.540 106.550,198.427 107.630,198.446 108.400 L 198.480 109.800 198.855 108.200 C 199.305 106.277,199.167 104.358,198.697 106.000 M216.585 111.385 C 216.430 112.623,216.400 113.734,216.519 113.852 C 216.637 113.970,216.861 113.054,217.015 111.815 C 217.170 110.577,217.200 109.466,217.081 109.348 C 216.963 109.230,216.739 110.146,216.585 111.385 M197.889 110.800 C 197.736 111.350,197.628 112.430,197.649 113.200 C 197.686 114.546,197.701 114.531,198.047 112.800 C 198.451 110.777,198.328 109.223,197.889 110.800 M215.788 116.138 C 215.639 117.135,215.599 118.186,215.700 118.475 C 215.800 118.764,216.018 118.043,216.182 116.874 C 216.347 115.705,216.387 114.654,216.271 114.538 C 216.155 114.422,215.938 115.142,215.788 116.138 M197.061 116.200 C 196.912 117.080,196.613 118.568,196.395 119.506 C 196.178 120.444,196.018 121.794,196.039 122.506 C 196.061 123.218,196.423 122.000,196.844 119.800 C 197.264 117.600,197.546 115.530,197.470 115.200 C 197.394 114.870,197.210 115.320,197.061 116.200 M214.988 120.938 C 214.839 121.935,214.799 122.986,214.900 123.275 C 215.000 123.564,215.218 122.843,215.382 121.674 C 215.547 120.505,215.587 119.454,215.471 119.338 C 215.355 119.222,215.138 119.942,214.988 120.938 M195.476 124.810 C 195.330 125.355,195.208 126.292,195.205 126.894 C 195.202 127.496,195.027 128.756,194.816 129.694 C 194.319 131.906,193.757 135.057,193.192 138.800 C 192.943 140.450,192.586 142.520,192.400 143.400 C 192.214 144.280,191.852 146.350,191.597 148.000 C 191.341 149.650,190.981 151.810,190.796 152.800 C 189.142 161.668,187.555 171.667,187.727 172.135 C 187.821 172.391,188.017 171.880,188.164 171.000 C 188.310 170.120,188.603 168.365,188.815 167.100 C 189.027 165.835,189.388 163.675,189.618 162.300 C 189.848 160.925,190.200 158.900,190.400 157.800 C 190.600 156.700,190.952 154.675,191.182 153.300 C 191.412 151.925,191.788 149.675,192.018 148.300 C 192.248 146.925,192.606 144.900,192.814 143.800 C 193.021 142.700,193.472 140.090,193.816 138.000 C 194.160 135.910,194.801 132.066,195.240 129.458 C 195.973 125.103,196.108 122.445,195.476 124.810 M214.256 125.800 C 213.695 129.624,213.126 133.010,212.764 134.677 C 212.564 135.600,212.417 136.950,212.437 137.677 C 212.457 138.405,213.000 135.940,213.642 132.200 C 214.284 128.460,214.751 125.040,214.680 124.600 C 214.608 124.160,214.417 124.700,214.256 125.800 M211.843 140.459 C 211.729 141.197,211.538 142.430,211.419 143.200 C 211.142 144.995,210.484 149.131,209.986 152.200 C 209.772 153.520,209.503 155.230,209.387 156.000 C 209.272 156.770,209.013 158.300,208.811 159.400 C 208.609 160.500,208.249 162.660,208.009 164.200 C 207.770 165.740,207.310 168.599,206.987 170.552 C 206.352 174.396,206.269 175.464,206.635 175.099 C 206.764 174.969,207.047 173.634,207.264 172.132 C 207.481 170.629,207.819 168.410,208.015 167.200 C 208.211 165.990,208.572 163.740,208.817 162.200 C 209.063 160.660,209.415 158.500,209.600 157.400 C 209.785 156.300,210.123 154.230,210.351 152.800 C 210.578 151.370,210.960 149.030,211.198 147.600 C 212.122 142.047,212.445 139.511,212.252 139.319 C 212.142 139.209,211.958 139.722,211.843 140.459 M187.047 174.937 C 186.878 176.002,186.832 176.965,186.944 177.078 C 187.236 177.369,187.705 174.624,187.514 173.740 C 187.427 173.333,187.216 173.871,187.047 174.937 M205.060 182.526 C 204.432 186.446,204.016 189.749,204.134 189.867 C 204.252 189.985,204.454 189.388,204.583 188.541 C 204.712 187.693,205.008 185.740,205.240 184.200 C 205.471 182.660,205.841 180.669,206.062 179.775 C 206.282 178.881,206.403 177.531,206.331 176.775 C 206.254 175.971,205.726 178.360,205.060 182.526 M186.218 179.526 C 186.053 180.695,186.013 181.746,186.129 181.862 C 186.414 182.147,186.931 178.587,186.700 177.925 C 186.600 177.636,186.382 178.357,186.218 179.526 M185.418 184.326 C 185.253 185.495,185.213 186.546,185.329 186.662 C 185.614 186.947,186.131 183.387,185.900 182.725 C 185.800 182.436,185.582 183.157,185.418 184.326 M184.697 188.400 C 184.540 188.950,184.425 189.940,184.442 190.600 L 184.472 191.800 184.858 190.458 C 185.071 189.720,185.186 188.730,185.114 188.258 C 184.992 187.454,184.966 187.463,184.697 188.400 M203.418 192.726 C 203.253 193.895,203.213 194.946,203.329 195.062 C 203.614 195.347,204.131 191.787,203.900 191.125 C 203.800 190.836,203.582 191.557,203.418 192.726 M183.782 193.782 C 183.629 194.802,183.602 195.735,183.722 195.855 C 183.842 195.975,184.065 195.239,184.218 194.218 C 184.371 193.198,184.398 192.265,184.278 192.145 C 184.158 192.025,183.935 192.761,183.782 193.782 M202.618 197.526 C 202.453 198.695,202.413 199.746,202.529 199.862 C 202.814 200.147,203.331 196.587,203.100 195.925 C 203.000 195.636,202.782 196.357,202.618 197.526 M182.985 198.585 C 182.830 199.823,182.800 200.934,182.919 201.052 C 183.037 201.170,183.261 200.254,183.415 199.015 C 183.570 197.777,183.600 196.666,183.481 196.548 C 183.363 196.430,183.139 197.346,182.985 198.585 M201.785 202.585 C 201.630 203.823,201.600 204.934,201.719 205.052 C 201.837 205.170,202.061 204.254,202.215 203.015 C 202.370 201.777,202.400 200.666,202.281 200.548 C 202.163 200.430,201.939 201.346,201.785 202.585 M182.289 202.400 C 182.136 202.950,182.027 203.940,182.046 204.600 C 182.077 205.692,182.114 205.658,182.452 204.211 C 182.875 202.406,182.731 200.811,182.289 202.400 M201.011 207.275 C 200.849 208.306,200.802 209.386,200.906 209.675 C 201.010 209.964,201.227 209.356,201.389 208.325 C 201.551 207.294,201.598 206.214,201.494 205.925 C 201.390 205.636,201.173 206.244,201.011 207.275 M181.388 207.738 C 181.239 208.735,181.199 209.786,181.300 210.075 C 181.400 210.364,181.618 209.643,181.782 208.474 C 181.947 207.305,181.987 206.254,181.871 206.138 C 181.755 206.022,181.538 206.742,181.388 207.738 M200.211 212.075 C 200.049 213.106,200.002 214.186,200.106 214.475 C 200.210 214.764,200.427 214.156,200.589 213.125 C 200.751 212.094,200.798 211.014,200.694 210.725 C 200.590 210.436,200.373 211.044,200.211 212.075 M180.660 212.600 C 180.500 213.700,180.197 215.251,179.985 216.046 C 179.773 216.842,179.618 218.102,179.639 218.846 C 179.662 219.609,180.014 218.455,180.446 216.200 C 180.868 214.000,181.154 211.840,181.081 211.400 C 181.009 210.960,180.819 211.500,180.660 212.600 M117.600 218.054 C 111.770 221.378,106.415 224.435,105.700 224.849 C 102.786 226.533,101.292 227.381,99.161 228.561 C 97.929 229.242,96.489 230.123,95.961 230.517 C 94.733 231.433,99.149 229.126,103.732 226.457 C 105.674 225.326,107.429 224.400,107.632 224.400 C 107.834 224.400,108.000 224.220,108.000 224.000 C 108.000 223.780,108.156 223.600,108.347 223.600 C 108.537 223.600,113.143 221.067,118.581 217.971 C 128.819 212.142,129.500 211.904,129.587 214.122 C 129.594 214.298,130.482 216.278,131.561 218.522 C 132.639 220.765,135.085 225.930,136.996 230.000 C 140.768 238.032,142.563 241.822,145.805 248.600 C 146.962 251.020,148.302 253.873,148.782 254.939 C 149.263 256.005,149.737 256.797,149.836 256.697 C 150.001 256.532,148.644 253.538,143.717 243.200 C 142.721 241.110,141.228 237.960,140.399 236.200 C 139.571 234.440,137.998 231.110,136.906 228.800 C 135.813 226.490,134.037 222.720,132.959 220.422 C 129.922 213.945,129.033 212.253,128.600 212.127 C 128.380 212.063,123.430 214.730,117.600 218.054 M199.388 217.338 C 199.239 218.335,199.199 219.386,199.300 219.675 C 199.400 219.964,199.618 219.243,199.782 218.074 C 199.947 216.905,199.987 215.854,199.871 215.738 C 199.755 215.622,199.538 216.342,199.388 217.338 M179.011 221.859 C 178.628 224.303,177.995 228.027,177.593 230.200 C 177.389 231.300,177.128 232.830,177.013 233.600 C 176.763 235.269,176.143 238.956,175.600 242.000 C 175.384 243.210,175.036 245.280,174.827 246.600 C 174.618 247.920,174.247 250.080,174.004 251.400 C 173.224 255.618,172.781 258.914,172.967 259.101 C 173.067 259.200,173.256 258.588,173.386 257.741 C 173.517 256.893,173.787 255.300,173.985 254.200 C 174.183 253.100,174.551 250.940,174.801 249.400 C 175.266 246.550,175.751 243.787,176.419 240.200 C 176.760 238.368,177.495 234.006,178.408 228.400 C 178.605 227.190,178.970 224.971,179.219 223.469 C 179.468 221.968,179.577 220.644,179.462 220.529 C 179.346 220.413,179.143 221.012,179.011 221.859 M198.588 222.138 C 198.439 223.135,198.399 224.186,198.500 224.475 C 198.600 224.764,198.818 224.043,198.982 222.874 C 199.147 221.705,199.187 220.654,199.071 220.538 C 198.955 220.422,198.738 221.142,198.588 222.138 M197.823 227.274 C 197.680 228.443,197.407 230.210,197.216 231.200 C 196.318 235.848,195.919 238.685,196.062 239.409 C 196.147 239.844,196.736 236.913,197.371 232.896 C 198.005 228.878,198.425 225.492,198.303 225.370 C 198.182 225.248,197.965 226.105,197.823 227.274 M87.400 235.246 C 83.660 237.428,80.330 239.330,80.000 239.472 C 79.670 239.614,78.950 240.033,78.400 240.404 C 77.850 240.775,76.410 241.619,75.200 242.280 C 73.990 242.941,72.325 243.869,71.500 244.341 C 69.941 245.234,68.257 246.197,65.700 247.657 C 64.875 248.128,63.390 248.962,62.400 249.511 C 61.410 250.061,57.720 252.169,54.200 254.197 C 50.680 256.225,46.990 258.335,46.000 258.886 C 45.010 259.436,43.525 260.272,42.700 260.743 C 39.419 262.617,38.339 263.235,36.900 264.063 C 36.075 264.537,35.040 265.129,34.600 265.378 C 30.666 267.601,29.188 268.521,29.326 268.659 C 29.415 268.749,31.718 267.539,34.444 265.971 C 37.170 264.404,40.120 262.714,41.000 262.217 C 42.494 261.373,43.461 260.822,47.000 258.800 C 47.770 258.360,49.030 257.640,49.800 257.200 C 50.570 256.760,51.830 256.040,52.600 255.600 C 56.065 253.620,56.724 253.238,58.718 252.056 C 59.882 251.365,60.907 250.800,60.995 250.800 C 61.082 250.800,63.155 249.630,65.600 248.200 C 68.045 246.770,70.143 245.600,70.261 245.600 C 70.380 245.600,70.954 245.267,71.538 244.861 C 72.122 244.455,73.590 243.581,74.800 242.920 C 76.010 242.259,77.675 241.331,78.500 240.859 C 79.325 240.387,80.630 239.640,81.400 239.200 C 82.170 238.760,83.430 238.040,84.200 237.600 C 84.970 237.160,86.275 236.410,87.100 235.933 C 87.925 235.455,89.860 234.365,91.400 233.510 C 94.210 231.949,95.309 231.164,94.580 231.239 C 94.371 231.260,91.140 233.063,87.400 235.246 M115.200 240.413 C 114.430 240.822,112.540 241.727,111.000 242.424 C 105.932 244.719,104.000 245.657,104.000 245.820 C 104.000 246.042,105.270 245.527,109.000 243.793 C 110.760 242.974,113.359 241.772,114.776 241.122 L 117.351 239.940 118.067 240.870 C 118.460 241.381,118.780 241.620,118.778 241.400 C 118.762 239.730,117.266 239.317,115.200 240.413 M195.421 241.859 C 195.203 243.313,195.004 244.586,193.973 251.100 C 193.738 252.585,193.390 254.700,193.200 255.800 C 193.010 256.900,192.667 258.970,192.438 260.400 C 191.544 265.985,189.581 278.098,188.614 284.000 C 187.556 290.458,187.443 291.490,187.835 291.099 C 187.964 290.969,188.247 289.634,188.464 288.132 C 188.681 286.629,189.019 284.410,189.215 283.200 C 189.411 281.990,189.772 279.740,190.017 278.200 C 190.263 276.660,190.615 274.500,190.800 273.400 C 190.985 272.300,191.323 270.230,191.551 268.800 C 191.778 267.370,192.146 265.120,192.368 263.800 C 192.590 262.480,192.971 260.140,193.214 258.600 C 193.802 254.880,194.310 251.741,194.815 248.700 C 195.725 243.221,196.043 240.710,195.852 240.519 C 195.742 240.409,195.548 241.012,195.421 241.859 M118.800 242.167 C 118.800 242.366,122.348 249.836,127.175 259.800 C 129.094 263.760,132.166 270.103,134.003 273.896 C 135.839 277.688,137.421 280.712,137.518 280.615 C 137.615 280.519,136.208 277.416,134.392 273.720 C 132.576 270.024,130.464 265.650,129.699 264.000 C 128.935 262.350,126.644 257.580,124.608 253.400 C 122.572 249.220,120.518 244.945,120.043 243.900 C 119.301 242.266,118.800 241.568,118.800 242.167 M101.200 246.823 C 100.430 247.237,98.748 248.044,97.462 248.617 C 96.177 249.189,95.205 249.738,95.303 249.836 C 95.401 249.934,97.353 249.125,99.640 248.038 C 101.928 246.951,103.530 246.064,103.200 246.066 C 102.870 246.069,101.970 246.409,101.200 246.823 M90.800 251.623 C 86.869 253.627,87.673 253.626,91.800 251.622 C 93.560 250.767,94.730 250.074,94.400 250.081 C 94.070 250.088,92.450 250.782,90.800 251.623 M84.786 254.331 C 83.568 254.919,81.408 255.923,79.986 256.563 C 78.564 257.203,76.050 258.347,74.400 259.106 C 71.535 260.423,69.783 261.224,65.100 263.356 C 63.945 263.882,61.830 264.853,60.400 265.514 C 57.584 266.815,55.195 267.899,49.000 270.686 C 46.800 271.676,43.650 273.116,42.000 273.886 C 40.350 274.656,38.055 275.716,36.900 276.243 C 35.745 276.769,33.855 277.633,32.700 278.162 C 31.545 278.691,29.727 279.514,28.661 279.990 C 27.595 280.466,26.801 280.935,26.898 281.031 C 27.054 281.187,28.465 280.578,36.200 277.016 C 37.300 276.510,38.920 275.779,39.800 275.392 C 40.680 275.005,42.750 274.063,44.400 273.298 C 48.751 271.283,51.137 270.193,53.400 269.186 C 54.500 268.696,58.070 267.059,61.333 265.548 C 64.596 264.037,67.319 262.800,67.385 262.800 C 67.450 262.800,69.460 261.886,71.852 260.768 C 74.243 259.651,76.830 258.460,77.600 258.122 C 78.370 257.783,80.080 257.006,81.400 256.395 C 82.720 255.783,84.655 254.900,85.700 254.432 C 86.745 253.963,87.600 253.495,87.600 253.390 C 87.600 253.054,87.046 253.239,84.786 254.331 M150.019 257.500 C 150.046 257.936,152.359 262.254,152.381 261.912 C 152.409 261.493,150.411 257.200,150.188 257.200 C 150.085 257.200,150.008 257.335,150.019 257.500 M171.456 266.346 C 170.827 270.141,170.409 273.343,170.527 273.460 C 170.644 273.577,170.852 272.802,170.989 271.737 C 171.126 270.671,171.396 269.080,171.589 268.200 C 172.325 264.832,172.888 260.951,172.746 260.214 C 172.664 259.791,172.084 262.551,171.456 266.346 M152.400 262.540 C 152.400 262.616,153.633 265.271,155.141 268.440 C 156.649 271.608,158.469 275.460,159.186 277.000 C 159.903 278.540,161.433 281.780,162.585 284.200 C 163.736 286.620,165.111 289.542,165.639 290.693 C 166.168 291.844,166.717 292.789,166.861 292.793 C 167.266 292.804,168.005 290.399,167.952 289.240 C 167.920 288.532,167.745 288.839,167.404 290.200 L 166.904 292.200 164.905 288.000 C 161.009 279.811,159.276 276.157,157.604 272.600 C 153.227 263.291,152.400 261.692,152.400 262.540 M27.200 269.600 C 26.650 270.030,26.380 270.382,26.600 270.382 C 26.820 270.382,27.450 270.030,28.000 269.600 C 28.550 269.170,28.820 268.818,28.600 268.818 C 28.380 268.818,27.750 269.170,27.200 269.600 M12.800 270.576 C 12.800 270.893,12.980 271.264,13.200 271.400 C 13.420 271.536,13.600 271.277,13.600 270.824 C 13.600 270.371,13.420 270.000,13.200 270.000 C 12.980 270.000,12.800 270.259,12.800 270.576 M21.252 273.002 C 16.673 275.618,15.200 276.105,15.200 275.000 C 15.200 274.670,15.020 274.400,14.800 274.400 C 14.247 274.400,14.296 274.669,15.062 275.838 C 15.426 276.393,15.831 276.702,15.962 276.524 C 16.093 276.346,16.920 275.823,17.800 275.362 C 18.680 274.900,20.075 274.135,20.900 273.662 C 21.725 273.188,23.075 272.423,23.900 271.962 C 25.344 271.156,26.355 270.398,25.980 270.402 C 25.881 270.403,23.754 271.573,21.252 273.002 M13.600 272.776 C 13.600 273.229,13.780 273.600,14.000 273.600 C 14.220 273.600,14.400 273.341,14.400 273.024 C 14.400 272.707,14.220 272.336,14.000 272.200 C 13.780 272.064,13.600 272.323,13.600 272.776 M169.818 275.926 C 169.653 277.095,169.613 278.146,169.729 278.262 C 170.014 278.547,170.531 274.987,170.300 274.325 C 170.200 274.036,169.982 274.757,169.818 275.926 M169.047 280.537 C 168.878 281.602,168.832 282.565,168.944 282.678 C 169.236 282.969,169.705 280.224,169.514 279.340 C 169.427 278.933,169.216 279.471,169.047 280.537 M22.800 282.627 C 21.370 283.359,19.975 283.968,19.700 283.979 C 18.885 284.013,19.120 285.218,20.500 288.082 C 21.767 290.711,22.400 291.417,22.400 290.200 C 22.400 289.870,22.220 289.600,22.000 289.600 C 21.780 289.600,21.600 289.240,21.600 288.800 C 21.600 288.360,21.420 288.000,21.200 288.000 C 20.980 288.000,20.800 287.655,20.800 287.233 C 20.800 286.812,20.592 286.397,20.337 286.312 C 18.970 285.857,20.467 284.159,23.490 282.737 C 25.200 281.932,26.330 281.279,26.000 281.284 C 25.670 281.290,24.230 281.894,22.800 282.627 M137.968 282.100 C 138.159 282.595,140.291 287.050,142.706 292.000 C 145.120 296.950,147.675 302.229,148.383 303.731 C 149.091 305.234,149.747 306.386,149.841 306.292 C 150.073 306.060,138.120 281.200,137.776 281.200 C 137.690 281.200,137.776 281.605,137.968 282.100 M168.219 285.318 C 168.045 286.374,168.004 287.337,168.126 287.459 C 168.436 287.770,168.911 285.042,168.704 284.140 C 168.610 283.733,168.392 284.263,168.219 285.318 M22.400 291.800 C 22.400 292.130,22.580 292.400,22.800 292.400 C 23.020 292.400,23.200 292.130,23.200 291.800 C 23.200 291.470,23.020 291.200,22.800 291.200 C 22.580 291.200,22.400 291.470,22.400 291.800 M187.018 293.926 C 186.853 295.095,186.813 296.146,186.929 296.262 C 187.214 296.547,187.731 292.987,187.500 292.325 C 187.400 292.036,187.182 292.757,187.018 293.926 M186.218 298.726 C 186.053 299.895,186.013 300.946,186.129 301.062 C 186.414 301.347,186.931 297.787,186.700 297.125 C 186.600 296.836,186.382 297.557,186.218 298.726 M185.415 303.815 C 185.261 305.054,185.224 306.157,185.334 306.267 C 185.444 306.377,185.661 305.454,185.815 304.215 C 185.970 302.977,186.007 301.873,185.897 301.763 C 185.787 301.653,185.570 302.577,185.415 303.815 M150.000 306.946 C 150.000 307.097,155.219 317.986,159.564 326.900 C 160.931 329.705,162.139 332.000,162.249 332.000 C 162.358 332.000,162.377 331.865,162.292 331.700 C 162.207 331.535,161.670 330.410,161.100 329.200 C 160.529 327.990,158.541 323.850,156.682 320.000 C 154.823 316.150,152.640 311.605,151.832 309.900 C 150.577 307.250,150.000 306.320,150.000 306.946 M184.618 308.726 C 184.453 309.895,184.413 310.946,184.529 311.062 C 184.814 311.347,185.331 307.787,185.100 307.125 C 185.000 306.836,184.782 307.557,184.618 308.726 M183.782 313.782 C 183.629 314.802,183.602 315.735,183.722 315.855 C 183.842 315.975,184.065 315.239,184.218 314.218 C 184.371 313.198,184.398 312.265,184.278 312.145 C 184.158 312.025,183.935 312.761,183.782 313.782 M183.090 317.950 C 182.931 318.693,182.820 319.863,182.844 320.550 C 182.881 321.617,182.941 321.536,183.249 320.000 C 183.448 319.010,183.559 317.840,183.496 317.400 C 183.418 316.859,183.286 317.037,183.090 317.950 M182.297 322.800 C 182.140 323.350,182.025 324.340,182.042 325.000 L 182.072 326.200 182.458 324.858 C 182.671 324.120,182.786 323.130,182.714 322.658 C 182.592 321.854,182.566 321.863,182.297 322.800 M181.497 327.600 C 181.340 328.150,181.227 329.230,181.246 330.000 L 181.280 331.400 181.655 329.800 C 182.105 327.877,181.967 325.958,181.497 327.600 M180.625 333.400 C 180.471 334.500,180.189 336.300,179.999 337.400 C 179.808 338.500,179.454 340.660,179.211 342.200 C 178.969 343.740,178.597 346.035,178.385 347.300 C 177.712 351.321,177.253 354.112,176.733 357.334 L 176.229 360.469 172.687 353.134 C 164.044 335.233,162.649 332.418,162.496 332.571 C 162.407 332.660,163.851 335.853,165.705 339.667 C 167.559 343.480,170.223 349.030,171.625 352.000 C 176.727 362.813,176.296 362.773,177.970 352.600 C 178.223 351.060,178.602 348.810,178.812 347.600 C 180.120 340.073,181.241 332.331,181.086 331.902 C 180.987 331.626,180.779 332.300,180.625 333.400 " stroke="none" fill="#a7eef4" fill-rule="evenodd"></path><path id="path3" d="M346.800 65.009 C 346.800 65.123,347.771 66.188,348.957 67.375 C 350.144 68.561,351.439 70.082,351.836 70.753 C 352.640 72.115,353.600 72.684,353.600 71.799 C 353.600 71.482,352.143 69.778,350.363 68.011 C 347.258 64.931,346.800 64.546,346.800 65.009 M206.500 69.487 C 207.105 69.578,208.095 69.578,208.700 69.487 C 209.305 69.395,208.810 69.320,207.600 69.320 C 206.390 69.320,205.895 69.395,206.500 69.487 M218.700 69.895 C 219.855 69.976,221.745 69.976,222.900 69.895 C 224.055 69.814,223.110 69.748,220.800 69.748 C 218.490 69.748,217.545 69.814,218.700 69.895 M237.700 70.298 C 240.065 70.369,243.935 70.369,246.300 70.298 C 248.665 70.228,246.730 70.170,242.000 70.170 C 237.270 70.170,235.335 70.228,237.700 70.298 M260.115 70.696 C 261.388 70.776,263.368 70.775,264.515 70.694 C 265.662 70.614,264.620 70.549,262.200 70.550 C 259.780 70.551,258.842 70.616,260.115 70.696 M282.433 70.944 C 282.525 71.024,288.270 71.173,295.200 71.276 C 302.130 71.379,305.640 71.338,303.000 71.186 C 297.856 70.889,282.157 70.705,282.433 70.944 M323.233 71.744 C 323.325 71.824,329.070 71.972,336.000 72.074 C 342.930 72.175,346.530 72.134,344.000 71.982 C 339.094 71.687,322.954 71.502,323.233 71.744 M203.693 75.600 C 203.693 76.370,203.775 76.685,203.876 76.300 C 203.976 75.915,203.976 75.285,203.876 74.900 C 203.775 74.515,203.693 74.830,203.693 75.600 M337.513 81.095 C 338.676 81.176,340.476 81.176,341.513 81.093 C 342.551 81.011,341.600 80.945,339.400 80.946 C 337.200 80.947,336.351 81.014,337.513 81.095 M316.122 81.499 C 318.499 81.570,322.279 81.569,324.522 81.498 C 326.765 81.427,324.820 81.369,320.200 81.369 C 315.580 81.370,313.745 81.428,316.122 81.499 M360.955 82.100 C 361.315 82.595,362.037 83.630,362.561 84.400 C 363.816 86.244,365.128 87.600,365.658 87.600 C 365.893 87.600,365.526 87.078,364.842 86.440 C 364.159 85.801,363.600 85.081,363.600 84.840 C 363.600 84.598,363.420 84.400,363.200 84.400 C 362.980 84.400,362.800 84.170,362.800 83.888 C 362.800 83.607,362.440 83.117,362.000 82.800 C 361.560 82.483,361.200 81.993,361.200 81.712 C 361.200 81.430,360.998 81.200,360.751 81.200 C 360.480 81.200,360.561 81.556,360.955 82.100 M297.900 81.895 C 299.055 81.976,300.945 81.976,302.100 81.895 C 303.255 81.814,302.310 81.748,300.000 81.748 C 297.690 81.748,296.745 81.814,297.900 81.895 M276.922 82.299 C 279.299 82.370,283.079 82.369,285.322 82.298 C 287.565 82.227,285.620 82.169,281.000 82.169 C 276.380 82.170,274.545 82.228,276.922 82.299 M258.700 82.695 C 259.855 82.776,261.745 82.776,262.900 82.695 C 264.055 82.614,263.110 82.548,260.800 82.548 C 258.490 82.548,257.545 82.614,258.700 82.695 M237.722 83.099 C 240.099 83.170,243.879 83.169,246.122 83.098 C 248.365 83.027,246.420 82.969,241.800 82.969 C 237.180 82.970,235.345 83.028,237.722 83.099 M221.443 83.833 C 221.059 84.832,221.157 85.009,221.700 84.295 C 221.993 83.909,222.944 83.576,224.000 83.489 L 225.800 83.340 223.743 83.270 C 222.191 83.217,221.626 83.355,221.443 83.833 M202.093 84.800 C 202.093 85.570,202.175 85.885,202.276 85.500 C 202.376 85.115,202.376 84.485,202.276 84.100 C 202.175 83.715,202.093 84.030,202.093 84.800 M201.293 90.000 C 201.293 90.770,201.375 91.085,201.476 90.700 C 201.576 90.315,201.576 89.685,201.476 89.300 C 201.375 88.915,201.293 89.230,201.293 90.000 M220.493 90.000 C 220.493 90.770,220.575 91.085,220.676 90.700 C 220.776 90.315,220.776 89.685,220.676 89.300 C 220.575 88.915,220.493 89.230,220.493 90.000 M200.493 94.400 C 200.493 95.170,200.575 95.485,200.676 95.100 C 200.776 94.715,200.776 94.085,200.676 93.700 C 200.575 93.315,200.493 93.630,200.493 94.400 M199.649 99.400 C 199.616 99.840,199.496 100.650,199.383 101.200 L 199.177 102.200 199.606 101.219 C 199.842 100.679,199.961 99.869,199.872 99.419 C 199.713 98.621,199.707 98.621,199.649 99.400 M218.093 105.200 C 218.093 105.970,218.175 106.285,218.276 105.900 C 218.376 105.515,218.376 104.885,218.276 104.500 C 218.175 104.115,218.093 104.430,218.093 105.200 M198.049 108.600 C 198.016 109.040,197.896 109.850,197.783 110.400 L 197.577 111.400 198.006 110.419 C 198.242 109.879,198.361 109.069,198.272 108.619 C 198.113 107.821,198.107 107.821,198.049 108.600 M217.293 110.000 C 217.293 110.770,217.375 111.085,217.476 110.700 C 217.576 110.315,217.576 109.685,217.476 109.300 C 217.375 108.915,217.293 109.230,217.293 110.000 M197.029 114.629 C 196.881 115.215,196.838 115.772,196.932 115.866 C 197.027 115.960,197.224 115.558,197.371 114.971 C 197.519 114.385,197.562 113.828,197.468 113.734 C 197.373 113.640,197.176 114.042,197.029 114.629 M216.493 115.200 C 216.493 115.970,216.575 116.285,216.676 115.900 C 216.776 115.515,216.776 114.885,216.676 114.500 C 216.575 114.115,216.493 114.430,216.493 115.200 M215.693 120.000 C 215.693 120.770,215.775 121.085,215.876 120.700 C 215.976 120.315,215.976 119.685,215.876 119.300 C 215.775 118.915,215.693 119.230,215.693 120.000 M214.893 124.800 C 214.893 125.570,214.975 125.885,215.076 125.500 C 215.176 125.115,215.176 124.485,215.076 124.100 C 214.975 123.715,214.893 124.030,214.893 124.800 M214.049 129.800 C 214.016 130.240,213.896 131.050,213.783 131.600 L 213.577 132.600 214.006 131.619 C 214.242 131.079,214.361 130.269,214.272 129.819 C 214.113 129.021,214.107 129.021,214.049 129.800 M213.249 134.600 C 213.216 135.040,213.096 135.850,212.983 136.400 L 212.777 137.400 213.206 136.419 C 213.442 135.879,213.561 135.069,213.472 134.619 C 213.313 133.821,213.307 133.821,213.249 134.600 M193.049 137.815 C 192.912 138.173,192.815 138.766,192.834 139.133 C 192.853 139.500,193.027 139.269,193.221 138.620 C 193.598 137.358,193.465 136.733,193.049 137.815 M192.267 142.267 C 192.120 142.413,192.011 142.908,192.025 143.367 C 192.049 144.133,192.082 144.123,192.434 143.242 C 192.826 142.263,192.744 141.789,192.267 142.267 M211.646 144.867 C 211.621 145.234,211.496 145.864,211.370 146.267 C 211.152 146.962,211.163 146.963,211.597 146.287 C 211.848 145.896,211.973 145.266,211.873 144.887 C 211.711 144.268,211.688 144.266,211.646 144.867 M191.449 147.015 C 191.312 147.373,191.215 147.966,191.234 148.333 C 191.253 148.700,191.427 148.469,191.621 147.820 C 191.998 146.558,191.865 145.933,191.449 147.015 M210.846 149.667 C 210.821 150.034,210.696 150.664,210.570 151.067 C 210.352 151.762,210.363 151.763,210.797 151.087 C 211.048 150.696,211.173 150.066,211.073 149.687 C 210.911 149.068,210.888 149.066,210.846 149.667 M190.649 151.815 C 190.512 152.173,190.415 152.766,190.434 153.133 C 190.453 153.500,190.627 153.269,190.821 152.620 C 191.198 151.358,191.065 150.733,190.649 151.815 M210.046 154.667 C 210.021 154.924,209.884 155.464,209.741 155.867 C 209.540 156.436,209.594 156.497,209.979 156.142 C 210.252 155.891,210.389 155.351,210.284 154.942 C 210.179 154.534,210.072 154.410,210.046 154.667 M189.849 156.215 C 189.712 156.573,189.615 157.166,189.634 157.533 C 189.653 157.900,189.827 157.669,190.021 157.020 C 190.398 155.758,190.265 155.133,189.849 156.215 M209.246 159.467 C 209.221 159.724,209.084 160.264,208.941 160.667 C 208.740 161.236,208.794 161.297,209.179 160.942 C 209.452 160.691,209.589 160.151,209.484 159.742 C 209.379 159.334,209.272 159.210,209.246 159.467 M189.049 161.015 C 188.912 161.373,188.818 162.056,188.841 162.533 C 188.867 163.081,189.003 162.886,189.210 162.003 C 189.560 160.516,189.465 159.933,189.049 161.015 M208.446 164.467 C 208.421 164.834,208.296 165.464,208.170 165.867 C 207.952 166.562,207.963 166.563,208.397 165.887 C 208.648 165.496,208.773 164.866,208.673 164.487 C 208.511 163.868,208.488 163.866,208.446 164.467 M187.293 172.000 C 187.293 172.770,187.375 173.085,187.476 172.700 C 187.576 172.315,187.576 171.685,187.476 171.300 C 187.375 170.915,187.293 171.230,187.293 172.000 M186.656 174.884 C 186.521 175.388,186.428 176.250,186.449 176.800 C 186.472 177.389,186.631 177.071,186.836 176.025 C 187.203 174.152,187.073 173.327,186.656 174.884 M205.829 180.229 C 205.681 180.815,205.638 181.372,205.732 181.466 C 205.827 181.560,206.024 181.158,206.171 180.571 C 206.319 179.985,206.362 179.428,206.268 179.334 C 206.173 179.240,205.976 179.642,205.829 180.229 M185.693 181.200 C 185.693 181.970,185.775 182.285,185.876 181.900 C 185.976 181.515,185.976 180.885,185.876 180.500 C 185.775 180.115,185.693 180.430,185.693 181.200 M205.050 184.850 C 204.909 185.553,204.869 186.202,204.959 186.292 C 205.050 186.383,205.248 185.891,205.400 185.200 C 205.552 184.509,205.593 183.859,205.491 183.758 C 205.389 183.656,205.191 184.147,205.050 184.850 M184.893 186.400 C 184.893 187.170,184.975 187.485,185.076 187.100 C 185.176 186.715,185.176 186.085,185.076 185.700 C 184.975 185.315,184.893 185.630,184.893 186.400 M204.229 189.829 C 204.081 190.415,204.038 190.972,204.132 191.066 C 204.227 191.160,204.424 190.758,204.571 190.171 C 204.719 189.585,204.762 189.028,204.668 188.934 C 204.573 188.840,204.376 189.242,204.229 189.829 M184.093 190.800 C 184.093 191.570,184.175 191.885,184.276 191.500 C 184.376 191.115,184.376 190.485,184.276 190.100 C 184.175 189.715,184.093 190.030,184.093 190.800 M183.293 195.200 C 183.293 195.970,183.375 196.285,183.476 195.900 C 183.576 195.515,183.576 194.885,183.476 194.500 C 183.375 194.115,183.293 194.430,183.293 195.200 M201.693 206.400 C 201.693 207.170,201.775 207.485,201.876 207.100 C 201.976 206.715,201.976 206.085,201.876 205.700 C 201.775 205.315,201.693 205.630,201.693 206.400 M200.893 211.200 C 200.893 211.970,200.975 212.285,201.076 211.900 C 201.176 211.515,201.176 210.885,201.076 210.500 C 200.975 210.115,200.893 210.430,200.893 211.200 M179.829 215.429 C 179.681 216.015,179.638 216.572,179.732 216.666 C 179.827 216.760,180.024 216.358,180.171 215.771 C 180.319 215.185,180.362 214.628,180.268 214.534 C 180.173 214.440,179.976 214.842,179.829 215.429 M200.093 216.000 C 200.093 216.770,200.175 217.085,200.276 216.700 C 200.376 216.315,200.376 215.685,200.276 215.300 C 200.175 214.915,200.093 215.230,200.093 216.000 M113.600 220.036 C 112.936 220.579,112.869 220.715,113.400 220.440 C 114.705 219.766,115.428 219.212,115.000 219.215 C 114.780 219.217,114.150 219.586,113.600 220.036 M179.029 220.229 C 178.881 220.815,178.838 221.372,178.932 221.466 C 179.027 221.560,179.224 221.158,179.371 220.571 C 179.519 219.985,179.562 219.428,179.468 219.334 C 179.373 219.240,179.176 219.642,179.029 220.229 M199.259 221.000 C 199.220 221.660,199.096 222.650,198.983 223.200 L 198.777 224.200 199.208 223.214 C 199.444 222.672,199.568 221.682,199.483 221.014 L 199.328 219.800 199.259 221.000 M178.249 224.615 C 178.112 224.973,178.015 225.566,178.034 225.933 C 178.053 226.300,178.227 226.069,178.421 225.420 C 178.798 224.158,178.665 223.533,178.249 224.615 M198.459 225.800 C 198.420 226.460,198.296 227.450,198.183 228.000 L 197.977 229.000 198.408 228.014 C 198.644 227.472,198.768 226.482,198.683 225.814 L 198.528 224.600 198.459 225.800 M197.660 231.267 C 197.627 231.854,197.496 232.664,197.370 233.067 C 197.152 233.760,197.165 233.761,197.595 233.090 C 197.846 232.699,197.977 231.889,197.886 231.290 L 197.720 230.200 197.660 231.267 M196.860 236.067 C 196.827 236.654,196.696 237.464,196.570 237.867 C 196.352 238.560,196.365 238.561,196.795 237.890 C 197.046 237.499,197.177 236.689,197.086 236.090 L 196.920 235.000 196.860 236.067 M175.867 238.667 C 175.720 238.813,175.611 239.308,175.625 239.767 C 175.649 240.533,175.682 240.523,176.034 239.642 C 176.426 238.663,176.344 238.189,175.867 238.667 M196.060 240.867 C 196.027 241.454,195.896 242.264,195.770 242.667 C 195.552 243.360,195.565 243.361,195.995 242.690 C 196.246 242.299,196.377 241.489,196.286 240.890 L 196.120 239.800 196.060 240.867 M195.246 246.067 C 195.221 246.434,195.096 247.064,194.970 247.467 C 194.752 248.162,194.763 248.163,195.197 247.487 C 195.448 247.096,195.573 246.466,195.473 246.087 C 195.311 245.468,195.288 245.466,195.246 246.067 M174.267 247.867 C 174.120 248.013,174.015 248.598,174.034 249.167 C 174.068 250.181,174.075 250.179,174.421 249.020 C 174.785 247.803,174.731 247.402,174.267 247.867 M94.000 250.600 C 93.450 250.914,93.180 251.172,93.400 251.172 C 93.620 251.172,94.250 250.914,94.800 250.600 C 95.350 250.286,95.620 250.028,95.400 250.028 C 95.180 250.028,94.550 250.286,94.000 250.600 M194.446 250.867 C 194.421 251.234,194.296 251.864,194.170 252.267 C 193.952 252.962,193.963 252.963,194.397 252.287 C 194.648 251.896,194.773 251.266,194.673 250.887 C 194.511 250.268,194.488 250.266,194.446 250.867 M173.449 252.615 C 173.312 252.973,173.215 253.566,173.234 253.933 C 173.253 254.300,173.427 254.069,173.621 253.420 C 173.998 252.158,173.865 251.533,173.449 252.615 M172.656 257.284 C 172.521 257.788,172.427 258.560,172.446 259.000 C 172.465 259.440,172.645 259.098,172.846 258.240 C 173.236 256.578,173.070 255.740,172.656 257.284 M192.046 265.667 C 192.021 266.034,191.896 266.664,191.770 267.067 C 191.552 267.762,191.563 267.763,191.997 267.087 C 192.248 266.696,192.373 266.066,192.273 265.687 C 192.111 265.068,192.088 265.066,192.046 265.667 M171.049 266.615 C 170.912 266.973,170.818 267.656,170.841 268.133 C 170.867 268.681,171.003 268.486,171.210 267.603 C 171.560 266.116,171.465 265.533,171.049 266.615 M30.300 267.477 C 29.256 268.058,28.463 268.597,28.540 268.673 C 28.700 268.834,32.400 266.814,32.400 266.566 C 32.400 266.315,32.343 266.340,30.300 267.477 M26.000 270.036 C 25.336 270.579,25.269 270.715,25.800 270.440 C 27.105 269.766,27.828 269.212,27.400 269.215 C 27.180 269.217,26.550 269.586,26.000 270.036 M13.100 269.865 C 13.375 269.976,13.600 270.491,13.600 271.010 C 13.600 271.528,13.780 272.064,14.000 272.200 C 14.220 272.336,14.400 272.809,14.400 273.252 C 14.400 273.695,14.670 274.327,15.000 274.657 C 15.533 275.190,15.600 275.165,15.600 274.429 C 15.600 273.973,15.420 273.600,15.200 273.600 C 14.980 273.600,14.800 273.150,14.800 272.600 C 14.800 272.050,14.620 271.600,14.400 271.600 C 14.180 271.600,14.000 271.150,14.000 270.600 C 14.000 269.902,13.788 269.610,13.300 269.632 C 12.882 269.650,12.801 269.744,13.100 269.865 M170.256 271.284 C 170.121 271.788,170.028 272.650,170.049 273.200 C 170.072 273.789,170.231 273.471,170.436 272.425 C 170.803 270.552,170.673 269.727,170.256 271.284 M191.029 271.429 C 190.881 272.015,190.838 272.572,190.932 272.666 C 191.027 272.760,191.224 272.358,191.371 271.771 C 191.519 271.185,191.562 270.628,191.468 270.534 C 191.373 270.440,191.176 270.842,191.029 271.429 M190.229 276.229 C 190.081 276.815,190.051 277.384,190.161 277.494 C 190.271 277.604,190.481 277.215,190.629 276.629 C 190.776 276.042,190.806 275.473,190.696 275.363 C 190.586 275.253,190.376 275.642,190.229 276.229 M169.293 277.600 C 169.293 278.370,169.375 278.685,169.476 278.300 C 169.576 277.915,169.576 277.285,169.476 276.900 C 169.375 276.515,169.293 276.830,169.293 277.600 M168.493 282.400 C 168.493 283.170,168.575 283.485,168.676 283.100 C 168.776 282.715,168.776 282.085,168.676 281.700 C 168.575 281.315,168.493 281.630,168.493 282.400 M20.009 285.500 C 20.004 285.995,20.180 286.400,20.400 286.400 C 20.620 286.400,20.800 286.760,20.800 287.200 C 20.800 287.640,20.980 288.000,21.200 288.000 C 21.420 288.000,21.600 288.360,21.600 288.800 C 21.600 289.240,21.780 289.600,22.000 289.600 C 22.220 289.600,22.400 289.941,22.400 290.357 C 22.400 290.774,22.685 291.224,23.033 291.357 C 23.451 291.518,23.587 291.430,23.434 291.100 C 23.305 290.825,23.089 290.285,22.954 289.900 C 22.818 289.515,22.548 289.200,22.353 289.200 C 22.159 289.200,22.000 288.855,22.000 288.433 C 22.000 288.012,21.859 287.607,21.688 287.533 C 21.516 287.460,21.070 286.770,20.697 286.000 C 20.137 284.845,20.017 284.757,20.009 285.500 M188.629 286.229 C 188.481 286.815,188.438 287.372,188.532 287.466 C 188.627 287.560,188.824 287.158,188.971 286.571 C 189.119 285.985,189.162 285.428,189.068 285.334 C 188.973 285.240,188.776 285.642,188.629 286.229 M167.693 287.200 C 167.693 287.970,167.775 288.285,167.876 287.900 C 167.976 287.515,167.976 286.885,167.876 286.500 C 167.775 286.115,167.693 286.430,167.693 287.200 M187.829 291.029 C 187.681 291.615,187.638 292.172,187.732 292.266 C 187.827 292.360,188.024 291.958,188.171 291.371 C 188.319 290.785,188.362 290.228,188.268 290.134 C 188.173 290.040,187.976 290.442,187.829 291.029 M166.436 291.267 C 166.652 291.670,166.912 292.000,167.014 292.000 C 167.116 292.000,167.200 291.670,167.200 291.267 C 167.200 290.863,166.940 290.533,166.622 290.533 C 166.185 290.533,166.139 290.713,166.436 291.267 M185.293 307.600 C 185.293 308.370,185.375 308.685,185.476 308.300 C 185.576 307.915,185.576 307.285,185.476 306.900 C 185.375 306.515,185.293 306.830,185.293 307.600 M184.493 312.400 C 184.493 313.170,184.575 313.485,184.676 313.100 C 184.776 312.715,184.776 312.085,184.676 311.700 C 184.575 311.315,184.493 311.630,184.493 312.400 M183.701 317.400 C 183.705 318.280,183.787 318.593,183.883 318.095 C 183.979 317.598,183.975 316.878,183.875 316.495 C 183.775 316.113,183.696 316.520,183.701 317.400 M182.893 322.800 C 182.893 323.570,182.975 323.885,183.076 323.500 C 183.176 323.115,183.176 322.485,183.076 322.100 C 182.975 321.715,182.893 322.030,182.893 322.800 M182.101 327.400 C 182.105 328.280,182.187 328.593,182.283 328.095 C 182.379 327.598,182.375 326.878,182.275 326.495 C 182.175 326.113,182.096 326.520,182.101 327.400 M181.293 332.400 C 181.293 333.170,181.375 333.485,181.476 333.100 C 181.576 332.715,181.576 332.085,181.476 331.700 C 181.375 331.315,181.293 331.630,181.293 332.400 M180.460 337.267 C 180.427 337.854,180.296 338.664,180.170 339.067 C 179.952 339.760,179.965 339.761,180.395 339.090 C 180.646 338.699,180.777 337.889,180.686 337.290 L 180.520 336.200 180.460 337.267 M179.654 342.267 C 179.625 342.744,179.496 343.464,179.370 343.867 C 179.152 344.561,179.164 344.562,179.596 343.888 C 179.847 343.497,179.975 342.777,179.881 342.288 C 179.709 341.401,179.709 341.401,179.654 342.267 M178.846 347.267 C 178.821 347.634,178.696 348.264,178.570 348.667 C 178.352 349.362,178.363 349.363,178.797 348.687 C 179.048 348.296,179.173 347.666,179.073 347.287 C 178.911 346.668,178.888 346.666,178.846 347.267 M178.054 352.067 C 178.025 352.434,177.884 353.064,177.741 353.467 C 177.541 354.033,177.595 354.096,177.975 353.746 C 178.246 353.497,178.387 352.867,178.288 352.346 C 178.190 351.826,178.084 351.700,178.054 352.067 M177.254 357.067 C 177.225 357.544,177.096 358.264,176.970 358.667 C 176.752 359.361,176.764 359.362,177.196 358.688 C 177.447 358.297,177.575 357.577,177.481 357.088 C 177.309 356.201,177.309 356.201,177.254 357.067 " stroke="none" fill="#cff4fc" fill-rule="evenodd"></path><path id="path4" d="" stroke="none" fill="#ec100f0" fill-rule="evenodd"></path></g></svg>