<?xml version="1.0" encoding="UTF-8" standalone="no"?>
<svg
   viewBox="0 0 48 48"
   version="1.1"
   id="svg24"
   xmlns="http://www.w3.org/2000/svg"
   xmlns:svg="http://www.w3.org/2000/svg">
  <defs
     id="defs28" />
  <path
     fill="#FFF"
     d="M13.5 44h29c.275 0 .5-.225.5-.5V14h-8.5c-.827 0-1.5-.673-1.5-1.5V4H13.5c-.275 0-.5.225-.5.5v39c0 .275.225.5.5.5z"
     id="path2"
     style="fill:#107c41;fill-opacity:1" />
  <path
     fill="#FFF"
     d="M42.293 13L34 4.707V12.5c0 .275.225.5.5.5h7.793z"
     id="path4"
     style="fill:#107c41;fill-opacity:1" />
  <path
     opacity=".64"
     fill="#605E5C"
     d="M43.56 12.854l-9.414-9.415A1.51 1.51 0 0033.086 3H13.5c-.827 0-1.5.673-1.5 1.5v39c0 .827.673 1.5 1.5 1.5h29c.827 0 1.5-.673 1.5-1.5V13.914c0-.4-.156-.777-.44-1.06zM34 4.707L42.293 13H34.5a.501.501 0 01-.5-.5V4.707zM42.5 44h-29a.501.501 0 01-.5-.5v-39c0-.275.225-.5.5-.5H33v8.5c0 .827.673 1.5 1.5 1.5H43v29.5c0 .275-.225.5-.5.5z"
     id="path6"
     style="fill:#ffffff" />
  <path
     fill="#134A2C"
     d="M39 31h-3a1 1 0 110-2h3a1 1 0 110 2z"
     id="path8"
     style="fill:#f9f7f7;fill-opacity:1" />
  <path
     fill="#185C37"
     d="m 32.689934,31 h -3 a 1,1 0 1 1 0,-2 h 3 a 1,1 0 1 1 0,2 z"
     id="path10"
     style="fill:#f9f7f7;fill-opacity:1" />
  <path
     fill="#21A366"
     d="M39 27h-3a1 1 0 110-2h3a1 1 0 110 2z"
     id="path12"
     style="fill:#f9f7f7;fill-opacity:1" />
  <path
     fill="#107C41"
     d="m 32.689934,27 h -3 a 1,1 0 1 1 0,-2 h 3 a 1,1 0 1 1 0,2 z"
     id="path14"
     style="fill:#f9f7f7;fill-opacity:1" />
  <path
     fill="#33C481"
     d="M39 23h-3a1 1 0 110-2h3a1 1 0 110 2z"
     id="path16"
     style="fill:#f9f7f7;fill-opacity:1" />
  <path
     fill="#21A366"
     d="m 32.689934,23 h -3 a 1,1 0 1 1 0,-2 h 3 a 1,1 0 1 1 0,2 z"
     id="path18"
     style="fill:#f9f7f7;fill-opacity:1" />
  <path
     fill="#f9f7f7"
     d="M 15.518,32 19.369,25.983 15.841,20 h 2.839 l 1.926,3.825 c 0.177,0.362 0.298,0.633 0.365,0.811 h 0.025 c 0.127,-0.29 0.26,-0.572 0.398,-0.845 L 23.454,20 h 2.605 l -3.62,5.95 3.711,6.05 h -2.772 l -2.225,-4.2 a 3.522,3.522 0 0 1 -0.265,-0.561 h -0.033 a 2.605,2.605 0 0 1 -0.257,0.543 L 18.307,32 h -2.79 z"
     id="path22" />
</svg>
